<?xml version="1.0" encoding="utf-8" standalone="no"?>
<!DOCTYPE svg PUBLIC "-//W3C//DTD SVG 1.1//EN"
  "http://www.w3.org/Graphics/SVG/1.1/DTD/svg11.dtd">
<!-- Created with matplotlib (https://matplotlib.org/) -->
<svg height="458.179688pt" version="1.1" viewBox="0 0 937.096165 458.179688" width="937.096165pt" xmlns="http://www.w3.org/2000/svg" xmlns:xlink="http://www.w3.org/1999/xlink">
 <defs>
  <style type="text/css">
*{stroke-linecap:butt;stroke-linejoin:round;}
  </style>
 </defs>
 <g id="figure_1">
  <g id="patch_1">
   <path d="M 0 458.179688 
L 937.096165 458.179688 
L 937.096165 -0 
L 0 -0 
z
" style="fill:none;"/>
  </g>
  <g id="axes_1">
   <g id="patch_2">
    <path d="M 53.328125 348.478125 
L 433.78267 348.478125 
L 433.78267 22.318125 
L 53.328125 22.318125 
z
" style="fill:#ffffff;"/>
   </g>
   <g id="patch_3">
    <path clip-path="url(#p3164ab736c)" d="M 69.180398 348.478125 
L 100.884943 348.478125 
L 100.884943 279.882458 
L 69.180398 279.882458 
z
" style="fill:#1f77b4;"/>
   </g>
   <g id="patch_4">
    <path clip-path="url(#p3164ab736c)" d="M 132.589489 348.478125 
L 164.294034 348.478125 
L 164.294034 123.800751 
L 132.589489 123.800751 
z
" style="fill:#1f77b4;"/>
   </g>
   <g id="patch_5">
    <path clip-path="url(#p3164ab736c)" d="M 195.99858 348.478125 
L 227.703125 348.478125 
L 227.703125 37.849554 
L 195.99858 37.849554 
z
" style="fill:#1f77b4;"/>
   </g>
   <g id="patch_6">
    <path clip-path="url(#p3164ab736c)" d="M 259.40767 348.478125 
L 291.112216 348.478125 
L 291.112216 138.794984 
L 259.40767 138.794984 
z
" style="fill:#1f77b4;"/>
   </g>
   <g id="patch_7">
    <path clip-path="url(#p3164ab736c)" d="M 322.816761 348.478125 
L 354.521307 348.478125 
L 354.521307 258.984983 
L 322.816761 258.984983 
z
" style="fill:#1f77b4;"/>
   </g>
   <g id="patch_8">
    <path clip-path="url(#p3164ab736c)" d="M 386.225852 348.478125 
L 417.930398 348.478125 
L 417.930398 272.798568 
L 386.225852 272.798568 
z
" style="fill:#1f77b4;"/>
   </g>
   <g id="matplotlib.axis_1">
    <g id="xtick_1">
     <g id="line2d_1">
      <defs>
       <path d="M 0 0 
L 0 3.5 
" id="m418658fb4d" style="stroke:#000000;stroke-width:0.8;"/>
      </defs>
      <g>
       <use style="stroke:#000000;stroke-width:0.8;" x="85.03267" xlink:href="#m418658fb4d" y="348.478125"/>
      </g>
     </g>
     <g id="text_1">
      <!-- 1 Adult Kids -->
      <defs>
       <path d="M 12.40625 8.296875 
L 28.515625 8.296875 
L 28.515625 63.921875 
L 10.984375 60.40625 
L 10.984375 69.390625 
L 28.421875 72.90625 
L 38.28125 72.90625 
L 38.28125 8.296875 
L 54.390625 8.296875 
L 54.390625 0 
L 12.40625 0 
z
" id="DejaVuSans-49"/>
       <path id="DejaVuSans-32"/>
       <path d="M 34.1875 63.1875 
L 20.796875 26.90625 
L 47.609375 26.90625 
z
M 28.609375 72.90625 
L 39.796875 72.90625 
L 67.578125 0 
L 57.328125 0 
L 50.6875 18.703125 
L 17.828125 18.703125 
L 11.1875 0 
L 0.78125 0 
z
" id="DejaVuSans-65"/>
       <path d="M 45.40625 46.390625 
L 45.40625 75.984375 
L 54.390625 75.984375 
L 54.390625 0 
L 45.40625 0 
L 45.40625 8.203125 
Q 42.578125 3.328125 38.25 0.953125 
Q 33.9375 -1.421875 27.875 -1.421875 
Q 17.96875 -1.421875 11.734375 6.484375 
Q 5.515625 14.40625 5.515625 27.296875 
Q 5.515625 40.1875 11.734375 48.09375 
Q 17.96875 56 27.875 56 
Q 33.9375 56 38.25 53.625 
Q 42.578125 51.265625 45.40625 46.390625 
z
M 14.796875 27.296875 
Q 14.796875 17.390625 18.875 11.75 
Q 22.953125 6.109375 30.078125 6.109375 
Q 37.203125 6.109375 41.296875 11.75 
Q 45.40625 17.390625 45.40625 27.296875 
Q 45.40625 37.203125 41.296875 42.84375 
Q 37.203125 48.484375 30.078125 48.484375 
Q 22.953125 48.484375 18.875 42.84375 
Q 14.796875 37.203125 14.796875 27.296875 
z
" id="DejaVuSans-100"/>
       <path d="M 8.5 21.578125 
L 8.5 54.6875 
L 17.484375 54.6875 
L 17.484375 21.921875 
Q 17.484375 14.15625 20.5 10.265625 
Q 23.53125 6.390625 29.59375 6.390625 
Q 36.859375 6.390625 41.078125 11.03125 
Q 45.3125 15.671875 45.3125 23.6875 
L 45.3125 54.6875 
L 54.296875 54.6875 
L 54.296875 0 
L 45.3125 0 
L 45.3125 8.40625 
Q 42.046875 3.421875 37.71875 1 
Q 33.40625 -1.421875 27.6875 -1.421875 
Q 18.265625 -1.421875 13.375 4.4375 
Q 8.5 10.296875 8.5 21.578125 
z
M 31.109375 56 
z
" id="DejaVuSans-117"/>
       <path d="M 9.421875 75.984375 
L 18.40625 75.984375 
L 18.40625 0 
L 9.421875 0 
z
" id="DejaVuSans-108"/>
       <path d="M 18.3125 70.21875 
L 18.3125 54.6875 
L 36.8125 54.6875 
L 36.8125 47.703125 
L 18.3125 47.703125 
L 18.3125 18.015625 
Q 18.3125 11.328125 20.140625 9.421875 
Q 21.96875 7.515625 27.59375 7.515625 
L 36.8125 7.515625 
L 36.8125 0 
L 27.59375 0 
Q 17.1875 0 13.234375 3.875 
Q 9.28125 7.765625 9.28125 18.015625 
L 9.28125 47.703125 
L 2.6875 47.703125 
L 2.6875 54.6875 
L 9.28125 54.6875 
L 9.28125 70.21875 
z
" id="DejaVuSans-116"/>
       <path d="M 9.8125 72.90625 
L 19.671875 72.90625 
L 19.671875 42.09375 
L 52.390625 72.90625 
L 65.09375 72.90625 
L 28.90625 38.921875 
L 67.671875 0 
L 54.6875 0 
L 19.671875 35.109375 
L 19.671875 0 
L 9.8125 0 
z
" id="DejaVuSans-75"/>
       <path d="M 9.421875 54.6875 
L 18.40625 54.6875 
L 18.40625 0 
L 9.421875 0 
z
M 9.421875 75.984375 
L 18.40625 75.984375 
L 18.40625 64.59375 
L 9.421875 64.59375 
z
" id="DejaVuSans-105"/>
       <path d="M 44.28125 53.078125 
L 44.28125 44.578125 
Q 40.484375 46.53125 36.375 47.5 
Q 32.28125 48.484375 27.875 48.484375 
Q 21.1875 48.484375 17.84375 46.4375 
Q 14.5 44.390625 14.5 40.28125 
Q 14.5 37.15625 16.890625 35.375 
Q 19.28125 33.59375 26.515625 31.984375 
L 29.59375 31.296875 
Q 39.15625 29.25 43.1875 25.515625 
Q 47.21875 21.78125 47.21875 15.09375 
Q 47.21875 7.46875 41.1875 3.015625 
Q 35.15625 -1.421875 24.609375 -1.421875 
Q 20.21875 -1.421875 15.453125 -0.5625 
Q 10.6875 0.296875 5.421875 2 
L 5.421875 11.28125 
Q 10.40625 8.6875 15.234375 7.390625 
Q 20.0625 6.109375 24.8125 6.109375 
Q 31.15625 6.109375 34.5625 8.28125 
Q 37.984375 10.453125 37.984375 14.40625 
Q 37.984375 18.0625 35.515625 20.015625 
Q 33.0625 21.96875 24.703125 23.78125 
L 21.578125 24.515625 
Q 13.234375 26.265625 9.515625 29.90625 
Q 5.8125 33.546875 5.8125 39.890625 
Q 5.8125 47.609375 11.28125 51.796875 
Q 16.75 56 26.8125 56 
Q 31.78125 56 36.171875 55.265625 
Q 40.578125 54.546875 44.28125 53.078125 
z
" id="DejaVuSans-115"/>
      </defs>
      <g transform="translate(87.792045 415.314062)rotate(-90)scale(0.1 -0.1)">
       <use xlink:href="#DejaVuSans-49"/>
       <use x="63.623047" xlink:href="#DejaVuSans-32"/>
       <use x="95.410156" xlink:href="#DejaVuSans-65"/>
       <use x="163.802734" xlink:href="#DejaVuSans-100"/>
       <use x="227.279297" xlink:href="#DejaVuSans-117"/>
       <use x="290.658203" xlink:href="#DejaVuSans-108"/>
       <use x="318.441406" xlink:href="#DejaVuSans-116"/>
       <use x="357.650391" xlink:href="#DejaVuSans-32"/>
       <use x="389.4375" xlink:href="#DejaVuSans-75"/>
       <use x="455.013672" xlink:href="#DejaVuSans-105"/>
       <use x="482.796875" xlink:href="#DejaVuSans-100"/>
       <use x="546.273438" xlink:href="#DejaVuSans-115"/>
      </g>
     </g>
    </g>
    <g id="xtick_2">
     <g id="line2d_2">
      <g>
       <use style="stroke:#000000;stroke-width:0.8;" x="148.441761" xlink:href="#m418658fb4d" y="348.478125"/>
      </g>
     </g>
     <g id="text_2">
      <!-- 2 Adults Kids -->
      <defs>
       <path d="M 19.1875 8.296875 
L 53.609375 8.296875 
L 53.609375 0 
L 7.328125 0 
L 7.328125 8.296875 
Q 12.9375 14.109375 22.625 23.890625 
Q 32.328125 33.6875 34.8125 36.53125 
Q 39.546875 41.84375 41.421875 45.53125 
Q 43.3125 49.21875 43.3125 52.78125 
Q 43.3125 58.59375 39.234375 62.25 
Q 35.15625 65.921875 28.609375 65.921875 
Q 23.96875 65.921875 18.8125 64.3125 
Q 13.671875 62.703125 7.8125 59.421875 
L 7.8125 69.390625 
Q 13.765625 71.78125 18.9375 73 
Q 24.125 74.21875 28.421875 74.21875 
Q 39.75 74.21875 46.484375 68.546875 
Q 53.21875 62.890625 53.21875 53.421875 
Q 53.21875 48.921875 51.53125 44.890625 
Q 49.859375 40.875 45.40625 35.40625 
Q 44.1875 33.984375 37.640625 27.21875 
Q 31.109375 20.453125 19.1875 8.296875 
z
" id="DejaVuSans-50"/>
      </defs>
      <g transform="translate(151.201136 420.523438)rotate(-90)scale(0.1 -0.1)">
       <use xlink:href="#DejaVuSans-50"/>
       <use x="63.623047" xlink:href="#DejaVuSans-32"/>
       <use x="95.410156" xlink:href="#DejaVuSans-65"/>
       <use x="163.802734" xlink:href="#DejaVuSans-100"/>
       <use x="227.279297" xlink:href="#DejaVuSans-117"/>
       <use x="290.658203" xlink:href="#DejaVuSans-108"/>
       <use x="318.441406" xlink:href="#DejaVuSans-116"/>
       <use x="357.650391" xlink:href="#DejaVuSans-115"/>
       <use x="409.75" xlink:href="#DejaVuSans-32"/>
       <use x="441.537109" xlink:href="#DejaVuSans-75"/>
       <use x="507.113281" xlink:href="#DejaVuSans-105"/>
       <use x="534.896484" xlink:href="#DejaVuSans-100"/>
       <use x="598.373047" xlink:href="#DejaVuSans-115"/>
      </g>
     </g>
    </g>
    <g id="xtick_3">
     <g id="line2d_3">
      <g>
       <use style="stroke:#000000;stroke-width:0.8;" x="211.850852" xlink:href="#m418658fb4d" y="348.478125"/>
      </g>
     </g>
     <g id="text_3">
      <!-- 2 Adults No Kids -->
      <defs>
       <path d="M 9.8125 72.90625 
L 23.09375 72.90625 
L 55.421875 11.921875 
L 55.421875 72.90625 
L 64.984375 72.90625 
L 64.984375 0 
L 51.703125 0 
L 19.390625 60.984375 
L 19.390625 0 
L 9.8125 0 
z
" id="DejaVuSans-78"/>
       <path d="M 30.609375 48.390625 
Q 23.390625 48.390625 19.1875 42.75 
Q 14.984375 37.109375 14.984375 27.296875 
Q 14.984375 17.484375 19.15625 11.84375 
Q 23.34375 6.203125 30.609375 6.203125 
Q 37.796875 6.203125 41.984375 11.859375 
Q 46.1875 17.53125 46.1875 27.296875 
Q 46.1875 37.015625 41.984375 42.703125 
Q 37.796875 48.390625 30.609375 48.390625 
z
M 30.609375 56 
Q 42.328125 56 49.015625 48.375 
Q 55.71875 40.765625 55.71875 27.296875 
Q 55.71875 13.875 49.015625 6.21875 
Q 42.328125 -1.421875 30.609375 -1.421875 
Q 18.84375 -1.421875 12.171875 6.21875 
Q 5.515625 13.875 5.515625 27.296875 
Q 5.515625 40.765625 12.171875 48.375 
Q 18.84375 56 30.609375 56 
z
" id="DejaVuSans-111"/>
      </defs>
      <g transform="translate(214.610227 437.301562)rotate(-90)scale(0.1 -0.1)">
       <use xlink:href="#DejaVuSans-50"/>
       <use x="63.623047" xlink:href="#DejaVuSans-32"/>
       <use x="95.410156" xlink:href="#DejaVuSans-65"/>
       <use x="163.802734" xlink:href="#DejaVuSans-100"/>
       <use x="227.279297" xlink:href="#DejaVuSans-117"/>
       <use x="290.658203" xlink:href="#DejaVuSans-108"/>
       <use x="318.441406" xlink:href="#DejaVuSans-116"/>
       <use x="357.650391" xlink:href="#DejaVuSans-115"/>
       <use x="409.75" xlink:href="#DejaVuSans-32"/>
       <use x="441.537109" xlink:href="#DejaVuSans-78"/>
       <use x="516.341797" xlink:href="#DejaVuSans-111"/>
       <use x="577.523438" xlink:href="#DejaVuSans-32"/>
       <use x="609.310547" xlink:href="#DejaVuSans-75"/>
       <use x="674.886719" xlink:href="#DejaVuSans-105"/>
       <use x="702.669922" xlink:href="#DejaVuSans-100"/>
       <use x="766.146484" xlink:href="#DejaVuSans-115"/>
      </g>
     </g>
    </g>
    <g id="xtick_4">
     <g id="line2d_4">
      <g>
       <use style="stroke:#000000;stroke-width:0.8;" x="275.259943" xlink:href="#m418658fb4d" y="348.478125"/>
      </g>
     </g>
     <g id="text_4">
      <!-- Single Female -->
      <defs>
       <path d="M 53.515625 70.515625 
L 53.515625 60.890625 
Q 47.90625 63.578125 42.921875 64.890625 
Q 37.9375 66.21875 33.296875 66.21875 
Q 25.25 66.21875 20.875 63.09375 
Q 16.5 59.96875 16.5 54.203125 
Q 16.5 49.359375 19.40625 46.890625 
Q 22.3125 44.4375 30.421875 42.921875 
L 36.375 41.703125 
Q 47.40625 39.59375 52.65625 34.296875 
Q 57.90625 29 57.90625 20.125 
Q 57.90625 9.515625 50.796875 4.046875 
Q 43.703125 -1.421875 29.984375 -1.421875 
Q 24.8125 -1.421875 18.96875 -0.25 
Q 13.140625 0.921875 6.890625 3.21875 
L 6.890625 13.375 
Q 12.890625 10.015625 18.65625 8.296875 
Q 24.421875 6.59375 29.984375 6.59375 
Q 38.421875 6.59375 43.015625 9.90625 
Q 47.609375 13.234375 47.609375 19.390625 
Q 47.609375 24.75 44.3125 27.78125 
Q 41.015625 30.8125 33.5 32.328125 
L 27.484375 33.5 
Q 16.453125 35.6875 11.515625 40.375 
Q 6.59375 45.0625 6.59375 53.421875 
Q 6.59375 63.09375 13.40625 68.65625 
Q 20.21875 74.21875 32.171875 74.21875 
Q 37.3125 74.21875 42.625 73.28125 
Q 47.953125 72.359375 53.515625 70.515625 
z
" id="DejaVuSans-83"/>
       <path d="M 54.890625 33.015625 
L 54.890625 0 
L 45.90625 0 
L 45.90625 32.71875 
Q 45.90625 40.484375 42.875 44.328125 
Q 39.84375 48.1875 33.796875 48.1875 
Q 26.515625 48.1875 22.3125 43.546875 
Q 18.109375 38.921875 18.109375 30.90625 
L 18.109375 0 
L 9.078125 0 
L 9.078125 54.6875 
L 18.109375 54.6875 
L 18.109375 46.1875 
Q 21.34375 51.125 25.703125 53.5625 
Q 30.078125 56 35.796875 56 
Q 45.21875 56 50.046875 50.171875 
Q 54.890625 44.34375 54.890625 33.015625 
z
" id="DejaVuSans-110"/>
       <path d="M 45.40625 27.984375 
Q 45.40625 37.75 41.375 43.109375 
Q 37.359375 48.484375 30.078125 48.484375 
Q 22.859375 48.484375 18.828125 43.109375 
Q 14.796875 37.75 14.796875 27.984375 
Q 14.796875 18.265625 18.828125 12.890625 
Q 22.859375 7.515625 30.078125 7.515625 
Q 37.359375 7.515625 41.375 12.890625 
Q 45.40625 18.265625 45.40625 27.984375 
z
M 54.390625 6.78125 
Q 54.390625 -7.171875 48.1875 -13.984375 
Q 42 -20.796875 29.203125 -20.796875 
Q 24.46875 -20.796875 20.265625 -20.09375 
Q 16.0625 -19.390625 12.109375 -17.921875 
L 12.109375 -9.1875 
Q 16.0625 -11.328125 19.921875 -12.34375 
Q 23.78125 -13.375 27.78125 -13.375 
Q 36.625 -13.375 41.015625 -8.765625 
Q 45.40625 -4.15625 45.40625 5.171875 
L 45.40625 9.625 
Q 42.625 4.78125 38.28125 2.390625 
Q 33.9375 0 27.875 0 
Q 17.828125 0 11.671875 7.65625 
Q 5.515625 15.328125 5.515625 27.984375 
Q 5.515625 40.671875 11.671875 48.328125 
Q 17.828125 56 27.875 56 
Q 33.9375 56 38.28125 53.609375 
Q 42.625 51.21875 45.40625 46.390625 
L 45.40625 54.6875 
L 54.390625 54.6875 
z
" id="DejaVuSans-103"/>
       <path d="M 56.203125 29.59375 
L 56.203125 25.203125 
L 14.890625 25.203125 
Q 15.484375 15.921875 20.484375 11.0625 
Q 25.484375 6.203125 34.421875 6.203125 
Q 39.59375 6.203125 44.453125 7.46875 
Q 49.3125 8.734375 54.109375 11.28125 
L 54.109375 2.78125 
Q 49.265625 0.734375 44.1875 -0.34375 
Q 39.109375 -1.421875 33.890625 -1.421875 
Q 20.796875 -1.421875 13.15625 6.1875 
Q 5.515625 13.8125 5.515625 26.8125 
Q 5.515625 40.234375 12.765625 48.109375 
Q 20.015625 56 32.328125 56 
Q 43.359375 56 49.78125 48.890625 
Q 56.203125 41.796875 56.203125 29.59375 
z
M 47.21875 32.234375 
Q 47.125 39.59375 43.09375 43.984375 
Q 39.0625 48.390625 32.421875 48.390625 
Q 24.90625 48.390625 20.390625 44.140625 
Q 15.875 39.890625 15.1875 32.171875 
z
" id="DejaVuSans-101"/>
       <path d="M 9.8125 72.90625 
L 51.703125 72.90625 
L 51.703125 64.59375 
L 19.671875 64.59375 
L 19.671875 43.109375 
L 48.578125 43.109375 
L 48.578125 34.8125 
L 19.671875 34.8125 
L 19.671875 0 
L 9.8125 0 
z
" id="DejaVuSans-70"/>
       <path d="M 52 44.1875 
Q 55.375 50.25 60.0625 53.125 
Q 64.75 56 71.09375 56 
Q 79.640625 56 84.28125 50.015625 
Q 88.921875 44.046875 88.921875 33.015625 
L 88.921875 0 
L 79.890625 0 
L 79.890625 32.71875 
Q 79.890625 40.578125 77.09375 44.375 
Q 74.3125 48.1875 68.609375 48.1875 
Q 61.625 48.1875 57.5625 43.546875 
Q 53.515625 38.921875 53.515625 30.90625 
L 53.515625 0 
L 44.484375 0 
L 44.484375 32.71875 
Q 44.484375 40.625 41.703125 44.40625 
Q 38.921875 48.1875 33.109375 48.1875 
Q 26.21875 48.1875 22.15625 43.53125 
Q 18.109375 38.875 18.109375 30.90625 
L 18.109375 0 
L 9.078125 0 
L 9.078125 54.6875 
L 18.109375 54.6875 
L 18.109375 46.1875 
Q 21.1875 51.21875 25.484375 53.609375 
Q 29.78125 56 35.6875 56 
Q 41.65625 56 45.828125 52.96875 
Q 50 49.953125 52 44.1875 
z
" id="DejaVuSans-109"/>
       <path d="M 34.28125 27.484375 
Q 23.390625 27.484375 19.1875 25 
Q 14.984375 22.515625 14.984375 16.5 
Q 14.984375 11.71875 18.140625 8.90625 
Q 21.296875 6.109375 26.703125 6.109375 
Q 34.1875 6.109375 38.703125 11.40625 
Q 43.21875 16.703125 43.21875 25.484375 
L 43.21875 27.484375 
z
M 52.203125 31.203125 
L 52.203125 0 
L 43.21875 0 
L 43.21875 8.296875 
Q 40.140625 3.328125 35.546875 0.953125 
Q 30.953125 -1.421875 24.3125 -1.421875 
Q 15.921875 -1.421875 10.953125 3.296875 
Q 6 8.015625 6 15.921875 
Q 6 25.140625 12.171875 29.828125 
Q 18.359375 34.515625 30.609375 34.515625 
L 43.21875 34.515625 
L 43.21875 35.40625 
Q 43.21875 41.609375 39.140625 45 
Q 35.0625 48.390625 27.6875 48.390625 
Q 23 48.390625 18.546875 47.265625 
Q 14.109375 46.140625 10.015625 43.890625 
L 10.015625 52.203125 
Q 14.9375 54.109375 19.578125 55.046875 
Q 24.21875 56 28.609375 56 
Q 40.484375 56 46.34375 49.84375 
Q 52.203125 43.703125 52.203125 31.203125 
z
" id="DejaVuSans-97"/>
      </defs>
      <g transform="translate(278.019318 426.096875)rotate(-90)scale(0.1 -0.1)">
       <use xlink:href="#DejaVuSans-83"/>
       <use x="63.476562" xlink:href="#DejaVuSans-105"/>
       <use x="91.259766" xlink:href="#DejaVuSans-110"/>
       <use x="154.638672" xlink:href="#DejaVuSans-103"/>
       <use x="218.115234" xlink:href="#DejaVuSans-108"/>
       <use x="245.898438" xlink:href="#DejaVuSans-101"/>
       <use x="307.421875" xlink:href="#DejaVuSans-32"/>
       <use x="339.208984" xlink:href="#DejaVuSans-70"/>
       <use x="396.650391" xlink:href="#DejaVuSans-101"/>
       <use x="458.173828" xlink:href="#DejaVuSans-109"/>
       <use x="555.585938" xlink:href="#DejaVuSans-97"/>
       <use x="616.865234" xlink:href="#DejaVuSans-108"/>
       <use x="644.648438" xlink:href="#DejaVuSans-101"/>
      </g>
     </g>
    </g>
    <g id="xtick_5">
     <g id="line2d_5">
      <g>
       <use style="stroke:#000000;stroke-width:0.8;" x="338.669034" xlink:href="#m418658fb4d" y="348.478125"/>
      </g>
     </g>
     <g id="text_5">
      <!-- Single Male -->
      <defs>
       <path d="M 9.8125 72.90625 
L 24.515625 72.90625 
L 43.109375 23.296875 
L 61.8125 72.90625 
L 76.515625 72.90625 
L 76.515625 0 
L 66.890625 0 
L 66.890625 64.015625 
L 48.09375 14.015625 
L 38.1875 14.015625 
L 19.390625 64.015625 
L 19.390625 0 
L 9.8125 0 
z
" id="DejaVuSans-77"/>
      </defs>
      <g transform="translate(341.428409 413.0875)rotate(-90)scale(0.1 -0.1)">
       <use xlink:href="#DejaVuSans-83"/>
       <use x="63.476562" xlink:href="#DejaVuSans-105"/>
       <use x="91.259766" xlink:href="#DejaVuSans-110"/>
       <use x="154.638672" xlink:href="#DejaVuSans-103"/>
       <use x="218.115234" xlink:href="#DejaVuSans-108"/>
       <use x="245.898438" xlink:href="#DejaVuSans-101"/>
       <use x="307.421875" xlink:href="#DejaVuSans-32"/>
       <use x="339.208984" xlink:href="#DejaVuSans-77"/>
       <use x="425.488281" xlink:href="#DejaVuSans-97"/>
       <use x="486.767578" xlink:href="#DejaVuSans-108"/>
       <use x="514.550781" xlink:href="#DejaVuSans-101"/>
      </g>
     </g>
    </g>
    <g id="xtick_6">
     <g id="line2d_6">
      <g>
       <use style="stroke:#000000;stroke-width:0.8;" x="402.078125" xlink:href="#m418658fb4d" y="348.478125"/>
      </g>
     </g>
     <g id="text_6">
      <!-- Unknown -->
      <defs>
       <path d="M 8.6875 72.90625 
L 18.609375 72.90625 
L 18.609375 28.609375 
Q 18.609375 16.890625 22.84375 11.734375 
Q 27.09375 6.59375 36.625 6.59375 
Q 46.09375 6.59375 50.34375 11.734375 
Q 54.59375 16.890625 54.59375 28.609375 
L 54.59375 72.90625 
L 64.5 72.90625 
L 64.5 27.390625 
Q 64.5 13.140625 57.4375 5.859375 
Q 50.390625 -1.421875 36.625 -1.421875 
Q 22.796875 -1.421875 15.734375 5.859375 
Q 8.6875 13.140625 8.6875 27.390625 
z
" id="DejaVuSans-85"/>
       <path d="M 9.078125 75.984375 
L 18.109375 75.984375 
L 18.109375 31.109375 
L 44.921875 54.6875 
L 56.390625 54.6875 
L 27.390625 29.109375 
L 57.625 0 
L 45.90625 0 
L 18.109375 26.703125 
L 18.109375 0 
L 9.078125 0 
z
" id="DejaVuSans-107"/>
       <path d="M 4.203125 54.6875 
L 13.1875 54.6875 
L 24.421875 12.015625 
L 35.59375 54.6875 
L 46.1875 54.6875 
L 57.421875 12.015625 
L 68.609375 54.6875 
L 77.59375 54.6875 
L 63.28125 0 
L 52.6875 0 
L 40.921875 44.828125 
L 29.109375 0 
L 18.5 0 
z
" id="DejaVuSans-119"/>
      </defs>
      <g transform="translate(404.8375 401.896875)rotate(-90)scale(0.1 -0.1)">
       <use xlink:href="#DejaVuSans-85"/>
       <use x="73.193359" xlink:href="#DejaVuSans-110"/>
       <use x="136.572266" xlink:href="#DejaVuSans-107"/>
       <use x="194.482422" xlink:href="#DejaVuSans-110"/>
       <use x="257.861328" xlink:href="#DejaVuSans-111"/>
       <use x="319.042969" xlink:href="#DejaVuSans-119"/>
       <use x="400.830078" xlink:href="#DejaVuSans-110"/>
      </g>
     </g>
    </g>
    <g id="text_7">
     <!-- Family Composition -->
     <defs>
      <path d="M 32.171875 -5.078125 
Q 28.375 -14.84375 24.75 -17.8125 
Q 21.140625 -20.796875 15.09375 -20.796875 
L 7.90625 -20.796875 
L 7.90625 -13.28125 
L 13.1875 -13.28125 
Q 16.890625 -13.28125 18.9375 -11.515625 
Q 21 -9.765625 23.484375 -3.21875 
L 25.09375 0.875 
L 2.984375 54.6875 
L 12.5 54.6875 
L 29.59375 11.921875 
L 46.6875 54.6875 
L 56.203125 54.6875 
z
" id="DejaVuSans-121"/>
      <path d="M 64.40625 67.28125 
L 64.40625 56.890625 
Q 59.421875 61.53125 53.78125 63.8125 
Q 48.140625 66.109375 41.796875 66.109375 
Q 29.296875 66.109375 22.65625 58.46875 
Q 16.015625 50.828125 16.015625 36.375 
Q 16.015625 21.96875 22.65625 14.328125 
Q 29.296875 6.6875 41.796875 6.6875 
Q 48.140625 6.6875 53.78125 8.984375 
Q 59.421875 11.28125 64.40625 15.921875 
L 64.40625 5.609375 
Q 59.234375 2.09375 53.4375 0.328125 
Q 47.65625 -1.421875 41.21875 -1.421875 
Q 24.65625 -1.421875 15.125 8.703125 
Q 5.609375 18.84375 5.609375 36.375 
Q 5.609375 53.953125 15.125 64.078125 
Q 24.65625 74.21875 41.21875 74.21875 
Q 47.75 74.21875 53.53125 72.484375 
Q 59.328125 70.75 64.40625 67.28125 
z
" id="DejaVuSans-67"/>
      <path d="M 18.109375 8.203125 
L 18.109375 -20.796875 
L 9.078125 -20.796875 
L 9.078125 54.6875 
L 18.109375 54.6875 
L 18.109375 46.390625 
Q 20.953125 51.265625 25.265625 53.625 
Q 29.59375 56 35.59375 56 
Q 45.5625 56 51.78125 48.09375 
Q 58.015625 40.1875 58.015625 27.296875 
Q 58.015625 14.40625 51.78125 6.484375 
Q 45.5625 -1.421875 35.59375 -1.421875 
Q 29.59375 -1.421875 25.265625 0.953125 
Q 20.953125 3.328125 18.109375 8.203125 
z
M 48.6875 27.296875 
Q 48.6875 37.203125 44.609375 42.84375 
Q 40.53125 48.484375 33.40625 48.484375 
Q 26.265625 48.484375 22.1875 42.84375 
Q 18.109375 37.203125 18.109375 27.296875 
Q 18.109375 17.390625 22.1875 11.75 
Q 26.265625 6.109375 33.40625 6.109375 
Q 40.53125 6.109375 44.609375 11.75 
Q 48.6875 17.390625 48.6875 27.296875 
z
" id="DejaVuSans-112"/>
     </defs>
     <g transform="translate(194.199929 448.9)scale(0.1 -0.1)">
      <use xlink:href="#DejaVuSans-70"/>
      <use x="57.378906" xlink:href="#DejaVuSans-97"/>
      <use x="118.658203" xlink:href="#DejaVuSans-109"/>
      <use x="216.070312" xlink:href="#DejaVuSans-105"/>
      <use x="243.853516" xlink:href="#DejaVuSans-108"/>
      <use x="271.636719" xlink:href="#DejaVuSans-121"/>
      <use x="330.816406" xlink:href="#DejaVuSans-32"/>
      <use x="362.603516" xlink:href="#DejaVuSans-67"/>
      <use x="432.427734" xlink:href="#DejaVuSans-111"/>
      <use x="493.609375" xlink:href="#DejaVuSans-109"/>
      <use x="591.021484" xlink:href="#DejaVuSans-112"/>
      <use x="654.498047" xlink:href="#DejaVuSans-111"/>
      <use x="715.679688" xlink:href="#DejaVuSans-115"/>
      <use x="767.779297" xlink:href="#DejaVuSans-105"/>
      <use x="795.5625" xlink:href="#DejaVuSans-116"/>
      <use x="834.771484" xlink:href="#DejaVuSans-105"/>
      <use x="862.554688" xlink:href="#DejaVuSans-111"/>
      <use x="923.736328" xlink:href="#DejaVuSans-110"/>
     </g>
    </g>
   </g>
   <g id="matplotlib.axis_2">
    <g id="ytick_1">
     <g id="line2d_7">
      <defs>
       <path d="M 0 0 
L -3.5 0 
" id="m8d9009f78b" style="stroke:#000000;stroke-width:0.8;"/>
      </defs>
      <g>
       <use style="stroke:#000000;stroke-width:0.8;" x="53.328125" xlink:href="#m8d9009f78b" y="348.478125"/>
      </g>
     </g>
     <g id="text_8">
      <!-- 0 -->
      <defs>
       <path d="M 31.78125 66.40625 
Q 24.171875 66.40625 20.328125 58.90625 
Q 16.5 51.421875 16.5 36.375 
Q 16.5 21.390625 20.328125 13.890625 
Q 24.171875 6.390625 31.78125 6.390625 
Q 39.453125 6.390625 43.28125 13.890625 
Q 47.125 21.390625 47.125 36.375 
Q 47.125 51.421875 43.28125 58.90625 
Q 39.453125 66.40625 31.78125 66.40625 
z
M 31.78125 74.21875 
Q 44.046875 74.21875 50.515625 64.515625 
Q 56.984375 54.828125 56.984375 36.375 
Q 56.984375 17.96875 50.515625 8.265625 
Q 44.046875 -1.421875 31.78125 -1.421875 
Q 19.53125 -1.421875 13.0625 8.265625 
Q 6.59375 17.96875 6.59375 36.375 
Q 6.59375 54.828125 13.0625 64.515625 
Q 19.53125 74.21875 31.78125 74.21875 
z
" id="DejaVuSans-48"/>
      </defs>
      <g transform="translate(39.965625 352.277344)scale(0.1 -0.1)">
       <use xlink:href="#DejaVuSans-48"/>
      </g>
     </g>
    </g>
    <g id="ytick_2">
     <g id="line2d_8">
      <g>
       <use style="stroke:#000000;stroke-width:0.8;" x="53.328125" xlink:href="#m8d9009f78b" y="289.445709"/>
      </g>
     </g>
     <g id="text_9">
      <!-- 500 -->
      <defs>
       <path d="M 10.796875 72.90625 
L 49.515625 72.90625 
L 49.515625 64.59375 
L 19.828125 64.59375 
L 19.828125 46.734375 
Q 21.96875 47.46875 24.109375 47.828125 
Q 26.265625 48.1875 28.421875 48.1875 
Q 40.625 48.1875 47.75 41.5 
Q 54.890625 34.8125 54.890625 23.390625 
Q 54.890625 11.625 47.5625 5.09375 
Q 40.234375 -1.421875 26.90625 -1.421875 
Q 22.3125 -1.421875 17.546875 -0.640625 
Q 12.796875 0.140625 7.71875 1.703125 
L 7.71875 11.625 
Q 12.109375 9.234375 16.796875 8.0625 
Q 21.484375 6.890625 26.703125 6.890625 
Q 35.15625 6.890625 40.078125 11.328125 
Q 45.015625 15.765625 45.015625 23.390625 
Q 45.015625 31 40.078125 35.4375 
Q 35.15625 39.890625 26.703125 39.890625 
Q 22.75 39.890625 18.8125 39.015625 
Q 14.890625 38.140625 10.796875 36.28125 
z
" id="DejaVuSans-53"/>
      </defs>
      <g transform="translate(27.240625 293.244928)scale(0.1 -0.1)">
       <use xlink:href="#DejaVuSans-53"/>
       <use x="63.623047" xlink:href="#DejaVuSans-48"/>
       <use x="127.246094" xlink:href="#DejaVuSans-48"/>
      </g>
     </g>
    </g>
    <g id="ytick_3">
     <g id="line2d_9">
      <g>
       <use style="stroke:#000000;stroke-width:0.8;" x="53.328125" xlink:href="#m8d9009f78b" y="230.413294"/>
      </g>
     </g>
     <g id="text_10">
      <!-- 1000 -->
      <g transform="translate(20.878125 234.212512)scale(0.1 -0.1)">
       <use xlink:href="#DejaVuSans-49"/>
       <use x="63.623047" xlink:href="#DejaVuSans-48"/>
       <use x="127.246094" xlink:href="#DejaVuSans-48"/>
       <use x="190.869141" xlink:href="#DejaVuSans-48"/>
      </g>
     </g>
    </g>
    <g id="ytick_4">
     <g id="line2d_10">
      <g>
       <use style="stroke:#000000;stroke-width:0.8;" x="53.328125" xlink:href="#m8d9009f78b" y="171.380878"/>
      </g>
     </g>
     <g id="text_11">
      <!-- 1500 -->
      <g transform="translate(20.878125 175.180097)scale(0.1 -0.1)">
       <use xlink:href="#DejaVuSans-49"/>
       <use x="63.623047" xlink:href="#DejaVuSans-53"/>
       <use x="127.246094" xlink:href="#DejaVuSans-48"/>
       <use x="190.869141" xlink:href="#DejaVuSans-48"/>
      </g>
     </g>
    </g>
    <g id="ytick_5">
     <g id="line2d_11">
      <g>
       <use style="stroke:#000000;stroke-width:0.8;" x="53.328125" xlink:href="#m8d9009f78b" y="112.348462"/>
      </g>
     </g>
     <g id="text_12">
      <!-- 2000 -->
      <g transform="translate(20.878125 116.147681)scale(0.1 -0.1)">
       <use xlink:href="#DejaVuSans-50"/>
       <use x="63.623047" xlink:href="#DejaVuSans-48"/>
       <use x="127.246094" xlink:href="#DejaVuSans-48"/>
       <use x="190.869141" xlink:href="#DejaVuSans-48"/>
      </g>
     </g>
    </g>
    <g id="ytick_6">
     <g id="line2d_12">
      <g>
       <use style="stroke:#000000;stroke-width:0.8;" x="53.328125" xlink:href="#m8d9009f78b" y="53.316046"/>
      </g>
     </g>
     <g id="text_13">
      <!-- 2500 -->
      <g transform="translate(20.878125 57.115265)scale(0.1 -0.1)">
       <use xlink:href="#DejaVuSans-50"/>
       <use x="63.623047" xlink:href="#DejaVuSans-53"/>
       <use x="127.246094" xlink:href="#DejaVuSans-48"/>
       <use x="190.869141" xlink:href="#DejaVuSans-48"/>
      </g>
     </g>
    </g>
    <g id="text_14">
     <!-- Number of Transactions -->
     <defs>
      <path d="M 48.6875 27.296875 
Q 48.6875 37.203125 44.609375 42.84375 
Q 40.53125 48.484375 33.40625 48.484375 
Q 26.265625 48.484375 22.1875 42.84375 
Q 18.109375 37.203125 18.109375 27.296875 
Q 18.109375 17.390625 22.1875 11.75 
Q 26.265625 6.109375 33.40625 6.109375 
Q 40.53125 6.109375 44.609375 11.75 
Q 48.6875 17.390625 48.6875 27.296875 
z
M 18.109375 46.390625 
Q 20.953125 51.265625 25.265625 53.625 
Q 29.59375 56 35.59375 56 
Q 45.5625 56 51.78125 48.09375 
Q 58.015625 40.1875 58.015625 27.296875 
Q 58.015625 14.40625 51.78125 6.484375 
Q 45.5625 -1.421875 35.59375 -1.421875 
Q 29.59375 -1.421875 25.265625 0.953125 
Q 20.953125 3.328125 18.109375 8.203125 
L 18.109375 0 
L 9.078125 0 
L 9.078125 75.984375 
L 18.109375 75.984375 
z
" id="DejaVuSans-98"/>
      <path d="M 41.109375 46.296875 
Q 39.59375 47.171875 37.8125 47.578125 
Q 36.03125 48 33.890625 48 
Q 26.265625 48 22.1875 43.046875 
Q 18.109375 38.09375 18.109375 28.8125 
L 18.109375 0 
L 9.078125 0 
L 9.078125 54.6875 
L 18.109375 54.6875 
L 18.109375 46.1875 
Q 20.953125 51.171875 25.484375 53.578125 
Q 30.03125 56 36.53125 56 
Q 37.453125 56 38.578125 55.875 
Q 39.703125 55.765625 41.0625 55.515625 
z
" id="DejaVuSans-114"/>
      <path d="M 37.109375 75.984375 
L 37.109375 68.5 
L 28.515625 68.5 
Q 23.6875 68.5 21.796875 66.546875 
Q 19.921875 64.59375 19.921875 59.515625 
L 19.921875 54.6875 
L 34.71875 54.6875 
L 34.71875 47.703125 
L 19.921875 47.703125 
L 19.921875 0 
L 10.890625 0 
L 10.890625 47.703125 
L 2.296875 47.703125 
L 2.296875 54.6875 
L 10.890625 54.6875 
L 10.890625 58.5 
Q 10.890625 67.625 15.140625 71.796875 
Q 19.390625 75.984375 28.609375 75.984375 
z
" id="DejaVuSans-102"/>
      <path d="M -0.296875 72.90625 
L 61.375 72.90625 
L 61.375 64.59375 
L 35.5 64.59375 
L 35.5 0 
L 25.59375 0 
L 25.59375 64.59375 
L -0.296875 64.59375 
z
" id="DejaVuSans-84"/>
      <path d="M 48.78125 52.59375 
L 48.78125 44.1875 
Q 44.96875 46.296875 41.140625 47.34375 
Q 37.3125 48.390625 33.40625 48.390625 
Q 24.65625 48.390625 19.8125 42.84375 
Q 14.984375 37.3125 14.984375 27.296875 
Q 14.984375 17.28125 19.8125 11.734375 
Q 24.65625 6.203125 33.40625 6.203125 
Q 37.3125 6.203125 41.140625 7.25 
Q 44.96875 8.296875 48.78125 10.40625 
L 48.78125 2.09375 
Q 45.015625 0.34375 40.984375 -0.53125 
Q 36.96875 -1.421875 32.421875 -1.421875 
Q 20.0625 -1.421875 12.78125 6.34375 
Q 5.515625 14.109375 5.515625 27.296875 
Q 5.515625 40.671875 12.859375 48.328125 
Q 20.21875 56 33.015625 56 
Q 37.15625 56 41.109375 55.140625 
Q 45.0625 54.296875 48.78125 52.59375 
z
" id="DejaVuSans-99"/>
     </defs>
     <g transform="translate(14.798438 245.412969)rotate(-90)scale(0.1 -0.1)">
      <use xlink:href="#DejaVuSans-78"/>
      <use x="74.804688" xlink:href="#DejaVuSans-117"/>
      <use x="138.183594" xlink:href="#DejaVuSans-109"/>
      <use x="235.595703" xlink:href="#DejaVuSans-98"/>
      <use x="299.072266" xlink:href="#DejaVuSans-101"/>
      <use x="360.595703" xlink:href="#DejaVuSans-114"/>
      <use x="401.708984" xlink:href="#DejaVuSans-32"/>
      <use x="433.496094" xlink:href="#DejaVuSans-111"/>
      <use x="494.677734" xlink:href="#DejaVuSans-102"/>
      <use x="529.882812" xlink:href="#DejaVuSans-32"/>
      <use x="561.669922" xlink:href="#DejaVuSans-84"/>
      <use x="622.535156" xlink:href="#DejaVuSans-114"/>
      <use x="663.648438" xlink:href="#DejaVuSans-97"/>
      <use x="724.927734" xlink:href="#DejaVuSans-110"/>
      <use x="788.306641" xlink:href="#DejaVuSans-115"/>
      <use x="840.40625" xlink:href="#DejaVuSans-97"/>
      <use x="901.685547" xlink:href="#DejaVuSans-99"/>
      <use x="956.666016" xlink:href="#DejaVuSans-116"/>
      <use x="995.875" xlink:href="#DejaVuSans-105"/>
      <use x="1023.658203" xlink:href="#DejaVuSans-111"/>
      <use x="1084.839844" xlink:href="#DejaVuSans-110"/>
      <use x="1148.21875" xlink:href="#DejaVuSans-115"/>
     </g>
    </g>
   </g>
   <g id="patch_9">
    <path d="M 53.328125 348.478125 
L 53.328125 22.318125 
" style="fill:none;stroke:#000000;stroke-linecap:square;stroke-linejoin:miter;stroke-width:0.8;"/>
   </g>
   <g id="patch_10">
    <path d="M 433.78267 348.478125 
L 433.78267 22.318125 
" style="fill:none;stroke:#000000;stroke-linecap:square;stroke-linejoin:miter;stroke-width:0.8;"/>
   </g>
   <g id="patch_11">
    <path d="M 53.328125 348.478125 
L 433.78267 348.478125 
" style="fill:none;stroke:#000000;stroke-linecap:square;stroke-linejoin:miter;stroke-width:0.8;"/>
   </g>
   <g id="patch_12">
    <path d="M 53.328125 22.318125 
L 433.78267 22.318125 
" style="fill:none;stroke:#000000;stroke-linecap:square;stroke-linejoin:miter;stroke-width:0.8;"/>
   </g>
   <g id="text_15">
    <!-- Transactions for Seafood Products -->
    <defs>
     <path d="M 19.671875 64.796875 
L 19.671875 37.40625 
L 32.078125 37.40625 
Q 38.96875 37.40625 42.71875 40.96875 
Q 46.484375 44.53125 46.484375 51.125 
Q 46.484375 57.671875 42.71875 61.234375 
Q 38.96875 64.796875 32.078125 64.796875 
z
M 9.8125 72.90625 
L 32.078125 72.90625 
Q 44.34375 72.90625 50.609375 67.359375 
Q 56.890625 61.8125 56.890625 51.125 
Q 56.890625 40.328125 50.609375 34.8125 
Q 44.34375 29.296875 32.078125 29.296875 
L 19.671875 29.296875 
L 19.671875 0 
L 9.8125 0 
z
" id="DejaVuSans-80"/>
    </defs>
    <g transform="translate(140.68446 16.318125)scale(0.12 -0.12)">
     <use xlink:href="#DejaVuSans-84"/>
     <use x="60.865234" xlink:href="#DejaVuSans-114"/>
     <use x="101.978516" xlink:href="#DejaVuSans-97"/>
     <use x="163.257812" xlink:href="#DejaVuSans-110"/>
     <use x="226.636719" xlink:href="#DejaVuSans-115"/>
     <use x="278.736328" xlink:href="#DejaVuSans-97"/>
     <use x="340.015625" xlink:href="#DejaVuSans-99"/>
     <use x="394.996094" xlink:href="#DejaVuSans-116"/>
     <use x="434.205078" xlink:href="#DejaVuSans-105"/>
     <use x="461.988281" xlink:href="#DejaVuSans-111"/>
     <use x="523.169922" xlink:href="#DejaVuSans-110"/>
     <use x="586.548828" xlink:href="#DejaVuSans-115"/>
     <use x="638.648438" xlink:href="#DejaVuSans-32"/>
     <use x="670.435547" xlink:href="#DejaVuSans-102"/>
     <use x="705.640625" xlink:href="#DejaVuSans-111"/>
     <use x="766.822266" xlink:href="#DejaVuSans-114"/>
     <use x="807.935547" xlink:href="#DejaVuSans-32"/>
     <use x="839.722656" xlink:href="#DejaVuSans-83"/>
     <use x="903.199219" xlink:href="#DejaVuSans-101"/>
     <use x="964.722656" xlink:href="#DejaVuSans-97"/>
     <use x="1026.001953" xlink:href="#DejaVuSans-102"/>
     <use x="1061.207031" xlink:href="#DejaVuSans-111"/>
     <use x="1122.388672" xlink:href="#DejaVuSans-111"/>
     <use x="1183.570312" xlink:href="#DejaVuSans-100"/>
     <use x="1247.046875" xlink:href="#DejaVuSans-32"/>
     <use x="1278.833984" xlink:href="#DejaVuSans-80"/>
     <use x="1339.121094" xlink:href="#DejaVuSans-114"/>
     <use x="1380.203125" xlink:href="#DejaVuSans-111"/>
     <use x="1441.384766" xlink:href="#DejaVuSans-100"/>
     <use x="1504.861328" xlink:href="#DejaVuSans-117"/>
     <use x="1568.240234" xlink:href="#DejaVuSans-99"/>
     <use x="1623.220703" xlink:href="#DejaVuSans-116"/>
     <use x="1662.429688" xlink:href="#DejaVuSans-115"/>
    </g>
   </g>
  </g>
  <g id="axes_2">
   <g id="patch_13">
    <path d="M 509.87358 348.478125 
L 890.328125 348.478125 
L 890.328125 22.318125 
L 509.87358 22.318125 
z
" style="fill:#ffffff;"/>
   </g>
   <g id="patch_14">
    <path clip-path="url(#p9ae45e21f7)" d="M 525.725852 348.478125 
L 557.430398 348.478125 
L 557.430398 92.398449 
L 525.725852 92.398449 
z
" style="fill:#008000;"/>
   </g>
   <g id="patch_15">
    <path clip-path="url(#p9ae45e21f7)" d="M 589.134943 348.478125 
L 620.839489 348.478125 
L 620.839489 204.854819 
L 589.134943 204.854819 
z
" style="fill:#008000;"/>
   </g>
   <g id="patch_16">
    <path clip-path="url(#p9ae45e21f7)" d="M 652.544034 348.478125 
L 684.24858 348.478125 
L 684.24858 207.746204 
L 652.544034 207.746204 
z
" style="fill:#008000;"/>
   </g>
   <g id="patch_17">
    <path clip-path="url(#p9ae45e21f7)" d="M 715.953125 348.478125 
L 747.65767 348.478125 
L 747.65767 37.849554 
L 715.953125 37.849554 
z
" style="fill:#008000;"/>
   </g>
   <g id="patch_18">
    <path clip-path="url(#p9ae45e21f7)" d="M 779.362216 348.478125 
L 811.066761 348.478125 
L 811.066761 128.67969 
L 779.362216 128.67969 
z
" style="fill:#008000;"/>
   </g>
   <g id="patch_19">
    <path clip-path="url(#p9ae45e21f7)" d="M 842.771307 348.478125 
L 874.475852 348.478125 
L 874.475852 157.5828 
L 842.771307 157.5828 
z
" style="fill:#008000;"/>
   </g>
   <g id="matplotlib.axis_3">
    <g id="xtick_7">
     <g id="line2d_13">
      <g>
       <use style="stroke:#000000;stroke-width:0.8;" x="541.578125" xlink:href="#m418658fb4d" y="348.478125"/>
      </g>
     </g>
     <g id="text_16">
      <!-- 1 Adult Kids -->
      <g transform="translate(544.3375 415.314062)rotate(-90)scale(0.1 -0.1)">
       <use xlink:href="#DejaVuSans-49"/>
       <use x="63.623047" xlink:href="#DejaVuSans-32"/>
       <use x="95.410156" xlink:href="#DejaVuSans-65"/>
       <use x="163.802734" xlink:href="#DejaVuSans-100"/>
       <use x="227.279297" xlink:href="#DejaVuSans-117"/>
       <use x="290.658203" xlink:href="#DejaVuSans-108"/>
       <use x="318.441406" xlink:href="#DejaVuSans-116"/>
       <use x="357.650391" xlink:href="#DejaVuSans-32"/>
       <use x="389.4375" xlink:href="#DejaVuSans-75"/>
       <use x="455.013672" xlink:href="#DejaVuSans-105"/>
       <use x="482.796875" xlink:href="#DejaVuSans-100"/>
       <use x="546.273438" xlink:href="#DejaVuSans-115"/>
      </g>
     </g>
    </g>
    <g id="xtick_8">
     <g id="line2d_14">
      <g>
       <use style="stroke:#000000;stroke-width:0.8;" x="604.987216" xlink:href="#m418658fb4d" y="348.478125"/>
      </g>
     </g>
     <g id="text_17">
      <!-- 2 Adults Kids -->
      <g transform="translate(607.746591 420.523438)rotate(-90)scale(0.1 -0.1)">
       <use xlink:href="#DejaVuSans-50"/>
       <use x="63.623047" xlink:href="#DejaVuSans-32"/>
       <use x="95.410156" xlink:href="#DejaVuSans-65"/>
       <use x="163.802734" xlink:href="#DejaVuSans-100"/>
       <use x="227.279297" xlink:href="#DejaVuSans-117"/>
       <use x="290.658203" xlink:href="#DejaVuSans-108"/>
       <use x="318.441406" xlink:href="#DejaVuSans-116"/>
       <use x="357.650391" xlink:href="#DejaVuSans-115"/>
       <use x="409.75" xlink:href="#DejaVuSans-32"/>
       <use x="441.537109" xlink:href="#DejaVuSans-75"/>
       <use x="507.113281" xlink:href="#DejaVuSans-105"/>
       <use x="534.896484" xlink:href="#DejaVuSans-100"/>
       <use x="598.373047" xlink:href="#DejaVuSans-115"/>
      </g>
     </g>
    </g>
    <g id="xtick_9">
     <g id="line2d_15">
      <g>
       <use style="stroke:#000000;stroke-width:0.8;" x="668.396307" xlink:href="#m418658fb4d" y="348.478125"/>
      </g>
     </g>
     <g id="text_18">
      <!-- 2 Adults No Kids -->
      <g transform="translate(671.155682 437.301562)rotate(-90)scale(0.1 -0.1)">
       <use xlink:href="#DejaVuSans-50"/>
       <use x="63.623047" xlink:href="#DejaVuSans-32"/>
       <use x="95.410156" xlink:href="#DejaVuSans-65"/>
       <use x="163.802734" xlink:href="#DejaVuSans-100"/>
       <use x="227.279297" xlink:href="#DejaVuSans-117"/>
       <use x="290.658203" xlink:href="#DejaVuSans-108"/>
       <use x="318.441406" xlink:href="#DejaVuSans-116"/>
       <use x="357.650391" xlink:href="#DejaVuSans-115"/>
       <use x="409.75" xlink:href="#DejaVuSans-32"/>
       <use x="441.537109" xlink:href="#DejaVuSans-78"/>
       <use x="516.341797" xlink:href="#DejaVuSans-111"/>
       <use x="577.523438" xlink:href="#DejaVuSans-32"/>
       <use x="609.310547" xlink:href="#DejaVuSans-75"/>
       <use x="674.886719" xlink:href="#DejaVuSans-105"/>
       <use x="702.669922" xlink:href="#DejaVuSans-100"/>
       <use x="766.146484" xlink:href="#DejaVuSans-115"/>
      </g>
     </g>
    </g>
    <g id="xtick_10">
     <g id="line2d_16">
      <g>
       <use style="stroke:#000000;stroke-width:0.8;" x="731.805398" xlink:href="#m418658fb4d" y="348.478125"/>
      </g>
     </g>
     <g id="text_19">
      <!-- Single Female -->
      <g transform="translate(734.564773 426.096875)rotate(-90)scale(0.1 -0.1)">
       <use xlink:href="#DejaVuSans-83"/>
       <use x="63.476562" xlink:href="#DejaVuSans-105"/>
       <use x="91.259766" xlink:href="#DejaVuSans-110"/>
       <use x="154.638672" xlink:href="#DejaVuSans-103"/>
       <use x="218.115234" xlink:href="#DejaVuSans-108"/>
       <use x="245.898438" xlink:href="#DejaVuSans-101"/>
       <use x="307.421875" xlink:href="#DejaVuSans-32"/>
       <use x="339.208984" xlink:href="#DejaVuSans-70"/>
       <use x="396.650391" xlink:href="#DejaVuSans-101"/>
       <use x="458.173828" xlink:href="#DejaVuSans-109"/>
       <use x="555.585938" xlink:href="#DejaVuSans-97"/>
       <use x="616.865234" xlink:href="#DejaVuSans-108"/>
       <use x="644.648438" xlink:href="#DejaVuSans-101"/>
      </g>
     </g>
    </g>
    <g id="xtick_11">
     <g id="line2d_17">
      <g>
       <use style="stroke:#000000;stroke-width:0.8;" x="795.214489" xlink:href="#m418658fb4d" y="348.478125"/>
      </g>
     </g>
     <g id="text_20">
      <!-- Single Male -->
      <g transform="translate(797.973864 413.0875)rotate(-90)scale(0.1 -0.1)">
       <use xlink:href="#DejaVuSans-83"/>
       <use x="63.476562" xlink:href="#DejaVuSans-105"/>
       <use x="91.259766" xlink:href="#DejaVuSans-110"/>
       <use x="154.638672" xlink:href="#DejaVuSans-103"/>
       <use x="218.115234" xlink:href="#DejaVuSans-108"/>
       <use x="245.898438" xlink:href="#DejaVuSans-101"/>
       <use x="307.421875" xlink:href="#DejaVuSans-32"/>
       <use x="339.208984" xlink:href="#DejaVuSans-77"/>
       <use x="425.488281" xlink:href="#DejaVuSans-97"/>
       <use x="486.767578" xlink:href="#DejaVuSans-108"/>
       <use x="514.550781" xlink:href="#DejaVuSans-101"/>
      </g>
     </g>
    </g>
    <g id="xtick_12">
     <g id="line2d_18">
      <g>
       <use style="stroke:#000000;stroke-width:0.8;" x="858.62358" xlink:href="#m418658fb4d" y="348.478125"/>
      </g>
     </g>
     <g id="text_21">
      <!-- Unknown -->
      <g transform="translate(861.382955 401.896875)rotate(-90)scale(0.1 -0.1)">
       <use xlink:href="#DejaVuSans-85"/>
       <use x="73.193359" xlink:href="#DejaVuSans-110"/>
       <use x="136.572266" xlink:href="#DejaVuSans-107"/>
       <use x="194.482422" xlink:href="#DejaVuSans-110"/>
       <use x="257.861328" xlink:href="#DejaVuSans-111"/>
       <use x="319.042969" xlink:href="#DejaVuSans-119"/>
       <use x="400.830078" xlink:href="#DejaVuSans-110"/>
      </g>
     </g>
    </g>
    <g id="text_22">
     <!-- Family Composition -->
     <g transform="translate(650.745384 448.9)scale(0.1 -0.1)">
      <use xlink:href="#DejaVuSans-70"/>
      <use x="57.378906" xlink:href="#DejaVuSans-97"/>
      <use x="118.658203" xlink:href="#DejaVuSans-109"/>
      <use x="216.070312" xlink:href="#DejaVuSans-105"/>
      <use x="243.853516" xlink:href="#DejaVuSans-108"/>
      <use x="271.636719" xlink:href="#DejaVuSans-121"/>
      <use x="330.816406" xlink:href="#DejaVuSans-32"/>
      <use x="362.603516" xlink:href="#DejaVuSans-67"/>
      <use x="432.427734" xlink:href="#DejaVuSans-111"/>
      <use x="493.609375" xlink:href="#DejaVuSans-109"/>
      <use x="591.021484" xlink:href="#DejaVuSans-112"/>
      <use x="654.498047" xlink:href="#DejaVuSans-111"/>
      <use x="715.679688" xlink:href="#DejaVuSans-115"/>
      <use x="767.779297" xlink:href="#DejaVuSans-105"/>
      <use x="795.5625" xlink:href="#DejaVuSans-116"/>
      <use x="834.771484" xlink:href="#DejaVuSans-105"/>
      <use x="862.554688" xlink:href="#DejaVuSans-111"/>
      <use x="923.736328" xlink:href="#DejaVuSans-110"/>
     </g>
    </g>
   </g>
   <g id="matplotlib.axis_4">
    <g id="ytick_7">
     <g id="line2d_19">
      <g>
       <use style="stroke:#000000;stroke-width:0.8;" x="509.87358" xlink:href="#m8d9009f78b" y="348.478125"/>
      </g>
     </g>
     <g id="text_23">
      <!-- 0 -->
      <g transform="translate(496.51108 352.277344)scale(0.1 -0.1)">
       <use xlink:href="#DejaVuSans-48"/>
      </g>
     </g>
    </g>
    <g id="ytick_8">
     <g id="line2d_20">
      <g>
       <use style="stroke:#000000;stroke-width:0.8;" x="509.87358" xlink:href="#m8d9009f78b" y="293.38353"/>
      </g>
     </g>
     <g id="text_24">
      <!-- 5 -->
      <g transform="translate(496.51108 297.182749)scale(0.1 -0.1)">
       <use xlink:href="#DejaVuSans-53"/>
      </g>
     </g>
    </g>
    <g id="ytick_9">
     <g id="line2d_21">
      <g>
       <use style="stroke:#000000;stroke-width:0.8;" x="509.87358" xlink:href="#m8d9009f78b" y="238.288936"/>
      </g>
     </g>
     <g id="text_25">
      <!-- 10 -->
      <g transform="translate(490.14858 242.088155)scale(0.1 -0.1)">
       <use xlink:href="#DejaVuSans-49"/>
       <use x="63.623047" xlink:href="#DejaVuSans-48"/>
      </g>
     </g>
    </g>
    <g id="ytick_10">
     <g id="line2d_22">
      <g>
       <use style="stroke:#000000;stroke-width:0.8;" x="509.87358" xlink:href="#m8d9009f78b" y="183.194341"/>
      </g>
     </g>
     <g id="text_26">
      <!-- 15 -->
      <g transform="translate(490.14858 186.99356)scale(0.1 -0.1)">
       <use xlink:href="#DejaVuSans-49"/>
       <use x="63.623047" xlink:href="#DejaVuSans-53"/>
      </g>
     </g>
    </g>
    <g id="ytick_11">
     <g id="line2d_23">
      <g>
       <use style="stroke:#000000;stroke-width:0.8;" x="509.87358" xlink:href="#m8d9009f78b" y="128.099747"/>
      </g>
     </g>
     <g id="text_27">
      <!-- 20 -->
      <g transform="translate(490.14858 131.898965)scale(0.1 -0.1)">
       <use xlink:href="#DejaVuSans-50"/>
       <use x="63.623047" xlink:href="#DejaVuSans-48"/>
      </g>
     </g>
    </g>
    <g id="ytick_12">
     <g id="line2d_24">
      <g>
       <use style="stroke:#000000;stroke-width:0.8;" x="509.87358" xlink:href="#m8d9009f78b" y="73.005152"/>
      </g>
     </g>
     <g id="text_28">
      <!-- 25 -->
      <g transform="translate(490.14858 76.804371)scale(0.1 -0.1)">
       <use xlink:href="#DejaVuSans-50"/>
       <use x="63.623047" xlink:href="#DejaVuSans-53"/>
      </g>
     </g>
    </g>
    <g id="text_29">
     <!-- Number of Transactions per Number of Families -->
     <g transform="translate(484.068892 305.6325)rotate(-90)scale(0.1 -0.1)">
      <use xlink:href="#DejaVuSans-78"/>
      <use x="74.804688" xlink:href="#DejaVuSans-117"/>
      <use x="138.183594" xlink:href="#DejaVuSans-109"/>
      <use x="235.595703" xlink:href="#DejaVuSans-98"/>
      <use x="299.072266" xlink:href="#DejaVuSans-101"/>
      <use x="360.595703" xlink:href="#DejaVuSans-114"/>
      <use x="401.708984" xlink:href="#DejaVuSans-32"/>
      <use x="433.496094" xlink:href="#DejaVuSans-111"/>
      <use x="494.677734" xlink:href="#DejaVuSans-102"/>
      <use x="529.882812" xlink:href="#DejaVuSans-32"/>
      <use x="561.669922" xlink:href="#DejaVuSans-84"/>
      <use x="622.535156" xlink:href="#DejaVuSans-114"/>
      <use x="663.648438" xlink:href="#DejaVuSans-97"/>
      <use x="724.927734" xlink:href="#DejaVuSans-110"/>
      <use x="788.306641" xlink:href="#DejaVuSans-115"/>
      <use x="840.40625" xlink:href="#DejaVuSans-97"/>
      <use x="901.685547" xlink:href="#DejaVuSans-99"/>
      <use x="956.666016" xlink:href="#DejaVuSans-116"/>
      <use x="995.875" xlink:href="#DejaVuSans-105"/>
      <use x="1023.658203" xlink:href="#DejaVuSans-111"/>
      <use x="1084.839844" xlink:href="#DejaVuSans-110"/>
      <use x="1148.21875" xlink:href="#DejaVuSans-115"/>
      <use x="1200.318359" xlink:href="#DejaVuSans-32"/>
      <use x="1232.105469" xlink:href="#DejaVuSans-112"/>
      <use x="1295.582031" xlink:href="#DejaVuSans-101"/>
      <use x="1357.105469" xlink:href="#DejaVuSans-114"/>
      <use x="1398.21875" xlink:href="#DejaVuSans-32"/>
      <use x="1430.005859" xlink:href="#DejaVuSans-78"/>
      <use x="1504.810547" xlink:href="#DejaVuSans-117"/>
      <use x="1568.189453" xlink:href="#DejaVuSans-109"/>
      <use x="1665.601562" xlink:href="#DejaVuSans-98"/>
      <use x="1729.078125" xlink:href="#DejaVuSans-101"/>
      <use x="1790.601562" xlink:href="#DejaVuSans-114"/>
      <use x="1831.714844" xlink:href="#DejaVuSans-32"/>
      <use x="1863.501953" xlink:href="#DejaVuSans-111"/>
      <use x="1924.683594" xlink:href="#DejaVuSans-102"/>
      <use x="1959.888672" xlink:href="#DejaVuSans-32"/>
      <use x="1991.675781" xlink:href="#DejaVuSans-70"/>
      <use x="2049.054688" xlink:href="#DejaVuSans-97"/>
      <use x="2110.333984" xlink:href="#DejaVuSans-109"/>
      <use x="2207.746094" xlink:href="#DejaVuSans-105"/>
      <use x="2235.529297" xlink:href="#DejaVuSans-108"/>
      <use x="2263.3125" xlink:href="#DejaVuSans-105"/>
      <use x="2291.095703" xlink:href="#DejaVuSans-101"/>
      <use x="2352.619141" xlink:href="#DejaVuSans-115"/>
     </g>
    </g>
   </g>
   <g id="patch_20">
    <path d="M 509.87358 348.478125 
L 509.87358 22.318125 
" style="fill:none;stroke:#000000;stroke-linecap:square;stroke-linejoin:miter;stroke-width:0.8;"/>
   </g>
   <g id="patch_21">
    <path d="M 890.328125 348.478125 
L 890.328125 22.318125 
" style="fill:none;stroke:#000000;stroke-linecap:square;stroke-linejoin:miter;stroke-width:0.8;"/>
   </g>
   <g id="patch_22">
    <path d="M 509.87358 348.478125 
L 890.328125 348.478125 
" style="fill:none;stroke:#000000;stroke-linecap:square;stroke-linejoin:miter;stroke-width:0.8;"/>
   </g>
   <g id="patch_23">
    <path d="M 509.87358 22.318125 
L 890.328125 22.318125 
" style="fill:none;stroke:#000000;stroke-linecap:square;stroke-linejoin:miter;stroke-width:0.8;"/>
   </g>
   <g id="text_30">
    <!-- Transactions for Seafood Products per Number of Families in every category -->
    <defs>
     <path d="M 2.984375 54.6875 
L 12.5 54.6875 
L 29.59375 8.796875 
L 46.6875 54.6875 
L 56.203125 54.6875 
L 35.6875 0 
L 23.484375 0 
z
" id="DejaVuSans-118"/>
    </defs>
    <g transform="translate(470.30554 16.318125)scale(0.12 -0.12)">
     <use xlink:href="#DejaVuSans-84"/>
     <use x="60.865234" xlink:href="#DejaVuSans-114"/>
     <use x="101.978516" xlink:href="#DejaVuSans-97"/>
     <use x="163.257812" xlink:href="#DejaVuSans-110"/>
     <use x="226.636719" xlink:href="#DejaVuSans-115"/>
     <use x="278.736328" xlink:href="#DejaVuSans-97"/>
     <use x="340.015625" xlink:href="#DejaVuSans-99"/>
     <use x="394.996094" xlink:href="#DejaVuSans-116"/>
     <use x="434.205078" xlink:href="#DejaVuSans-105"/>
     <use x="461.988281" xlink:href="#DejaVuSans-111"/>
     <use x="523.169922" xlink:href="#DejaVuSans-110"/>
     <use x="586.548828" xlink:href="#DejaVuSans-115"/>
     <use x="638.648438" xlink:href="#DejaVuSans-32"/>
     <use x="670.435547" xlink:href="#DejaVuSans-102"/>
     <use x="705.640625" xlink:href="#DejaVuSans-111"/>
     <use x="766.822266" xlink:href="#DejaVuSans-114"/>
     <use x="807.935547" xlink:href="#DejaVuSans-32"/>
     <use x="839.722656" xlink:href="#DejaVuSans-83"/>
     <use x="903.199219" xlink:href="#DejaVuSans-101"/>
     <use x="964.722656" xlink:href="#DejaVuSans-97"/>
     <use x="1026.001953" xlink:href="#DejaVuSans-102"/>
     <use x="1061.207031" xlink:href="#DejaVuSans-111"/>
     <use x="1122.388672" xlink:href="#DejaVuSans-111"/>
     <use x="1183.570312" xlink:href="#DejaVuSans-100"/>
     <use x="1247.046875" xlink:href="#DejaVuSans-32"/>
     <use x="1278.833984" xlink:href="#DejaVuSans-80"/>
     <use x="1339.121094" xlink:href="#DejaVuSans-114"/>
     <use x="1380.203125" xlink:href="#DejaVuSans-111"/>
     <use x="1441.384766" xlink:href="#DejaVuSans-100"/>
     <use x="1504.861328" xlink:href="#DejaVuSans-117"/>
     <use x="1568.240234" xlink:href="#DejaVuSans-99"/>
     <use x="1623.220703" xlink:href="#DejaVuSans-116"/>
     <use x="1662.429688" xlink:href="#DejaVuSans-115"/>
     <use x="1714.529297" xlink:href="#DejaVuSans-32"/>
     <use x="1746.316406" xlink:href="#DejaVuSans-112"/>
     <use x="1809.792969" xlink:href="#DejaVuSans-101"/>
     <use x="1871.316406" xlink:href="#DejaVuSans-114"/>
     <use x="1912.429688" xlink:href="#DejaVuSans-32"/>
     <use x="1944.216797" xlink:href="#DejaVuSans-78"/>
     <use x="2019.021484" xlink:href="#DejaVuSans-117"/>
     <use x="2082.400391" xlink:href="#DejaVuSans-109"/>
     <use x="2179.8125" xlink:href="#DejaVuSans-98"/>
     <use x="2243.289062" xlink:href="#DejaVuSans-101"/>
     <use x="2304.8125" xlink:href="#DejaVuSans-114"/>
     <use x="2345.925781" xlink:href="#DejaVuSans-32"/>
     <use x="2377.712891" xlink:href="#DejaVuSans-111"/>
     <use x="2438.894531" xlink:href="#DejaVuSans-102"/>
     <use x="2474.099609" xlink:href="#DejaVuSans-32"/>
     <use x="2505.886719" xlink:href="#DejaVuSans-70"/>
     <use x="2563.265625" xlink:href="#DejaVuSans-97"/>
     <use x="2624.544922" xlink:href="#DejaVuSans-109"/>
     <use x="2721.957031" xlink:href="#DejaVuSans-105"/>
     <use x="2749.740234" xlink:href="#DejaVuSans-108"/>
     <use x="2777.523438" xlink:href="#DejaVuSans-105"/>
     <use x="2805.306641" xlink:href="#DejaVuSans-101"/>
     <use x="2866.830078" xlink:href="#DejaVuSans-115"/>
     <use x="2918.929688" xlink:href="#DejaVuSans-32"/>
     <use x="2950.716797" xlink:href="#DejaVuSans-105"/>
     <use x="2978.5" xlink:href="#DejaVuSans-110"/>
     <use x="3041.878906" xlink:href="#DejaVuSans-32"/>
     <use x="3073.666016" xlink:href="#DejaVuSans-101"/>
     <use x="3135.189453" xlink:href="#DejaVuSans-118"/>
     <use x="3194.369141" xlink:href="#DejaVuSans-101"/>
     <use x="3255.892578" xlink:href="#DejaVuSans-114"/>
     <use x="3297.005859" xlink:href="#DejaVuSans-121"/>
     <use x="3356.185547" xlink:href="#DejaVuSans-32"/>
     <use x="3387.972656" xlink:href="#DejaVuSans-99"/>
     <use x="3442.953125" xlink:href="#DejaVuSans-97"/>
     <use x="3504.232422" xlink:href="#DejaVuSans-116"/>
     <use x="3543.441406" xlink:href="#DejaVuSans-101"/>
     <use x="3604.964844" xlink:href="#DejaVuSans-103"/>
     <use x="3668.441406" xlink:href="#DejaVuSans-111"/>
     <use x="3729.623047" xlink:href="#DejaVuSans-114"/>
     <use x="3770.736328" xlink:href="#DejaVuSans-121"/>
    </g>
   </g>
  </g>
 </g>
 <defs>
  <clipPath id="p3164ab736c">
   <rect height="326.16" width="380.454545" x="53.328125" y="22.318125"/>
  </clipPath>
  <clipPath id="p9ae45e21f7">
   <rect height="326.16" width="380.454545" x="509.87358" y="22.318125"/>
  </clipPath>
 </defs>
</svg>
