<?xml version="1.0" encoding="utf-8" standalone="no"?>
<!DOCTYPE svg PUBLIC "-//W3C//DTD SVG 1.1//EN"
  "http://www.w3.org/Graphics/SVG/1.1/DTD/svg11.dtd">
<!-- Created with matplotlib (https://matplotlib.org/) -->
<svg height="364.095625pt" version="1.1" viewBox="0 0 408.707188 364.095625" width="408.707188pt" xmlns="http://www.w3.org/2000/svg" xmlns:xlink="http://www.w3.org/1999/xlink">
 <defs>
  <style type="text/css">
*{stroke-linecap:butt;stroke-linejoin:round;}
  </style>
 </defs>
 <g id="figure_1">
  <g id="patch_1">
   <path d="M 0 364.095625 
L 408.707188 364.095625 
L 408.707188 0 
L 0 0 
z
" style="fill:none;"/>
  </g>
  <g id="axes_1">
   <g id="patch_2">
    <path d="M 66.053125 239.758125 
L 400.853125 239.758125 
L 400.853125 22.318125 
L 66.053125 22.318125 
z
" style="fill:#ffffff;"/>
   </g>
   <g id="patch_3">
    <path clip-path="url(#pd5c7b69c2d)" d="M 68.145625 239.758125 
L 72.330625 239.758125 
L 72.330625 32.672411 
L 68.145625 32.672411 
z
" style="fill:#1f77b4;"/>
   </g>
   <g id="patch_4">
    <path clip-path="url(#pd5c7b69c2d)" d="M 76.515625 239.758125 
L 80.700625 239.758125 
L 80.700625 204.538119 
L 76.515625 204.538119 
z
" style="fill:#1f77b4;"/>
   </g>
   <g id="patch_5">
    <path clip-path="url(#pd5c7b69c2d)" d="M 84.885625 239.758125 
L 89.070625 239.758125 
L 89.070625 204.825736 
L 84.885625 204.825736 
z
" style="fill:#1f77b4;"/>
   </g>
   <g id="patch_6">
    <path clip-path="url(#pd5c7b69c2d)" d="M 93.255625 239.758125 
L 97.440625 239.758125 
L 97.440625 226.546003 
L 93.255625 226.546003 
z
" style="fill:#1f77b4;"/>
   </g>
   <g id="patch_7">
    <path clip-path="url(#pd5c7b69c2d)" d="M 101.625625 239.758125 
L 105.810625 239.758125 
L 105.810625 228.947199 
L 101.625625 228.947199 
z
" style="fill:#1f77b4;"/>
   </g>
   <g id="patch_8">
    <path clip-path="url(#pd5c7b69c2d)" d="M 109.995625 239.758125 
L 114.180625 239.758125 
L 114.180625 231.561162 
L 109.995625 231.561162 
z
" style="fill:#1f77b4;"/>
   </g>
   <g id="patch_9">
    <path clip-path="url(#pd5c7b69c2d)" d="M 118.365625 239.758125 
L 122.550625 239.758125 
L 122.550625 234.794021 
L 118.365625 234.794021 
z
" style="fill:#1f77b4;"/>
   </g>
   <g id="patch_10">
    <path clip-path="url(#pd5c7b69c2d)" d="M 126.735625 239.758125 
L 130.920625 239.758125 
L 130.920625 235.284702 
L 126.735625 235.284702 
z
" style="fill:#1f77b4;"/>
   </g>
   <g id="patch_11">
    <path clip-path="url(#pd5c7b69c2d)" d="M 135.105625 239.758125 
L 139.290625 239.758125 
L 139.290625 236.742653 
L 135.105625 236.742653 
z
" style="fill:#1f77b4;"/>
   </g>
   <g id="patch_12">
    <path clip-path="url(#pd5c7b69c2d)" d="M 143.475625 239.758125 
L 147.660625 239.758125 
L 147.660625 238.4039 
L 143.475625 238.4039 
z
" style="fill:#1f77b4;"/>
   </g>
   <g id="patch_13">
    <path clip-path="url(#pd5c7b69c2d)" d="M 151.845625 239.758125 
L 156.030625 239.758125 
L 156.030625 238.519409 
L 151.845625 238.519409 
z
" style="fill:#1f77b4;"/>
   </g>
   <g id="patch_14">
    <path clip-path="url(#pd5c7b69c2d)" d="M 160.215625 239.758125 
L 164.400625 239.758125 
L 164.400625 238.712078 
L 160.215625 238.712078 
z
" style="fill:#1f77b4;"/>
   </g>
   <g id="patch_15">
    <path clip-path="url(#pd5c7b69c2d)" d="M 168.585625 239.758125 
L 172.770625 239.758125 
L 172.770625 238.954646 
L 168.585625 238.954646 
z
" style="fill:#1f77b4;"/>
   </g>
   <g id="patch_16">
    <path clip-path="url(#pd5c7b69c2d)" d="M 176.955625 239.758125 
L 181.140625 239.758125 
L 181.140625 239.179657 
L 176.955625 239.179657 
z
" style="fill:#1f77b4;"/>
   </g>
   <g id="patch_17">
    <path clip-path="url(#pd5c7b69c2d)" d="M 185.325625 239.758125 
L 189.510625 239.758125 
L 189.510625 239.197214 
L 185.325625 239.197214 
z
" style="fill:#1f77b4;"/>
   </g>
   <g id="patch_18">
    <path clip-path="url(#pd5c7b69c2d)" d="M 193.695625 239.758125 
L 197.880625 239.758125 
L 197.880625 239.482983 
L 193.695625 239.482983 
z
" style="fill:#1f77b4;"/>
   </g>
   <g id="patch_19">
    <path clip-path="url(#pd5c7b69c2d)" d="M 202.065625 239.758125 
L 206.250625 239.758125 
L 206.250625 239.517174 
L 202.065625 239.517174 
z
" style="fill:#1f77b4;"/>
   </g>
   <g id="patch_20">
    <path clip-path="url(#pd5c7b69c2d)" d="M 210.435625 239.758125 
L 214.620625 239.758125 
L 214.620625 239.642385 
L 210.435625 239.642385 
z
" style="fill:#1f77b4;"/>
   </g>
   <g id="patch_21">
    <path clip-path="url(#pd5c7b69c2d)" d="M 218.805625 239.758125 
L 222.990625 239.758125 
L 222.990625 239.648392 
L 218.805625 239.648392 
z
" style="fill:#1f77b4;"/>
   </g>
   <g id="patch_22">
    <path clip-path="url(#pd5c7b69c2d)" d="M 227.175625 239.758125 
L 231.360625 239.758125 
L 231.360625 239.655322 
L 227.175625 239.655322 
z
" style="fill:#1f77b4;"/>
   </g>
   <g id="patch_23">
    <path clip-path="url(#pd5c7b69c2d)" d="M 235.545625 239.758125 
L 239.730625 239.758125 
L 239.730625 239.661329 
L 235.545625 239.661329 
z
" style="fill:#1f77b4;"/>
   </g>
   <g id="patch_24">
    <path clip-path="url(#pd5c7b69c2d)" d="M 243.915625 239.758125 
L 248.100625 239.758125 
L 248.100625 239.68651 
L 243.915625 239.68651 
z
" style="fill:#1f77b4;"/>
   </g>
   <g id="patch_25">
    <path clip-path="url(#pd5c7b69c2d)" d="M 252.285625 239.758125 
L 256.470625 239.758125 
L 256.470625 239.724627 
L 252.285625 239.724627 
z
" style="fill:#1f77b4;"/>
   </g>
   <g id="patch_26">
    <path clip-path="url(#pd5c7b69c2d)" d="M 260.655625 239.758125 
L 264.840625 239.758125 
L 264.840625 239.75027 
L 260.655625 239.75027 
z
" style="fill:#1f77b4;"/>
   </g>
   <g id="patch_27">
    <path clip-path="url(#pd5c7b69c2d)" d="M 269.025625 239.758125 
L 273.210625 239.758125 
L 273.210625 239.751194 
L 269.025625 239.751194 
z
" style="fill:#1f77b4;"/>
   </g>
   <g id="patch_28">
    <path clip-path="url(#pd5c7b69c2d)" d="M 277.395625 239.758125 
L 281.580625 239.758125 
L 281.580625 239.751425 
L 277.395625 239.751425 
z
" style="fill:#1f77b4;"/>
   </g>
   <g id="patch_29">
    <path clip-path="url(#pd5c7b69c2d)" d="M 285.765625 239.758125 
L 289.950625 239.758125 
L 289.950625 239.754429 
L 285.765625 239.754429 
z
" style="fill:#1f77b4;"/>
   </g>
   <g id="patch_30">
    <path clip-path="url(#pd5c7b69c2d)" d="M 294.135625 239.758125 
L 298.320625 239.758125 
L 298.320625 239.755584 
L 294.135625 239.755584 
z
" style="fill:#1f77b4;"/>
   </g>
   <g id="patch_31">
    <path clip-path="url(#pd5c7b69c2d)" d="M 302.505625 239.758125 
L 306.690625 239.758125 
L 306.690625 239.755584 
L 302.505625 239.755584 
z
" style="fill:#1f77b4;"/>
   </g>
   <g id="patch_32">
    <path clip-path="url(#pd5c7b69c2d)" d="M 310.875625 239.758125 
L 315.060625 239.758125 
L 315.060625 239.756508 
L 310.875625 239.756508 
z
" style="fill:#1f77b4;"/>
   </g>
   <g id="patch_33">
    <path clip-path="url(#pd5c7b69c2d)" d="M 319.245625 239.758125 
L 323.430625 239.758125 
L 323.430625 239.756739 
L 319.245625 239.756739 
z
" style="fill:#1f77b4;"/>
   </g>
   <g id="patch_34">
    <path clip-path="url(#pd5c7b69c2d)" d="M 327.615625 239.758125 
L 331.800625 239.758125 
L 331.800625 239.75697 
L 327.615625 239.75697 
z
" style="fill:#1f77b4;"/>
   </g>
   <g id="patch_35">
    <path clip-path="url(#pd5c7b69c2d)" d="M 335.985625 239.758125 
L 340.170625 239.758125 
L 340.170625 239.75697 
L 335.985625 239.75697 
z
" style="fill:#1f77b4;"/>
   </g>
   <g id="patch_36">
    <path clip-path="url(#pd5c7b69c2d)" d="M 344.355625 239.758125 
L 348.540625 239.758125 
L 348.540625 239.757201 
L 344.355625 239.757201 
z
" style="fill:#1f77b4;"/>
   </g>
   <g id="patch_37">
    <path clip-path="url(#pd5c7b69c2d)" d="M 352.725625 239.758125 
L 356.910625 239.758125 
L 356.910625 239.757663 
L 352.725625 239.757663 
z
" style="fill:#1f77b4;"/>
   </g>
   <g id="patch_38">
    <path clip-path="url(#pd5c7b69c2d)" d="M 361.095625 239.758125 
L 365.280625 239.758125 
L 365.280625 239.757663 
L 361.095625 239.757663 
z
" style="fill:#1f77b4;"/>
   </g>
   <g id="patch_39">
    <path clip-path="url(#pd5c7b69c2d)" d="M 369.465625 239.758125 
L 373.650625 239.758125 
L 373.650625 239.757894 
L 369.465625 239.757894 
z
" style="fill:#1f77b4;"/>
   </g>
   <g id="patch_40">
    <path clip-path="url(#pd5c7b69c2d)" d="M 377.835625 239.758125 
L 382.020625 239.758125 
L 382.020625 239.757894 
L 377.835625 239.757894 
z
" style="fill:#1f77b4;"/>
   </g>
   <g id="patch_41">
    <path clip-path="url(#pd5c7b69c2d)" d="M 386.205625 239.758125 
L 390.390625 239.758125 
L 390.390625 239.757894 
L 386.205625 239.757894 
z
" style="fill:#1f77b4;"/>
   </g>
   <g id="patch_42">
    <path clip-path="url(#pd5c7b69c2d)" d="M 394.575625 239.758125 
L 398.760625 239.758125 
L 398.760625 239.757894 
L 394.575625 239.757894 
z
" style="fill:#1f77b4;"/>
   </g>
   <g id="matplotlib.axis_1">
    <g id="xtick_1">
     <g id="line2d_1">
      <defs>
       <path d="M 0 0 
L 0 3.5 
" id="mb1b1f1bf1a" style="stroke:#000000;stroke-width:0.8;"/>
      </defs>
      <g>
       <use style="stroke:#000000;stroke-width:0.8;" x="70.238125" xlink:href="#mb1b1f1bf1a" y="239.758125"/>
      </g>
     </g>
     <g id="text_1">
      <!-- GROCERY -->
      <defs>
       <path d="M 59.515625 10.40625 
L 59.515625 29.984375 
L 43.40625 29.984375 
L 43.40625 38.09375 
L 69.28125 38.09375 
L 69.28125 6.78125 
Q 63.578125 2.734375 56.6875 0.65625 
Q 49.8125 -1.421875 42 -1.421875 
Q 24.90625 -1.421875 15.25 8.5625 
Q 5.609375 18.5625 5.609375 36.375 
Q 5.609375 54.25 15.25 64.234375 
Q 24.90625 74.21875 42 74.21875 
Q 49.125 74.21875 55.546875 72.453125 
Q 61.96875 70.703125 67.390625 67.28125 
L 67.390625 56.78125 
Q 61.921875 61.421875 55.765625 63.765625 
Q 49.609375 66.109375 42.828125 66.109375 
Q 29.4375 66.109375 22.71875 58.640625 
Q 16.015625 51.171875 16.015625 36.375 
Q 16.015625 21.625 22.71875 14.15625 
Q 29.4375 6.6875 42.828125 6.6875 
Q 48.046875 6.6875 52.140625 7.59375 
Q 56.25 8.5 59.515625 10.40625 
z
" id="DejaVuSans-71"/>
       <path d="M 44.390625 34.1875 
Q 47.5625 33.109375 50.5625 29.59375 
Q 53.5625 26.078125 56.59375 19.921875 
L 66.609375 0 
L 56 0 
L 46.6875 18.703125 
Q 43.0625 26.03125 39.671875 28.421875 
Q 36.28125 30.8125 30.421875 30.8125 
L 19.671875 30.8125 
L 19.671875 0 
L 9.8125 0 
L 9.8125 72.90625 
L 32.078125 72.90625 
Q 44.578125 72.90625 50.734375 67.671875 
Q 56.890625 62.453125 56.890625 51.90625 
Q 56.890625 45.015625 53.6875 40.46875 
Q 50.484375 35.9375 44.390625 34.1875 
z
M 19.671875 64.796875 
L 19.671875 38.921875 
L 32.078125 38.921875 
Q 39.203125 38.921875 42.84375 42.21875 
Q 46.484375 45.515625 46.484375 51.90625 
Q 46.484375 58.296875 42.84375 61.546875 
Q 39.203125 64.796875 32.078125 64.796875 
z
" id="DejaVuSans-82"/>
       <path d="M 39.40625 66.21875 
Q 28.65625 66.21875 22.328125 58.203125 
Q 16.015625 50.203125 16.015625 36.375 
Q 16.015625 22.609375 22.328125 14.59375 
Q 28.65625 6.59375 39.40625 6.59375 
Q 50.140625 6.59375 56.421875 14.59375 
Q 62.703125 22.609375 62.703125 36.375 
Q 62.703125 50.203125 56.421875 58.203125 
Q 50.140625 66.21875 39.40625 66.21875 
z
M 39.40625 74.21875 
Q 54.734375 74.21875 63.90625 63.9375 
Q 73.09375 53.65625 73.09375 36.375 
Q 73.09375 19.140625 63.90625 8.859375 
Q 54.734375 -1.421875 39.40625 -1.421875 
Q 24.03125 -1.421875 14.8125 8.828125 
Q 5.609375 19.09375 5.609375 36.375 
Q 5.609375 53.65625 14.8125 63.9375 
Q 24.03125 74.21875 39.40625 74.21875 
z
" id="DejaVuSans-79"/>
       <path d="M 64.40625 67.28125 
L 64.40625 56.890625 
Q 59.421875 61.53125 53.78125 63.8125 
Q 48.140625 66.109375 41.796875 66.109375 
Q 29.296875 66.109375 22.65625 58.46875 
Q 16.015625 50.828125 16.015625 36.375 
Q 16.015625 21.96875 22.65625 14.328125 
Q 29.296875 6.6875 41.796875 6.6875 
Q 48.140625 6.6875 53.78125 8.984375 
Q 59.421875 11.28125 64.40625 15.921875 
L 64.40625 5.609375 
Q 59.234375 2.09375 53.4375 0.328125 
Q 47.65625 -1.421875 41.21875 -1.421875 
Q 24.65625 -1.421875 15.125 8.703125 
Q 5.609375 18.84375 5.609375 36.375 
Q 5.609375 53.953125 15.125 64.078125 
Q 24.65625 74.21875 41.21875 74.21875 
Q 47.75 74.21875 53.53125 72.484375 
Q 59.328125 70.75 64.40625 67.28125 
z
" id="DejaVuSans-67"/>
       <path d="M 9.8125 72.90625 
L 55.90625 72.90625 
L 55.90625 64.59375 
L 19.671875 64.59375 
L 19.671875 43.015625 
L 54.390625 43.015625 
L 54.390625 34.71875 
L 19.671875 34.71875 
L 19.671875 8.296875 
L 56.78125 8.296875 
L 56.78125 0 
L 9.8125 0 
z
" id="DejaVuSans-69"/>
       <path d="M -0.203125 72.90625 
L 10.40625 72.90625 
L 30.609375 42.921875 
L 50.6875 72.90625 
L 61.28125 72.90625 
L 35.5 34.71875 
L 35.5 0 
L 25.59375 0 
L 25.59375 34.71875 
z
" id="DejaVuSans-89"/>
      </defs>
      <g transform="translate(72.9975 295.675313)rotate(-90)scale(0.1 -0.1)">
       <use xlink:href="#DejaVuSans-71"/>
       <use x="77.490234" xlink:href="#DejaVuSans-82"/>
       <use x="146.972656" xlink:href="#DejaVuSans-79"/>
       <use x="225.683594" xlink:href="#DejaVuSans-67"/>
       <use x="295.507812" xlink:href="#DejaVuSans-69"/>
       <use x="358.691406" xlink:href="#DejaVuSans-82"/>
       <use x="428.080078" xlink:href="#DejaVuSans-89"/>
      </g>
     </g>
    </g>
    <g id="xtick_2">
     <g id="line2d_2">
      <g>
       <use style="stroke:#000000;stroke-width:0.8;" x="78.608125" xlink:href="#mb1b1f1bf1a" y="239.758125"/>
      </g>
     </g>
     <g id="text_2">
      <!-- DRUG GM -->
      <defs>
       <path d="M 19.671875 64.796875 
L 19.671875 8.109375 
L 31.59375 8.109375 
Q 46.6875 8.109375 53.6875 14.9375 
Q 60.6875 21.78125 60.6875 36.53125 
Q 60.6875 51.171875 53.6875 57.984375 
Q 46.6875 64.796875 31.59375 64.796875 
z
M 9.8125 72.90625 
L 30.078125 72.90625 
Q 51.265625 72.90625 61.171875 64.09375 
Q 71.09375 55.28125 71.09375 36.53125 
Q 71.09375 17.671875 61.125 8.828125 
Q 51.171875 0 30.078125 0 
L 9.8125 0 
z
" id="DejaVuSans-68"/>
       <path d="M 8.6875 72.90625 
L 18.609375 72.90625 
L 18.609375 28.609375 
Q 18.609375 16.890625 22.84375 11.734375 
Q 27.09375 6.59375 36.625 6.59375 
Q 46.09375 6.59375 50.34375 11.734375 
Q 54.59375 16.890625 54.59375 28.609375 
L 54.59375 72.90625 
L 64.5 72.90625 
L 64.5 27.390625 
Q 64.5 13.140625 57.4375 5.859375 
Q 50.390625 -1.421875 36.625 -1.421875 
Q 22.796875 -1.421875 15.734375 5.859375 
Q 8.6875 13.140625 8.6875 27.390625 
z
" id="DejaVuSans-85"/>
       <path id="DejaVuSans-32"/>
       <path d="M 9.8125 72.90625 
L 24.515625 72.90625 
L 43.109375 23.296875 
L 61.8125 72.90625 
L 76.515625 72.90625 
L 76.515625 0 
L 66.890625 0 
L 66.890625 64.015625 
L 48.09375 14.015625 
L 38.1875 14.015625 
L 19.390625 64.015625 
L 19.390625 0 
L 9.8125 0 
z
" id="DejaVuSans-77"/>
      </defs>
      <g transform="translate(81.3675 296.028437)rotate(-90)scale(0.1 -0.1)">
       <use xlink:href="#DejaVuSans-68"/>
       <use x="77.001953" xlink:href="#DejaVuSans-82"/>
       <use x="146.484375" xlink:href="#DejaVuSans-85"/>
       <use x="219.677734" xlink:href="#DejaVuSans-71"/>
       <use x="297.167969" xlink:href="#DejaVuSans-32"/>
       <use x="328.955078" xlink:href="#DejaVuSans-71"/>
       <use x="406.445312" xlink:href="#DejaVuSans-77"/>
      </g>
     </g>
    </g>
    <g id="xtick_3">
     <g id="line2d_3">
      <g>
       <use style="stroke:#000000;stroke-width:0.8;" x="86.978125" xlink:href="#mb1b1f1bf1a" y="239.758125"/>
      </g>
     </g>
     <g id="text_3">
      <!-- PRODUCE -->
      <defs>
       <path d="M 19.671875 64.796875 
L 19.671875 37.40625 
L 32.078125 37.40625 
Q 38.96875 37.40625 42.71875 40.96875 
Q 46.484375 44.53125 46.484375 51.125 
Q 46.484375 57.671875 42.71875 61.234375 
Q 38.96875 64.796875 32.078125 64.796875 
z
M 9.8125 72.90625 
L 32.078125 72.90625 
Q 44.34375 72.90625 50.609375 67.359375 
Q 56.890625 61.8125 56.890625 51.125 
Q 56.890625 40.328125 50.609375 34.8125 
Q 44.34375 29.296875 32.078125 29.296875 
L 19.671875 29.296875 
L 19.671875 0 
L 9.8125 0 
z
" id="DejaVuSans-80"/>
      </defs>
      <g transform="translate(89.7375 295.928438)rotate(-90)scale(0.1 -0.1)">
       <use xlink:href="#DejaVuSans-80"/>
       <use x="60.302734" xlink:href="#DejaVuSans-82"/>
       <use x="129.785156" xlink:href="#DejaVuSans-79"/>
       <use x="208.496094" xlink:href="#DejaVuSans-68"/>
       <use x="285.498047" xlink:href="#DejaVuSans-85"/>
       <use x="358.691406" xlink:href="#DejaVuSans-67"/>
       <use x="428.515625" xlink:href="#DejaVuSans-69"/>
      </g>
     </g>
    </g>
    <g id="xtick_4">
     <g id="line2d_4">
      <g>
       <use style="stroke:#000000;stroke-width:0.8;" x="95.348125" xlink:href="#mb1b1f1bf1a" y="239.758125"/>
      </g>
     </g>
     <g id="text_4">
      <!-- MEAT-PCKGD -->
      <defs>
       <path d="M 34.1875 63.1875 
L 20.796875 26.90625 
L 47.609375 26.90625 
z
M 28.609375 72.90625 
L 39.796875 72.90625 
L 67.578125 0 
L 57.328125 0 
L 50.6875 18.703125 
L 17.828125 18.703125 
L 11.1875 0 
L 0.78125 0 
z
" id="DejaVuSans-65"/>
       <path d="M -0.296875 72.90625 
L 61.375 72.90625 
L 61.375 64.59375 
L 35.5 64.59375 
L 35.5 0 
L 25.59375 0 
L 25.59375 64.59375 
L -0.296875 64.59375 
z
" id="DejaVuSans-84"/>
       <path d="M 4.890625 31.390625 
L 31.203125 31.390625 
L 31.203125 23.390625 
L 4.890625 23.390625 
z
" id="DejaVuSans-45"/>
       <path d="M 9.8125 72.90625 
L 19.671875 72.90625 
L 19.671875 42.09375 
L 52.390625 72.90625 
L 65.09375 72.90625 
L 28.90625 38.921875 
L 67.671875 0 
L 54.6875 0 
L 19.671875 35.109375 
L 19.671875 0 
L 9.8125 0 
z
" id="DejaVuSans-75"/>
      </defs>
      <g transform="translate(98.1075 313.255)rotate(-90)scale(0.1 -0.1)">
       <use xlink:href="#DejaVuSans-77"/>
       <use x="86.279297" xlink:href="#DejaVuSans-69"/>
       <use x="149.462891" xlink:href="#DejaVuSans-65"/>
       <use x="217.761719" xlink:href="#DejaVuSans-84"/>
       <use x="278.705078" xlink:href="#DejaVuSans-45"/>
       <use x="314.789062" xlink:href="#DejaVuSans-80"/>
       <use x="375.091797" xlink:href="#DejaVuSans-67"/>
       <use x="444.916016" xlink:href="#DejaVuSans-75"/>
       <use x="510.492188" xlink:href="#DejaVuSans-71"/>
       <use x="587.982422" xlink:href="#DejaVuSans-68"/>
      </g>
     </g>
    </g>
    <g id="xtick_5">
     <g id="line2d_5">
      <g>
       <use style="stroke:#000000;stroke-width:0.8;" x="103.718125" xlink:href="#mb1b1f1bf1a" y="239.758125"/>
      </g>
     </g>
     <g id="text_5">
      <!-- MEAT -->
      <g transform="translate(106.4775 274.6425)rotate(-90)scale(0.1 -0.1)">
       <use xlink:href="#DejaVuSans-77"/>
       <use x="86.279297" xlink:href="#DejaVuSans-69"/>
       <use x="149.462891" xlink:href="#DejaVuSans-65"/>
       <use x="217.761719" xlink:href="#DejaVuSans-84"/>
      </g>
     </g>
    </g>
    <g id="xtick_6">
     <g id="line2d_6">
      <g>
       <use style="stroke:#000000;stroke-width:0.8;" x="112.088125" xlink:href="#mb1b1f1bf1a" y="239.758125"/>
      </g>
     </g>
     <g id="text_6">
      <!-- DELI -->
      <defs>
       <path d="M 9.8125 72.90625 
L 19.671875 72.90625 
L 19.671875 8.296875 
L 55.171875 8.296875 
L 55.171875 0 
L 9.8125 0 
z
" id="DejaVuSans-76"/>
       <path d="M 9.8125 72.90625 
L 19.671875 72.90625 
L 19.671875 0 
L 9.8125 0 
z
" id="DejaVuSans-73"/>
      </defs>
      <g transform="translate(114.8475 269.29875)rotate(-90)scale(0.1 -0.1)">
       <use xlink:href="#DejaVuSans-68"/>
       <use x="77.001953" xlink:href="#DejaVuSans-69"/>
       <use x="140.185547" xlink:href="#DejaVuSans-76"/>
       <use x="195.898438" xlink:href="#DejaVuSans-73"/>
      </g>
     </g>
    </g>
    <g id="xtick_7">
     <g id="line2d_7">
      <g>
       <use style="stroke:#000000;stroke-width:0.8;" x="120.458125" xlink:href="#mb1b1f1bf1a" y="239.758125"/>
      </g>
     </g>
     <g id="text_7">
      <!-- PASTRY -->
      <defs>
       <path d="M 53.515625 70.515625 
L 53.515625 60.890625 
Q 47.90625 63.578125 42.921875 64.890625 
Q 37.9375 66.21875 33.296875 66.21875 
Q 25.25 66.21875 20.875 63.09375 
Q 16.5 59.96875 16.5 54.203125 
Q 16.5 49.359375 19.40625 46.890625 
Q 22.3125 44.4375 30.421875 42.921875 
L 36.375 41.703125 
Q 47.40625 39.59375 52.65625 34.296875 
Q 57.90625 29 57.90625 20.125 
Q 57.90625 9.515625 50.796875 4.046875 
Q 43.703125 -1.421875 29.984375 -1.421875 
Q 24.8125 -1.421875 18.96875 -0.25 
Q 13.140625 0.921875 6.890625 3.21875 
L 6.890625 13.375 
Q 12.890625 10.015625 18.65625 8.296875 
Q 24.421875 6.59375 29.984375 6.59375 
Q 38.421875 6.59375 43.015625 9.90625 
Q 47.609375 13.234375 47.609375 19.390625 
Q 47.609375 24.75 44.3125 27.78125 
Q 41.015625 30.8125 33.5 32.328125 
L 27.484375 33.5 
Q 16.453125 35.6875 11.515625 40.375 
Q 6.59375 45.0625 6.59375 53.421875 
Q 6.59375 63.09375 13.40625 68.65625 
Q 20.21875 74.21875 32.171875 74.21875 
Q 37.3125 74.21875 42.625 73.28125 
Q 47.953125 72.359375 53.515625 70.515625 
z
" id="DejaVuSans-83"/>
      </defs>
      <g transform="translate(123.2175 285.122187)rotate(-90)scale(0.1 -0.1)">
       <use xlink:href="#DejaVuSans-80"/>
       <use x="60.208984" xlink:href="#DejaVuSans-65"/>
       <use x="128.617188" xlink:href="#DejaVuSans-83"/>
       <use x="192.09375" xlink:href="#DejaVuSans-84"/>
       <use x="253.177734" xlink:href="#DejaVuSans-82"/>
       <use x="322.566406" xlink:href="#DejaVuSans-89"/>
      </g>
     </g>
    </g>
    <g id="xtick_8">
     <g id="line2d_8">
      <g>
       <use style="stroke:#000000;stroke-width:0.8;" x="128.828125" xlink:href="#mb1b1f1bf1a" y="239.758125"/>
      </g>
     </g>
     <g id="text_8">
      <!-- NUTRITION -->
      <defs>
       <path d="M 9.8125 72.90625 
L 23.09375 72.90625 
L 55.421875 11.921875 
L 55.421875 72.90625 
L 64.984375 72.90625 
L 64.984375 0 
L 51.703125 0 
L 19.390625 60.984375 
L 19.390625 0 
L 9.8125 0 
z
" id="DejaVuSans-78"/>
      </defs>
      <g transform="translate(131.5875 301.975313)rotate(-90)scale(0.1 -0.1)">
       <use xlink:href="#DejaVuSans-78"/>
       <use x="74.804688" xlink:href="#DejaVuSans-85"/>
       <use x="147.998047" xlink:href="#DejaVuSans-84"/>
       <use x="209.082031" xlink:href="#DejaVuSans-82"/>
       <use x="278.564453" xlink:href="#DejaVuSans-73"/>
       <use x="308.056641" xlink:href="#DejaVuSans-84"/>
       <use x="369.140625" xlink:href="#DejaVuSans-73"/>
       <use x="398.632812" xlink:href="#DejaVuSans-79"/>
       <use x="477.34375" xlink:href="#DejaVuSans-78"/>
      </g>
     </g>
    </g>
    <g id="xtick_9">
     <g id="line2d_9">
      <g>
       <use style="stroke:#000000;stroke-width:0.8;" x="137.198125" xlink:href="#mb1b1f1bf1a" y="239.758125"/>
      </g>
     </g>
     <g id="text_9">
      <!-- KIOSK-GAS -->
      <g transform="translate(139.9575 301.578438)rotate(-90)scale(0.1 -0.1)">
       <use xlink:href="#DejaVuSans-75"/>
       <use x="65.576172" xlink:href="#DejaVuSans-73"/>
       <use x="95.068359" xlink:href="#DejaVuSans-79"/>
       <use x="173.779297" xlink:href="#DejaVuSans-83"/>
       <use x="237.255859" xlink:href="#DejaVuSans-75"/>
       <use x="302.675781" xlink:href="#DejaVuSans-45"/>
       <use x="338.806641" xlink:href="#DejaVuSans-71"/>
       <use x="416.296875" xlink:href="#DejaVuSans-65"/>
       <use x="484.705078" xlink:href="#DejaVuSans-83"/>
      </g>
     </g>
    </g>
    <g id="xtick_10">
     <g id="line2d_10">
      <g>
       <use style="stroke:#000000;stroke-width:0.8;" x="145.568125" xlink:href="#mb1b1f1bf1a" y="239.758125"/>
      </g>
     </g>
     <g id="text_10">
      <!-- SEAFOOD-PCKGD -->
      <defs>
       <path d="M 9.8125 72.90625 
L 51.703125 72.90625 
L 51.703125 64.59375 
L 19.671875 64.59375 
L 19.671875 43.109375 
L 48.578125 43.109375 
L 48.578125 34.8125 
L 19.671875 34.8125 
L 19.671875 0 
L 9.8125 0 
z
" id="DejaVuSans-70"/>
      </defs>
      <g transform="translate(148.3275 334.087813)rotate(-90)scale(0.1 -0.1)">
       <use xlink:href="#DejaVuSans-83"/>
       <use x="63.476562" xlink:href="#DejaVuSans-69"/>
       <use x="126.660156" xlink:href="#DejaVuSans-65"/>
       <use x="195.068359" xlink:href="#DejaVuSans-70"/>
       <use x="252.587891" xlink:href="#DejaVuSans-79"/>
       <use x="331.298828" xlink:href="#DejaVuSans-79"/>
       <use x="410.009766" xlink:href="#DejaVuSans-68"/>
       <use x="487.011719" xlink:href="#DejaVuSans-45"/>
       <use x="523.095703" xlink:href="#DejaVuSans-80"/>
       <use x="583.398438" xlink:href="#DejaVuSans-67"/>
       <use x="653.222656" xlink:href="#DejaVuSans-75"/>
       <use x="718.798828" xlink:href="#DejaVuSans-71"/>
       <use x="796.289062" xlink:href="#DejaVuSans-68"/>
      </g>
     </g>
    </g>
    <g id="xtick_11">
     <g id="line2d_11">
      <g>
       <use style="stroke:#000000;stroke-width:0.8;" x="153.938125" xlink:href="#mb1b1f1bf1a" y="239.758125"/>
      </g>
     </g>
     <g id="text_11">
      <!-- SALAD BAR -->
      <defs>
       <path d="M 19.671875 34.8125 
L 19.671875 8.109375 
L 35.5 8.109375 
Q 43.453125 8.109375 47.28125 11.40625 
Q 51.125 14.703125 51.125 21.484375 
Q 51.125 28.328125 47.28125 31.5625 
Q 43.453125 34.8125 35.5 34.8125 
z
M 19.671875 64.796875 
L 19.671875 42.828125 
L 34.28125 42.828125 
Q 41.5 42.828125 45.03125 45.53125 
Q 48.578125 48.25 48.578125 53.8125 
Q 48.578125 59.328125 45.03125 62.0625 
Q 41.5 64.796875 34.28125 64.796875 
z
M 9.8125 72.90625 
L 35.015625 72.90625 
Q 46.296875 72.90625 52.390625 68.21875 
Q 58.5 63.53125 58.5 54.890625 
Q 58.5 48.1875 55.375 44.234375 
Q 52.25 40.28125 46.1875 39.3125 
Q 53.46875 37.75 57.5 32.78125 
Q 61.53125 27.828125 61.53125 20.40625 
Q 61.53125 10.640625 54.890625 5.3125 
Q 48.25 0 35.984375 0 
L 9.8125 0 
z
" id="DejaVuSans-66"/>
      </defs>
      <g transform="translate(156.6975 303.8925)rotate(-90)scale(0.1 -0.1)">
       <use xlink:href="#DejaVuSans-83"/>
       <use x="63.492188" xlink:href="#DejaVuSans-65"/>
       <use x="131.900391" xlink:href="#DejaVuSans-76"/>
       <use x="187.644531" xlink:href="#DejaVuSans-65"/>
       <use x="256.052734" xlink:href="#DejaVuSans-68"/>
       <use x="333.054688" xlink:href="#DejaVuSans-32"/>
       <use x="364.841797" xlink:href="#DejaVuSans-66"/>
       <use x="433.445312" xlink:href="#DejaVuSans-65"/>
       <use x="501.853516" xlink:href="#DejaVuSans-82"/>
      </g>
     </g>
    </g>
    <g id="xtick_12">
     <g id="line2d_12">
      <g>
       <use style="stroke:#000000;stroke-width:0.8;" x="162.308125" xlink:href="#mb1b1f1bf1a" y="239.758125"/>
      </g>
     </g>
     <g id="text_12">
      <!-- COSMETICS -->
      <g transform="translate(165.0675 305.297188)rotate(-90)scale(0.1 -0.1)">
       <use xlink:href="#DejaVuSans-67"/>
       <use x="69.824219" xlink:href="#DejaVuSans-79"/>
       <use x="148.535156" xlink:href="#DejaVuSans-83"/>
       <use x="212.011719" xlink:href="#DejaVuSans-77"/>
       <use x="298.291016" xlink:href="#DejaVuSans-69"/>
       <use x="361.474609" xlink:href="#DejaVuSans-84"/>
       <use x="422.558594" xlink:href="#DejaVuSans-73"/>
       <use x="452.050781" xlink:href="#DejaVuSans-67"/>
       <use x="521.875" xlink:href="#DejaVuSans-83"/>
      </g>
     </g>
    </g>
    <g id="xtick_13">
     <g id="line2d_13">
      <g>
       <use style="stroke:#000000;stroke-width:0.8;" x="170.678125" xlink:href="#mb1b1f1bf1a" y="239.758125"/>
      </g>
     </g>
     <g id="text_13">
      <!-- MISC SALES TRAN -->
      <g transform="translate(173.4375 336.825312)rotate(-90)scale(0.1 -0.1)">
       <use xlink:href="#DejaVuSans-77"/>
       <use x="86.279297" xlink:href="#DejaVuSans-73"/>
       <use x="115.771484" xlink:href="#DejaVuSans-83"/>
       <use x="179.248047" xlink:href="#DejaVuSans-67"/>
       <use x="249.072266" xlink:href="#DejaVuSans-32"/>
       <use x="280.859375" xlink:href="#DejaVuSans-83"/>
       <use x="344.351562" xlink:href="#DejaVuSans-65"/>
       <use x="412.759766" xlink:href="#DejaVuSans-76"/>
       <use x="468.472656" xlink:href="#DejaVuSans-69"/>
       <use x="531.65625" xlink:href="#DejaVuSans-83"/>
       <use x="595.132812" xlink:href="#DejaVuSans-32"/>
       <use x="626.919922" xlink:href="#DejaVuSans-84"/>
       <use x="688.003906" xlink:href="#DejaVuSans-82"/>
       <use x="757.423828" xlink:href="#DejaVuSans-65"/>
       <use x="825.832031" xlink:href="#DejaVuSans-78"/>
      </g>
     </g>
    </g>
    <g id="xtick_14">
     <g id="line2d_14">
      <g>
       <use style="stroke:#000000;stroke-width:0.8;" x="179.048125" xlink:href="#mb1b1f1bf1a" y="239.758125"/>
      </g>
     </g>
     <g id="text_14">
      <!-- FLORAL -->
      <g transform="translate(181.8075 285.303438)rotate(-90)scale(0.1 -0.1)">
       <use xlink:href="#DejaVuSans-70"/>
       <use x="57.519531" xlink:href="#DejaVuSans-76"/>
       <use x="113.185547" xlink:href="#DejaVuSans-79"/>
       <use x="191.896484" xlink:href="#DejaVuSans-82"/>
       <use x="261.316406" xlink:href="#DejaVuSans-65"/>
       <use x="329.724609" xlink:href="#DejaVuSans-76"/>
      </g>
     </g>
    </g>
    <g id="xtick_15">
     <g id="line2d_15">
      <g>
       <use style="stroke:#000000;stroke-width:0.8;" x="187.418125" xlink:href="#mb1b1f1bf1a" y="239.758125"/>
      </g>
     </g>
     <g id="text_15">
      <!-- SEAFOOD -->
      <g transform="translate(190.1775 295.46125)rotate(-90)scale(0.1 -0.1)">
       <use xlink:href="#DejaVuSans-83"/>
       <use x="63.476562" xlink:href="#DejaVuSans-69"/>
       <use x="126.660156" xlink:href="#DejaVuSans-65"/>
       <use x="195.068359" xlink:href="#DejaVuSans-70"/>
       <use x="252.587891" xlink:href="#DejaVuSans-79"/>
       <use x="331.298828" xlink:href="#DejaVuSans-79"/>
       <use x="410.009766" xlink:href="#DejaVuSans-68"/>
      </g>
     </g>
    </g>
    <g id="xtick_16">
     <g id="line2d_16">
      <g>
       <use style="stroke:#000000;stroke-width:0.8;" x="195.788125" xlink:href="#mb1b1f1bf1a" y="239.758125"/>
      </g>
     </g>
     <g id="text_16">
      <!-- MISC. TRANS. -->
      <defs>
       <path d="M 10.6875 12.40625 
L 21 12.40625 
L 21 0 
L 10.6875 0 
z
" id="DejaVuSans-46"/>
      </defs>
      <g transform="translate(198.5475 314.922188)rotate(-90)scale(0.1 -0.1)">
       <use xlink:href="#DejaVuSans-77"/>
       <use x="86.279297" xlink:href="#DejaVuSans-73"/>
       <use x="115.771484" xlink:href="#DejaVuSans-83"/>
       <use x="179.248047" xlink:href="#DejaVuSans-67"/>
       <use x="249.072266" xlink:href="#DejaVuSans-46"/>
       <use x="280.859375" xlink:href="#DejaVuSans-32"/>
       <use x="312.646484" xlink:href="#DejaVuSans-84"/>
       <use x="373.730469" xlink:href="#DejaVuSans-82"/>
       <use x="443.150391" xlink:href="#DejaVuSans-65"/>
       <use x="511.558594" xlink:href="#DejaVuSans-78"/>
       <use x="586.363281" xlink:href="#DejaVuSans-83"/>
       <use x="649.839844" xlink:href="#DejaVuSans-46"/>
      </g>
     </g>
    </g>
    <g id="xtick_17">
     <g id="line2d_17">
      <g>
       <use style="stroke:#000000;stroke-width:0.8;" x="204.158125" xlink:href="#mb1b1f1bf1a" y="239.758125"/>
      </g>
     </g>
     <g id="text_17">
      <!-- SPIRITS -->
      <g transform="translate(206.9175 284.440938)rotate(-90)scale(0.1 -0.1)">
       <use xlink:href="#DejaVuSans-83"/>
       <use x="63.476562" xlink:href="#DejaVuSans-80"/>
       <use x="123.779297" xlink:href="#DejaVuSans-73"/>
       <use x="153.271484" xlink:href="#DejaVuSans-82"/>
       <use x="222.753906" xlink:href="#DejaVuSans-73"/>
       <use x="252.246094" xlink:href="#DejaVuSans-84"/>
       <use x="313.330078" xlink:href="#DejaVuSans-83"/>
      </g>
     </g>
    </g>
    <g id="xtick_18">
     <g id="line2d_18">
      <g>
       <use style="stroke:#000000;stroke-width:0.8;" x="212.528125" xlink:href="#mb1b1f1bf1a" y="239.758125"/>
      </g>
     </g>
     <g id="text_18">
      <!-- CHEF SHOPPE -->
      <defs>
       <path d="M 9.8125 72.90625 
L 19.671875 72.90625 
L 19.671875 43.015625 
L 55.515625 43.015625 
L 55.515625 72.90625 
L 65.375 72.90625 
L 65.375 0 
L 55.515625 0 
L 55.515625 34.71875 
L 19.671875 34.71875 
L 19.671875 0 
L 9.8125 0 
z
" id="DejaVuSans-72"/>
      </defs>
      <g transform="translate(215.2875 316.628438)rotate(-90)scale(0.1 -0.1)">
       <use xlink:href="#DejaVuSans-67"/>
       <use x="69.824219" xlink:href="#DejaVuSans-72"/>
       <use x="145.019531" xlink:href="#DejaVuSans-69"/>
       <use x="208.203125" xlink:href="#DejaVuSans-70"/>
       <use x="265.722656" xlink:href="#DejaVuSans-32"/>
       <use x="297.509766" xlink:href="#DejaVuSans-83"/>
       <use x="360.986328" xlink:href="#DejaVuSans-72"/>
       <use x="436.181641" xlink:href="#DejaVuSans-79"/>
       <use x="514.892578" xlink:href="#DejaVuSans-80"/>
       <use x="575.195312" xlink:href="#DejaVuSans-80"/>
       <use x="635.498047" xlink:href="#DejaVuSans-69"/>
      </g>
     </g>
    </g>
    <g id="xtick_19">
     <g id="line2d_19">
      <g>
       <use style="stroke:#000000;stroke-width:0.8;" x="220.898125" xlink:href="#mb1b1f1bf1a" y="239.758125"/>
      </g>
     </g>
     <g id="text_19">
      <!-- TRAVEL &amp; LEISUR -->
      <defs>
       <path d="M 28.609375 0 
L 0.78125 72.90625 
L 11.078125 72.90625 
L 34.1875 11.53125 
L 57.328125 72.90625 
L 67.578125 72.90625 
L 39.796875 0 
z
" id="DejaVuSans-86"/>
       <path d="M 24.3125 39.203125 
Q 19.875 35.25 17.796875 31.3125 
Q 15.71875 27.390625 15.71875 23.09375 
Q 15.71875 15.96875 20.890625 11.234375 
Q 26.078125 6.5 33.890625 6.5 
Q 38.53125 6.5 42.578125 8.03125 
Q 46.625 9.578125 50.203125 12.703125 
z
M 31.203125 44.671875 
L 56 19.28125 
Q 58.890625 23.640625 60.5 28.59375 
Q 62.109375 33.546875 62.40625 39.109375 
L 71.484375 39.109375 
Q 70.90625 32.671875 68.359375 26.359375 
Q 65.828125 20.0625 61.28125 13.921875 
L 74.90625 0 
L 62.59375 0 
L 55.609375 7.171875 
Q 50.53125 2.828125 44.96875 0.703125 
Q 39.40625 -1.421875 33.015625 -1.421875 
Q 21.234375 -1.421875 13.765625 5.296875 
Q 6.296875 12.015625 6.296875 22.515625 
Q 6.296875 28.765625 9.5625 34.25 
Q 12.84375 39.75 19.390625 44.578125 
Q 17.046875 47.65625 15.8125 50.703125 
Q 14.59375 53.765625 14.59375 56.6875 
Q 14.59375 64.59375 20.015625 69.40625 
Q 25.4375 74.21875 34.421875 74.21875 
Q 38.484375 74.21875 42.5 73.34375 
Q 46.53125 72.46875 50.6875 70.703125 
L 50.6875 61.8125 
Q 46.4375 64.109375 42.578125 65.296875 
Q 38.71875 66.5 35.40625 66.5 
Q 30.28125 66.5 27.078125 63.78125 
Q 23.875 61.078125 23.875 56.78125 
Q 23.875 54.296875 25.3125 51.78125 
Q 26.765625 49.265625 31.203125 44.671875 
z
" id="DejaVuSans-38"/>
      </defs>
      <g transform="translate(223.6575 334.981562)rotate(-90)scale(0.1 -0.1)">
       <use xlink:href="#DejaVuSans-84"/>
       <use x="61.083984" xlink:href="#DejaVuSans-82"/>
       <use x="130.503906" xlink:href="#DejaVuSans-65"/>
       <use x="198.818359" xlink:href="#DejaVuSans-86"/>
       <use x="267.226562" xlink:href="#DejaVuSans-69"/>
       <use x="330.410156" xlink:href="#DejaVuSans-76"/>
       <use x="386.123047" xlink:href="#DejaVuSans-32"/>
       <use x="417.910156" xlink:href="#DejaVuSans-38"/>
       <use x="495.888672" xlink:href="#DejaVuSans-32"/>
       <use x="527.675781" xlink:href="#DejaVuSans-76"/>
       <use x="583.388672" xlink:href="#DejaVuSans-69"/>
       <use x="646.572266" xlink:href="#DejaVuSans-73"/>
       <use x="676.064453" xlink:href="#DejaVuSans-83"/>
       <use x="739.541016" xlink:href="#DejaVuSans-85"/>
       <use x="812.734375" xlink:href="#DejaVuSans-82"/>
      </g>
     </g>
    </g>
    <g id="xtick_20">
     <g id="line2d_20">
      <g>
       <use style="stroke:#000000;stroke-width:0.8;" x="229.268125" xlink:href="#mb1b1f1bf1a" y="239.758125"/>
      </g>
     </g>
     <g id="text_20">
      <!-- GARDEN CENTER -->
      <g transform="translate(232.0275 333.131563)rotate(-90)scale(0.1 -0.1)">
       <use xlink:href="#DejaVuSans-71"/>
       <use x="77.490234" xlink:href="#DejaVuSans-65"/>
       <use x="145.898438" xlink:href="#DejaVuSans-82"/>
       <use x="215.380859" xlink:href="#DejaVuSans-68"/>
       <use x="292.382812" xlink:href="#DejaVuSans-69"/>
       <use x="355.566406" xlink:href="#DejaVuSans-78"/>
       <use x="430.371094" xlink:href="#DejaVuSans-32"/>
       <use x="462.158203" xlink:href="#DejaVuSans-67"/>
       <use x="531.982422" xlink:href="#DejaVuSans-69"/>
       <use x="595.166016" xlink:href="#DejaVuSans-78"/>
       <use x="669.970703" xlink:href="#DejaVuSans-84"/>
       <use x="731.054688" xlink:href="#DejaVuSans-69"/>
       <use x="794.238281" xlink:href="#DejaVuSans-82"/>
      </g>
     </g>
    </g>
    <g id="xtick_21">
     <g id="line2d_21">
      <g>
       <use style="stroke:#000000;stroke-width:0.8;" x="237.638125" xlink:href="#mb1b1f1bf1a" y="239.758125"/>
      </g>
     </g>
     <g id="text_21">
      <!-- COUP/STR &amp; MFG -->
      <defs>
       <path d="M 25.390625 72.90625 
L 33.6875 72.90625 
L 8.296875 -9.28125 
L 0 -9.28125 
z
" id="DejaVuSans-47"/>
      </defs>
      <g transform="translate(240.3975 334.0175)rotate(-90)scale(0.1 -0.1)">
       <use xlink:href="#DejaVuSans-67"/>
       <use x="69.824219" xlink:href="#DejaVuSans-79"/>
       <use x="148.535156" xlink:href="#DejaVuSans-85"/>
       <use x="221.728516" xlink:href="#DejaVuSans-80"/>
       <use x="282.03125" xlink:href="#DejaVuSans-47"/>
       <use x="315.722656" xlink:href="#DejaVuSans-83"/>
       <use x="379.199219" xlink:href="#DejaVuSans-84"/>
       <use x="440.283203" xlink:href="#DejaVuSans-82"/>
       <use x="509.765625" xlink:href="#DejaVuSans-32"/>
       <use x="541.552734" xlink:href="#DejaVuSans-38"/>
       <use x="619.53125" xlink:href="#DejaVuSans-32"/>
       <use x="651.318359" xlink:href="#DejaVuSans-77"/>
       <use x="737.597656" xlink:href="#DejaVuSans-70"/>
       <use x="795.117188" xlink:href="#DejaVuSans-71"/>
      </g>
     </g>
    </g>
    <g id="xtick_22">
     <g id="line2d_22">
      <g>
       <use style="stroke:#000000;stroke-width:0.8;" x="246.008125" xlink:href="#mb1b1f1bf1a" y="239.758125"/>
      </g>
     </g>
     <g id="text_22">
      <!-- RESTAURANT -->
      <g transform="translate(248.7675 314.001875)rotate(-90)scale(0.1 -0.1)">
       <use xlink:href="#DejaVuSans-82"/>
       <use x="69.482422" xlink:href="#DejaVuSans-69"/>
       <use x="132.666016" xlink:href="#DejaVuSans-83"/>
       <use x="196.142578" xlink:href="#DejaVuSans-84"/>
       <use x="257.117188" xlink:href="#DejaVuSans-65"/>
       <use x="325.525391" xlink:href="#DejaVuSans-85"/>
       <use x="398.71875" xlink:href="#DejaVuSans-82"/>
       <use x="468.138672" xlink:href="#DejaVuSans-65"/>
       <use x="536.546875" xlink:href="#DejaVuSans-78"/>
       <use x="611.351562" xlink:href="#DejaVuSans-84"/>
      </g>
     </g>
    </g>
    <g id="xtick_23">
     <g id="line2d_23">
      <g>
       <use style="stroke:#000000;stroke-width:0.8;" x="254.378125" xlink:href="#mb1b1f1bf1a" y="239.758125"/>
      </g>
     </g>
     <g id="text_23">
      <!-- FROZEN GROCERY -->
      <defs>
       <path d="M 5.609375 72.90625 
L 62.890625 72.90625 
L 62.890625 65.375 
L 16.796875 8.296875 
L 64.015625 8.296875 
L 64.015625 0 
L 4.5 0 
L 4.5 7.515625 
L 50.59375 64.59375 
L 5.609375 64.59375 
z
" id="DejaVuSans-90"/>
      </defs>
      <g transform="translate(257.1375 340.075312)rotate(-90)scale(0.1 -0.1)">
       <use xlink:href="#DejaVuSans-70"/>
       <use x="57.519531" xlink:href="#DejaVuSans-82"/>
       <use x="127.001953" xlink:href="#DejaVuSans-79"/>
       <use x="205.712891" xlink:href="#DejaVuSans-90"/>
       <use x="274.21875" xlink:href="#DejaVuSans-69"/>
       <use x="337.402344" xlink:href="#DejaVuSans-78"/>
       <use x="412.207031" xlink:href="#DejaVuSans-32"/>
       <use x="443.994141" xlink:href="#DejaVuSans-71"/>
       <use x="521.484375" xlink:href="#DejaVuSans-82"/>
       <use x="590.966797" xlink:href="#DejaVuSans-79"/>
       <use x="669.677734" xlink:href="#DejaVuSans-67"/>
       <use x="739.501953" xlink:href="#DejaVuSans-69"/>
       <use x="802.685547" xlink:href="#DejaVuSans-82"/>
       <use x="872.074219" xlink:href="#DejaVuSans-89"/>
      </g>
     </g>
    </g>
    <g id="xtick_24">
     <g id="line2d_24">
      <g>
       <use style="stroke:#000000;stroke-width:0.8;" x="262.748125" xlink:href="#mb1b1f1bf1a" y="239.758125"/>
      </g>
     </g>
     <g id="text_24">
      <!-- AUTOMOTIVE -->
      <g transform="translate(265.5075 313.614375)rotate(-90)scale(0.1 -0.1)">
       <use xlink:href="#DejaVuSans-65"/>
       <use x="68.408203" xlink:href="#DejaVuSans-85"/>
       <use x="141.601562" xlink:href="#DejaVuSans-84"/>
       <use x="202.685547" xlink:href="#DejaVuSans-79"/>
       <use x="281.396484" xlink:href="#DejaVuSans-77"/>
       <use x="367.675781" xlink:href="#DejaVuSans-79"/>
       <use x="446.386719" xlink:href="#DejaVuSans-84"/>
       <use x="507.470703" xlink:href="#DejaVuSans-73"/>
       <use x="536.962891" xlink:href="#DejaVuSans-86"/>
       <use x="605.371094" xlink:href="#DejaVuSans-69"/>
      </g>
     </g>
    </g>
    <g id="xtick_25">
     <g id="line2d_25">
      <g>
       <use style="stroke:#000000;stroke-width:0.8;" x="271.118125" xlink:href="#mb1b1f1bf1a" y="239.758125"/>
      </g>
     </g>
     <g id="text_25">
      <!-- GM MERCH EXP -->
      <defs>
       <path d="M 6.296875 72.90625 
L 16.890625 72.90625 
L 35.015625 45.796875 
L 53.21875 72.90625 
L 63.8125 72.90625 
L 40.375 37.890625 
L 65.375 0 
L 54.78125 0 
L 34.28125 31 
L 13.625 0 
L 2.984375 0 
L 29 38.921875 
z
" id="DejaVuSans-88"/>
      </defs>
      <g transform="translate(273.8775 325.08)rotate(-90)scale(0.1 -0.1)">
       <use xlink:href="#DejaVuSans-71"/>
       <use x="77.490234" xlink:href="#DejaVuSans-77"/>
       <use x="163.769531" xlink:href="#DejaVuSans-32"/>
       <use x="195.556641" xlink:href="#DejaVuSans-77"/>
       <use x="281.835938" xlink:href="#DejaVuSans-69"/>
       <use x="345.019531" xlink:href="#DejaVuSans-82"/>
       <use x="414.423828" xlink:href="#DejaVuSans-67"/>
       <use x="484.248047" xlink:href="#DejaVuSans-72"/>
       <use x="559.443359" xlink:href="#DejaVuSans-32"/>
       <use x="591.230469" xlink:href="#DejaVuSans-69"/>
       <use x="654.414062" xlink:href="#DejaVuSans-88"/>
       <use x="722.919922" xlink:href="#DejaVuSans-80"/>
      </g>
     </g>
    </g>
    <g id="xtick_26">
     <g id="line2d_26">
      <g>
       <use style="stroke:#000000;stroke-width:0.8;" x="279.488125" xlink:href="#mb1b1f1bf1a" y="239.758125"/>
      </g>
     </g>
     <g id="text_26">
      <!-- DAIRY DELI -->
      <g transform="translate(282.2475 303.012812)rotate(-90)scale(0.1 -0.1)">
       <use xlink:href="#DejaVuSans-68"/>
       <use x="76.986328" xlink:href="#DejaVuSans-65"/>
       <use x="145.394531" xlink:href="#DejaVuSans-73"/>
       <use x="174.886719" xlink:href="#DejaVuSans-82"/>
       <use x="244.275391" xlink:href="#DejaVuSans-89"/>
       <use x="305.359375" xlink:href="#DejaVuSans-32"/>
       <use x="337.146484" xlink:href="#DejaVuSans-68"/>
       <use x="414.148438" xlink:href="#DejaVuSans-69"/>
       <use x="477.332031" xlink:href="#DejaVuSans-76"/>
       <use x="533.044922" xlink:href="#DejaVuSans-73"/>
      </g>
     </g>
    </g>
    <g id="xtick_27">
     <g id="line2d_27">
      <g>
       <use style="stroke:#000000;stroke-width:0.8;" x="287.858125" xlink:href="#mb1b1f1bf1a" y="239.758125"/>
      </g>
     </g>
     <g id="text_27">
      <!-- POSTAL CENTER -->
      <g transform="translate(290.6175 328.853438)rotate(-90)scale(0.1 -0.1)">
       <use xlink:href="#DejaVuSans-80"/>
       <use x="60.302734" xlink:href="#DejaVuSans-79"/>
       <use x="139.013672" xlink:href="#DejaVuSans-83"/>
       <use x="202.490234" xlink:href="#DejaVuSans-84"/>
       <use x="263.464844" xlink:href="#DejaVuSans-65"/>
       <use x="331.873047" xlink:href="#DejaVuSans-76"/>
       <use x="387.585938" xlink:href="#DejaVuSans-32"/>
       <use x="419.373047" xlink:href="#DejaVuSans-67"/>
       <use x="489.197266" xlink:href="#DejaVuSans-69"/>
       <use x="552.380859" xlink:href="#DejaVuSans-78"/>
       <use x="627.185547" xlink:href="#DejaVuSans-84"/>
       <use x="688.269531" xlink:href="#DejaVuSans-69"/>
       <use x="751.453125" xlink:href="#DejaVuSans-82"/>
      </g>
     </g>
    </g>
    <g id="xtick_28">
     <g id="line2d_28">
      <g>
       <use style="stroke:#000000;stroke-width:0.8;" x="296.228125" xlink:href="#mb1b1f1bf1a" y="239.758125"/>
      </g>
     </g>
     <g id="text_28">
      <!-- PHOTO -->
      <g transform="translate(298.9875 282.159688)rotate(-90)scale(0.1 -0.1)">
       <use xlink:href="#DejaVuSans-80"/>
       <use x="60.302734" xlink:href="#DejaVuSans-72"/>
       <use x="135.498047" xlink:href="#DejaVuSans-79"/>
       <use x="214.208984" xlink:href="#DejaVuSans-84"/>
       <use x="275.292969" xlink:href="#DejaVuSans-79"/>
      </g>
     </g>
    </g>
    <g id="xtick_29">
     <g id="line2d_29">
      <g>
       <use style="stroke:#000000;stroke-width:0.8;" x="304.598125" xlink:href="#mb1b1f1bf1a" y="239.758125"/>
      </g>
     </g>
     <g id="text_29">
      <!-- CNTRL/STORE SUP -->
      <g transform="translate(307.3575 339.689375)rotate(-90)scale(0.1 -0.1)">
       <use xlink:href="#DejaVuSans-67"/>
       <use x="69.824219" xlink:href="#DejaVuSans-78"/>
       <use x="144.628906" xlink:href="#DejaVuSans-84"/>
       <use x="205.712891" xlink:href="#DejaVuSans-82"/>
       <use x="275.195312" xlink:href="#DejaVuSans-76"/>
       <use x="330.908203" xlink:href="#DejaVuSans-47"/>
       <use x="364.599609" xlink:href="#DejaVuSans-83"/>
       <use x="428.076172" xlink:href="#DejaVuSans-84"/>
       <use x="489.160156" xlink:href="#DejaVuSans-79"/>
       <use x="567.871094" xlink:href="#DejaVuSans-82"/>
       <use x="637.353516" xlink:href="#DejaVuSans-69"/>
       <use x="700.537109" xlink:href="#DejaVuSans-32"/>
       <use x="732.324219" xlink:href="#DejaVuSans-83"/>
       <use x="795.800781" xlink:href="#DejaVuSans-85"/>
       <use x="868.994141" xlink:href="#DejaVuSans-80"/>
      </g>
     </g>
    </g>
    <g id="xtick_30">
     <g id="line2d_30">
      <g>
       <use style="stroke:#000000;stroke-width:0.8;" x="312.968125" xlink:href="#mb1b1f1bf1a" y="239.758125"/>
      </g>
     </g>
     <g id="text_30">
      <!-- RX -->
      <g transform="translate(315.7275 260.556563)rotate(-90)scale(0.1 -0.1)">
       <use xlink:href="#DejaVuSans-82"/>
       <use x="69.482422" xlink:href="#DejaVuSans-88"/>
      </g>
     </g>
    </g>
    <g id="xtick_31">
     <g id="line2d_31">
      <g>
       <use style="stroke:#000000;stroke-width:0.8;" x="321.338125" xlink:href="#mb1b1f1bf1a" y="239.758125"/>
      </g>
     </g>
     <g id="text_31">
      <!-- DELI/SNACK BAR -->
      <g transform="translate(324.0975 330.705)rotate(-90)scale(0.1 -0.1)">
       <use xlink:href="#DejaVuSans-68"/>
       <use x="77.001953" xlink:href="#DejaVuSans-69"/>
       <use x="140.185547" xlink:href="#DejaVuSans-76"/>
       <use x="195.898438" xlink:href="#DejaVuSans-73"/>
       <use x="225.390625" xlink:href="#DejaVuSans-47"/>
       <use x="259.082031" xlink:href="#DejaVuSans-83"/>
       <use x="322.558594" xlink:href="#DejaVuSans-78"/>
       <use x="397.363281" xlink:href="#DejaVuSans-65"/>
       <use x="465.755859" xlink:href="#DejaVuSans-67"/>
       <use x="535.580078" xlink:href="#DejaVuSans-75"/>
       <use x="601.15625" xlink:href="#DejaVuSans-32"/>
       <use x="632.943359" xlink:href="#DejaVuSans-66"/>
       <use x="701.546875" xlink:href="#DejaVuSans-65"/>
       <use x="769.955078" xlink:href="#DejaVuSans-82"/>
      </g>
     </g>
    </g>
    <g id="xtick_32">
     <g id="line2d_32">
      <g>
       <use style="stroke:#000000;stroke-width:0.8;" x="329.708125" xlink:href="#mb1b1f1bf1a" y="239.758125"/>
      </g>
     </g>
     <g id="text_32">
      <!-- MEAT-WHSE -->
      <defs>
       <path d="M 3.328125 72.90625 
L 13.28125 72.90625 
L 28.609375 11.28125 
L 43.890625 72.90625 
L 54.984375 72.90625 
L 70.3125 11.28125 
L 85.59375 72.90625 
L 95.609375 72.90625 
L 77.296875 0 
L 64.890625 0 
L 49.515625 63.28125 
L 33.984375 0 
L 21.578125 0 
z
" id="DejaVuSans-87"/>
      </defs>
      <g transform="translate(332.4675 308.305)rotate(-90)scale(0.1 -0.1)">
       <use xlink:href="#DejaVuSans-77"/>
       <use x="86.279297" xlink:href="#DejaVuSans-69"/>
       <use x="149.462891" xlink:href="#DejaVuSans-65"/>
       <use x="217.761719" xlink:href="#DejaVuSans-84"/>
       <use x="278.705078" xlink:href="#DejaVuSans-45"/>
       <use x="314.726562" xlink:href="#DejaVuSans-87"/>
       <use x="413.603516" xlink:href="#DejaVuSans-72"/>
       <use x="488.798828" xlink:href="#DejaVuSans-83"/>
       <use x="552.275391" xlink:href="#DejaVuSans-69"/>
      </g>
     </g>
    </g>
    <g id="xtick_33">
     <g id="line2d_33">
      <g>
       <use style="stroke:#000000;stroke-width:0.8;" x="338.078125" xlink:href="#mb1b1f1bf1a" y="239.758125"/>
      </g>
     </g>
     <g id="text_33">
      <!-- PHARMACY SUPPLY -->
      <g transform="translate(340.8375 343.2175)rotate(-90)scale(0.1 -0.1)">
       <use xlink:href="#DejaVuSans-80"/>
       <use x="60.302734" xlink:href="#DejaVuSans-72"/>
       <use x="135.498047" xlink:href="#DejaVuSans-65"/>
       <use x="203.90625" xlink:href="#DejaVuSans-82"/>
       <use x="273.388672" xlink:href="#DejaVuSans-77"/>
       <use x="359.667969" xlink:href="#DejaVuSans-65"/>
       <use x="428.060547" xlink:href="#DejaVuSans-67"/>
       <use x="497.869141" xlink:href="#DejaVuSans-89"/>
       <use x="558.953125" xlink:href="#DejaVuSans-32"/>
       <use x="590.740234" xlink:href="#DejaVuSans-83"/>
       <use x="654.216797" xlink:href="#DejaVuSans-85"/>
       <use x="727.410156" xlink:href="#DejaVuSans-80"/>
       <use x="787.712891" xlink:href="#DejaVuSans-80"/>
       <use x="848.015625" xlink:href="#DejaVuSans-76"/>
       <use x="903.525391" xlink:href="#DejaVuSans-89"/>
      </g>
     </g>
    </g>
    <g id="xtick_34">
     <g id="line2d_34">
      <g>
       <use style="stroke:#000000;stroke-width:0.8;" x="346.448125" xlink:href="#mb1b1f1bf1a" y="239.758125"/>
      </g>
     </g>
     <g id="text_34">
      <!-- PROD-WHS SALES -->
      <g transform="translate(349.2075 337.27375)rotate(-90)scale(0.1 -0.1)">
       <use xlink:href="#DejaVuSans-80"/>
       <use x="60.302734" xlink:href="#DejaVuSans-82"/>
       <use x="129.785156" xlink:href="#DejaVuSans-79"/>
       <use x="208.496094" xlink:href="#DejaVuSans-68"/>
       <use x="285.498047" xlink:href="#DejaVuSans-45"/>
       <use x="321.519531" xlink:href="#DejaVuSans-87"/>
       <use x="420.396484" xlink:href="#DejaVuSans-72"/>
       <use x="495.591797" xlink:href="#DejaVuSans-83"/>
       <use x="559.068359" xlink:href="#DejaVuSans-32"/>
       <use x="590.855469" xlink:href="#DejaVuSans-83"/>
       <use x="654.347656" xlink:href="#DejaVuSans-65"/>
       <use x="722.755859" xlink:href="#DejaVuSans-76"/>
       <use x="778.46875" xlink:href="#DejaVuSans-69"/>
       <use x="841.652344" xlink:href="#DejaVuSans-83"/>
      </g>
     </g>
    </g>
    <g id="xtick_35">
     <g id="line2d_35">
      <g>
       <use style="stroke:#000000;stroke-width:0.8;" x="354.818125" xlink:href="#mb1b1f1bf1a" y="239.758125"/>
      </g>
     </g>
     <g id="text_35">
      <!-- GRO BAKERY -->
      <g transform="translate(357.5775 312.13)rotate(-90)scale(0.1 -0.1)">
       <use xlink:href="#DejaVuSans-71"/>
       <use x="77.490234" xlink:href="#DejaVuSans-82"/>
       <use x="146.972656" xlink:href="#DejaVuSans-79"/>
       <use x="225.683594" xlink:href="#DejaVuSans-32"/>
       <use x="257.470703" xlink:href="#DejaVuSans-66"/>
       <use x="326.074219" xlink:href="#DejaVuSans-65"/>
       <use x="394.482422" xlink:href="#DejaVuSans-75"/>
       <use x="460.058594" xlink:href="#DejaVuSans-69"/>
       <use x="523.242188" xlink:href="#DejaVuSans-82"/>
       <use x="592.630859" xlink:href="#DejaVuSans-89"/>
      </g>
     </g>
    </g>
    <g id="xtick_36">
     <g id="line2d_36">
      <g>
       <use style="stroke:#000000;stroke-width:0.8;" x="363.188125" xlink:href="#mb1b1f1bf1a" y="239.758125"/>
      </g>
     </g>
     <g id="text_36">
      <!-- VIDEO -->
      <g transform="translate(365.9475 278.439375)rotate(-90)scale(0.1 -0.1)">
       <use xlink:href="#DejaVuSans-86"/>
       <use x="68.408203" xlink:href="#DejaVuSans-73"/>
       <use x="97.900391" xlink:href="#DejaVuSans-68"/>
       <use x="174.902344" xlink:href="#DejaVuSans-69"/>
       <use x="238.085938" xlink:href="#DejaVuSans-79"/>
      </g>
     </g>
    </g>
    <g id="xtick_37">
     <g id="line2d_37">
      <g>
       <use style="stroke:#000000;stroke-width:0.8;" x="371.558125" xlink:href="#mb1b1f1bf1a" y="239.758125"/>
      </g>
     </g>
     <g id="text_37">
      <!-- HBC -->
      <g transform="translate(374.3175 268.120625)rotate(-90)scale(0.1 -0.1)">
       <use xlink:href="#DejaVuSans-72"/>
       <use x="75.195312" xlink:href="#DejaVuSans-66"/>
       <use x="143.783203" xlink:href="#DejaVuSans-67"/>
      </g>
     </g>
    </g>
    <g id="xtick_38">
     <g id="line2d_38">
      <g>
       <use style="stroke:#000000;stroke-width:0.8;" x="379.928125" xlink:href="#mb1b1f1bf1a" y="239.758125"/>
      </g>
     </g>
     <g id="text_38">
      <!-- HOUSEWARES -->
      <g transform="translate(382.6875 318.472188)rotate(-90)scale(0.1 -0.1)">
       <use xlink:href="#DejaVuSans-72"/>
       <use x="75.195312" xlink:href="#DejaVuSans-79"/>
       <use x="153.90625" xlink:href="#DejaVuSans-85"/>
       <use x="227.099609" xlink:href="#DejaVuSans-83"/>
       <use x="290.576172" xlink:href="#DejaVuSans-69"/>
       <use x="353.759766" xlink:href="#DejaVuSans-87"/>
       <use x="452.558594" xlink:href="#DejaVuSans-65"/>
       <use x="520.966797" xlink:href="#DejaVuSans-82"/>
       <use x="590.449219" xlink:href="#DejaVuSans-69"/>
       <use x="653.632812" xlink:href="#DejaVuSans-83"/>
      </g>
     </g>
    </g>
    <g id="xtick_39">
     <g id="line2d_39">
      <g>
       <use style="stroke:#000000;stroke-width:0.8;" x="388.298125" xlink:href="#mb1b1f1bf1a" y="239.758125"/>
      </g>
     </g>
     <g id="text_39">
      <!-- TOYS -->
      <g transform="translate(391.0575 273.18625)rotate(-90)scale(0.1 -0.1)">
       <use xlink:href="#DejaVuSans-84"/>
       <use x="61.083984" xlink:href="#DejaVuSans-79"/>
       <use x="139.716797" xlink:href="#DejaVuSans-89"/>
       <use x="200.800781" xlink:href="#DejaVuSans-83"/>
      </g>
     </g>
    </g>
    <g id="xtick_40">
     <g id="line2d_40">
      <g>
       <use style="stroke:#000000;stroke-width:0.8;" x="396.668125" xlink:href="#mb1b1f1bf1a" y="239.758125"/>
      </g>
     </g>
     <g id="text_40">
      <!-- VIDEO RENTAL -->
      <g transform="translate(399.4275 320.875313)rotate(-90)scale(0.1 -0.1)">
       <use xlink:href="#DejaVuSans-86"/>
       <use x="68.408203" xlink:href="#DejaVuSans-73"/>
       <use x="97.900391" xlink:href="#DejaVuSans-68"/>
       <use x="174.902344" xlink:href="#DejaVuSans-69"/>
       <use x="238.085938" xlink:href="#DejaVuSans-79"/>
       <use x="316.796875" xlink:href="#DejaVuSans-32"/>
       <use x="348.583984" xlink:href="#DejaVuSans-82"/>
       <use x="418.066406" xlink:href="#DejaVuSans-69"/>
       <use x="481.25" xlink:href="#DejaVuSans-78"/>
       <use x="556.054688" xlink:href="#DejaVuSans-84"/>
       <use x="617.029297" xlink:href="#DejaVuSans-65"/>
       <use x="685.4375" xlink:href="#DejaVuSans-76"/>
      </g>
     </g>
    </g>
    <g id="text_41">
     <!-- Product type -->
     <defs>
      <path d="M 41.109375 46.296875 
Q 39.59375 47.171875 37.8125 47.578125 
Q 36.03125 48 33.890625 48 
Q 26.265625 48 22.1875 43.046875 
Q 18.109375 38.09375 18.109375 28.8125 
L 18.109375 0 
L 9.078125 0 
L 9.078125 54.6875 
L 18.109375 54.6875 
L 18.109375 46.1875 
Q 20.953125 51.171875 25.484375 53.578125 
Q 30.03125 56 36.53125 56 
Q 37.453125 56 38.578125 55.875 
Q 39.703125 55.765625 41.0625 55.515625 
z
" id="DejaVuSans-114"/>
      <path d="M 30.609375 48.390625 
Q 23.390625 48.390625 19.1875 42.75 
Q 14.984375 37.109375 14.984375 27.296875 
Q 14.984375 17.484375 19.15625 11.84375 
Q 23.34375 6.203125 30.609375 6.203125 
Q 37.796875 6.203125 41.984375 11.859375 
Q 46.1875 17.53125 46.1875 27.296875 
Q 46.1875 37.015625 41.984375 42.703125 
Q 37.796875 48.390625 30.609375 48.390625 
z
M 30.609375 56 
Q 42.328125 56 49.015625 48.375 
Q 55.71875 40.765625 55.71875 27.296875 
Q 55.71875 13.875 49.015625 6.21875 
Q 42.328125 -1.421875 30.609375 -1.421875 
Q 18.84375 -1.421875 12.171875 6.21875 
Q 5.515625 13.875 5.515625 27.296875 
Q 5.515625 40.765625 12.171875 48.375 
Q 18.84375 56 30.609375 56 
z
" id="DejaVuSans-111"/>
      <path d="M 45.40625 46.390625 
L 45.40625 75.984375 
L 54.390625 75.984375 
L 54.390625 0 
L 45.40625 0 
L 45.40625 8.203125 
Q 42.578125 3.328125 38.25 0.953125 
Q 33.9375 -1.421875 27.875 -1.421875 
Q 17.96875 -1.421875 11.734375 6.484375 
Q 5.515625 14.40625 5.515625 27.296875 
Q 5.515625 40.1875 11.734375 48.09375 
Q 17.96875 56 27.875 56 
Q 33.9375 56 38.25 53.625 
Q 42.578125 51.265625 45.40625 46.390625 
z
M 14.796875 27.296875 
Q 14.796875 17.390625 18.875 11.75 
Q 22.953125 6.109375 30.078125 6.109375 
Q 37.203125 6.109375 41.296875 11.75 
Q 45.40625 17.390625 45.40625 27.296875 
Q 45.40625 37.203125 41.296875 42.84375 
Q 37.203125 48.484375 30.078125 48.484375 
Q 22.953125 48.484375 18.875 42.84375 
Q 14.796875 37.203125 14.796875 27.296875 
z
" id="DejaVuSans-100"/>
      <path d="M 8.5 21.578125 
L 8.5 54.6875 
L 17.484375 54.6875 
L 17.484375 21.921875 
Q 17.484375 14.15625 20.5 10.265625 
Q 23.53125 6.390625 29.59375 6.390625 
Q 36.859375 6.390625 41.078125 11.03125 
Q 45.3125 15.671875 45.3125 23.6875 
L 45.3125 54.6875 
L 54.296875 54.6875 
L 54.296875 0 
L 45.3125 0 
L 45.3125 8.40625 
Q 42.046875 3.421875 37.71875 1 
Q 33.40625 -1.421875 27.6875 -1.421875 
Q 18.265625 -1.421875 13.375 4.4375 
Q 8.5 10.296875 8.5 21.578125 
z
M 31.109375 56 
z
" id="DejaVuSans-117"/>
      <path d="M 48.78125 52.59375 
L 48.78125 44.1875 
Q 44.96875 46.296875 41.140625 47.34375 
Q 37.3125 48.390625 33.40625 48.390625 
Q 24.65625 48.390625 19.8125 42.84375 
Q 14.984375 37.3125 14.984375 27.296875 
Q 14.984375 17.28125 19.8125 11.734375 
Q 24.65625 6.203125 33.40625 6.203125 
Q 37.3125 6.203125 41.140625 7.25 
Q 44.96875 8.296875 48.78125 10.40625 
L 48.78125 2.09375 
Q 45.015625 0.34375 40.984375 -0.53125 
Q 36.96875 -1.421875 32.421875 -1.421875 
Q 20.0625 -1.421875 12.78125 6.34375 
Q 5.515625 14.109375 5.515625 27.296875 
Q 5.515625 40.671875 12.859375 48.328125 
Q 20.21875 56 33.015625 56 
Q 37.15625 56 41.109375 55.140625 
Q 45.0625 54.296875 48.78125 52.59375 
z
" id="DejaVuSans-99"/>
      <path d="M 18.3125 70.21875 
L 18.3125 54.6875 
L 36.8125 54.6875 
L 36.8125 47.703125 
L 18.3125 47.703125 
L 18.3125 18.015625 
Q 18.3125 11.328125 20.140625 9.421875 
Q 21.96875 7.515625 27.59375 7.515625 
L 36.8125 7.515625 
L 36.8125 0 
L 27.59375 0 
Q 17.1875 0 13.234375 3.875 
Q 9.28125 7.765625 9.28125 18.015625 
L 9.28125 47.703125 
L 2.6875 47.703125 
L 2.6875 54.6875 
L 9.28125 54.6875 
L 9.28125 70.21875 
z
" id="DejaVuSans-116"/>
      <path d="M 32.171875 -5.078125 
Q 28.375 -14.84375 24.75 -17.8125 
Q 21.140625 -20.796875 15.09375 -20.796875 
L 7.90625 -20.796875 
L 7.90625 -13.28125 
L 13.1875 -13.28125 
Q 16.890625 -13.28125 18.9375 -11.515625 
Q 21 -9.765625 23.484375 -3.21875 
L 25.09375 0.875 
L 2.984375 54.6875 
L 12.5 54.6875 
L 29.59375 11.921875 
L 46.6875 54.6875 
L 56.203125 54.6875 
z
" id="DejaVuSans-121"/>
      <path d="M 18.109375 8.203125 
L 18.109375 -20.796875 
L 9.078125 -20.796875 
L 9.078125 54.6875 
L 18.109375 54.6875 
L 18.109375 46.390625 
Q 20.953125 51.265625 25.265625 53.625 
Q 29.59375 56 35.59375 56 
Q 45.5625 56 51.78125 48.09375 
Q 58.015625 40.1875 58.015625 27.296875 
Q 58.015625 14.40625 51.78125 6.484375 
Q 45.5625 -1.421875 35.59375 -1.421875 
Q 29.59375 -1.421875 25.265625 0.953125 
Q 20.953125 3.328125 18.109375 8.203125 
z
M 48.6875 27.296875 
Q 48.6875 37.203125 44.609375 42.84375 
Q 40.53125 48.484375 33.40625 48.484375 
Q 26.265625 48.484375 22.1875 42.84375 
Q 18.109375 37.203125 18.109375 27.296875 
Q 18.109375 17.390625 22.1875 11.75 
Q 26.265625 6.109375 33.40625 6.109375 
Q 40.53125 6.109375 44.609375 11.75 
Q 48.6875 17.390625 48.6875 27.296875 
z
" id="DejaVuSans-112"/>
      <path d="M 56.203125 29.59375 
L 56.203125 25.203125 
L 14.890625 25.203125 
Q 15.484375 15.921875 20.484375 11.0625 
Q 25.484375 6.203125 34.421875 6.203125 
Q 39.59375 6.203125 44.453125 7.46875 
Q 49.3125 8.734375 54.109375 11.28125 
L 54.109375 2.78125 
Q 49.265625 0.734375 44.1875 -0.34375 
Q 39.109375 -1.421875 33.890625 -1.421875 
Q 20.796875 -1.421875 13.15625 6.1875 
Q 5.515625 13.8125 5.515625 26.8125 
Q 5.515625 40.234375 12.765625 48.109375 
Q 20.015625 56 32.328125 56 
Q 43.359375 56 49.78125 48.890625 
Q 56.203125 41.796875 56.203125 29.59375 
z
M 47.21875 32.234375 
Q 47.125 39.59375 43.09375 43.984375 
Q 39.0625 48.390625 32.421875 48.390625 
Q 24.90625 48.390625 20.390625 44.140625 
Q 15.875 39.890625 15.1875 32.171875 
z
" id="DejaVuSans-101"/>
     </defs>
     <g transform="translate(201.514062 354.815938)scale(0.1 -0.1)">
      <use xlink:href="#DejaVuSans-80"/>
      <use x="60.287109" xlink:href="#DejaVuSans-114"/>
      <use x="101.369141" xlink:href="#DejaVuSans-111"/>
      <use x="162.550781" xlink:href="#DejaVuSans-100"/>
      <use x="226.027344" xlink:href="#DejaVuSans-117"/>
      <use x="289.40625" xlink:href="#DejaVuSans-99"/>
      <use x="344.386719" xlink:href="#DejaVuSans-116"/>
      <use x="383.595703" xlink:href="#DejaVuSans-32"/>
      <use x="415.382812" xlink:href="#DejaVuSans-116"/>
      <use x="454.591797" xlink:href="#DejaVuSans-121"/>
      <use x="513.771484" xlink:href="#DejaVuSans-112"/>
      <use x="577.248047" xlink:href="#DejaVuSans-101"/>
     </g>
    </g>
   </g>
   <g id="matplotlib.axis_2">
    <g id="ytick_1">
     <g id="line2d_41">
      <defs>
       <path d="M 0 0 
L -3.5 0 
" id="mc5d084d59c" style="stroke:#000000;stroke-width:0.8;"/>
      </defs>
      <g>
       <use style="stroke:#000000;stroke-width:0.8;" x="66.053125" xlink:href="#mc5d084d59c" y="239.758125"/>
      </g>
     </g>
     <g id="text_42">
      <!-- 0 -->
      <defs>
       <path d="M 31.78125 66.40625 
Q 24.171875 66.40625 20.328125 58.90625 
Q 16.5 51.421875 16.5 36.375 
Q 16.5 21.390625 20.328125 13.890625 
Q 24.171875 6.390625 31.78125 6.390625 
Q 39.453125 6.390625 43.28125 13.890625 
Q 47.125 21.390625 47.125 36.375 
Q 47.125 51.421875 43.28125 58.90625 
Q 39.453125 66.40625 31.78125 66.40625 
z
M 31.78125 74.21875 
Q 44.046875 74.21875 50.515625 64.515625 
Q 56.984375 54.828125 56.984375 36.375 
Q 56.984375 17.96875 50.515625 8.265625 
Q 44.046875 -1.421875 31.78125 -1.421875 
Q 19.53125 -1.421875 13.0625 8.265625 
Q 6.59375 17.96875 6.59375 36.375 
Q 6.59375 54.828125 13.0625 64.515625 
Q 19.53125 74.21875 31.78125 74.21875 
z
" id="DejaVuSans-48"/>
      </defs>
      <g transform="translate(52.690625 243.557344)scale(0.1 -0.1)">
       <use xlink:href="#DejaVuSans-48"/>
      </g>
     </g>
    </g>
    <g id="ytick_2">
     <g id="line2d_42">
      <g>
       <use style="stroke:#000000;stroke-width:0.8;" x="66.053125" xlink:href="#mc5d084d59c" y="193.554623"/>
      </g>
     </g>
     <g id="text_43">
      <!-- 200000 -->
      <defs>
       <path d="M 19.1875 8.296875 
L 53.609375 8.296875 
L 53.609375 0 
L 7.328125 0 
L 7.328125 8.296875 
Q 12.9375 14.109375 22.625 23.890625 
Q 32.328125 33.6875 34.8125 36.53125 
Q 39.546875 41.84375 41.421875 45.53125 
Q 43.3125 49.21875 43.3125 52.78125 
Q 43.3125 58.59375 39.234375 62.25 
Q 35.15625 65.921875 28.609375 65.921875 
Q 23.96875 65.921875 18.8125 64.3125 
Q 13.671875 62.703125 7.8125 59.421875 
L 7.8125 69.390625 
Q 13.765625 71.78125 18.9375 73 
Q 24.125 74.21875 28.421875 74.21875 
Q 39.75 74.21875 46.484375 68.546875 
Q 53.21875 62.890625 53.21875 53.421875 
Q 53.21875 48.921875 51.53125 44.890625 
Q 49.859375 40.875 45.40625 35.40625 
Q 44.1875 33.984375 37.640625 27.21875 
Q 31.109375 20.453125 19.1875 8.296875 
z
" id="DejaVuSans-50"/>
      </defs>
      <g transform="translate(20.878125 197.353841)scale(0.1 -0.1)">
       <use xlink:href="#DejaVuSans-50"/>
       <use x="63.623047" xlink:href="#DejaVuSans-48"/>
       <use x="127.246094" xlink:href="#DejaVuSans-48"/>
       <use x="190.869141" xlink:href="#DejaVuSans-48"/>
       <use x="254.492188" xlink:href="#DejaVuSans-48"/>
       <use x="318.115234" xlink:href="#DejaVuSans-48"/>
      </g>
     </g>
    </g>
    <g id="ytick_3">
     <g id="line2d_43">
      <g>
       <use style="stroke:#000000;stroke-width:0.8;" x="66.053125" xlink:href="#mc5d084d59c" y="147.35112"/>
      </g>
     </g>
     <g id="text_44">
      <!-- 400000 -->
      <defs>
       <path d="M 37.796875 64.3125 
L 12.890625 25.390625 
L 37.796875 25.390625 
z
M 35.203125 72.90625 
L 47.609375 72.90625 
L 47.609375 25.390625 
L 58.015625 25.390625 
L 58.015625 17.1875 
L 47.609375 17.1875 
L 47.609375 0 
L 37.796875 0 
L 37.796875 17.1875 
L 4.890625 17.1875 
L 4.890625 26.703125 
z
" id="DejaVuSans-52"/>
      </defs>
      <g transform="translate(20.878125 151.150339)scale(0.1 -0.1)">
       <use xlink:href="#DejaVuSans-52"/>
       <use x="63.623047" xlink:href="#DejaVuSans-48"/>
       <use x="127.246094" xlink:href="#DejaVuSans-48"/>
       <use x="190.869141" xlink:href="#DejaVuSans-48"/>
       <use x="254.492188" xlink:href="#DejaVuSans-48"/>
       <use x="318.115234" xlink:href="#DejaVuSans-48"/>
      </g>
     </g>
    </g>
    <g id="ytick_4">
     <g id="line2d_44">
      <g>
       <use style="stroke:#000000;stroke-width:0.8;" x="66.053125" xlink:href="#mc5d084d59c" y="101.147618"/>
      </g>
     </g>
     <g id="text_45">
      <!-- 600000 -->
      <defs>
       <path d="M 33.015625 40.375 
Q 26.375 40.375 22.484375 35.828125 
Q 18.609375 31.296875 18.609375 23.390625 
Q 18.609375 15.53125 22.484375 10.953125 
Q 26.375 6.390625 33.015625 6.390625 
Q 39.65625 6.390625 43.53125 10.953125 
Q 47.40625 15.53125 47.40625 23.390625 
Q 47.40625 31.296875 43.53125 35.828125 
Q 39.65625 40.375 33.015625 40.375 
z
M 52.59375 71.296875 
L 52.59375 62.3125 
Q 48.875 64.0625 45.09375 64.984375 
Q 41.3125 65.921875 37.59375 65.921875 
Q 27.828125 65.921875 22.671875 59.328125 
Q 17.53125 52.734375 16.796875 39.40625 
Q 19.671875 43.65625 24.015625 45.921875 
Q 28.375 48.1875 33.59375 48.1875 
Q 44.578125 48.1875 50.953125 41.515625 
Q 57.328125 34.859375 57.328125 23.390625 
Q 57.328125 12.15625 50.6875 5.359375 
Q 44.046875 -1.421875 33.015625 -1.421875 
Q 20.359375 -1.421875 13.671875 8.265625 
Q 6.984375 17.96875 6.984375 36.375 
Q 6.984375 53.65625 15.1875 63.9375 
Q 23.390625 74.21875 37.203125 74.21875 
Q 40.921875 74.21875 44.703125 73.484375 
Q 48.484375 72.75 52.59375 71.296875 
z
" id="DejaVuSans-54"/>
      </defs>
      <g transform="translate(20.878125 104.946837)scale(0.1 -0.1)">
       <use xlink:href="#DejaVuSans-54"/>
       <use x="63.623047" xlink:href="#DejaVuSans-48"/>
       <use x="127.246094" xlink:href="#DejaVuSans-48"/>
       <use x="190.869141" xlink:href="#DejaVuSans-48"/>
       <use x="254.492188" xlink:href="#DejaVuSans-48"/>
       <use x="318.115234" xlink:href="#DejaVuSans-48"/>
      </g>
     </g>
    </g>
    <g id="ytick_5">
     <g id="line2d_45">
      <g>
       <use style="stroke:#000000;stroke-width:0.8;" x="66.053125" xlink:href="#mc5d084d59c" y="54.944116"/>
      </g>
     </g>
     <g id="text_46">
      <!-- 800000 -->
      <defs>
       <path d="M 31.78125 34.625 
Q 24.75 34.625 20.71875 30.859375 
Q 16.703125 27.09375 16.703125 20.515625 
Q 16.703125 13.921875 20.71875 10.15625 
Q 24.75 6.390625 31.78125 6.390625 
Q 38.8125 6.390625 42.859375 10.171875 
Q 46.921875 13.96875 46.921875 20.515625 
Q 46.921875 27.09375 42.890625 30.859375 
Q 38.875 34.625 31.78125 34.625 
z
M 21.921875 38.8125 
Q 15.578125 40.375 12.03125 44.71875 
Q 8.5 49.078125 8.5 55.328125 
Q 8.5 64.0625 14.71875 69.140625 
Q 20.953125 74.21875 31.78125 74.21875 
Q 42.671875 74.21875 48.875 69.140625 
Q 55.078125 64.0625 55.078125 55.328125 
Q 55.078125 49.078125 51.53125 44.71875 
Q 48 40.375 41.703125 38.8125 
Q 48.828125 37.15625 52.796875 32.3125 
Q 56.78125 27.484375 56.78125 20.515625 
Q 56.78125 9.90625 50.3125 4.234375 
Q 43.84375 -1.421875 31.78125 -1.421875 
Q 19.734375 -1.421875 13.25 4.234375 
Q 6.78125 9.90625 6.78125 20.515625 
Q 6.78125 27.484375 10.78125 32.3125 
Q 14.796875 37.15625 21.921875 38.8125 
z
M 18.3125 54.390625 
Q 18.3125 48.734375 21.84375 45.5625 
Q 25.390625 42.390625 31.78125 42.390625 
Q 38.140625 42.390625 41.71875 45.5625 
Q 45.3125 48.734375 45.3125 54.390625 
Q 45.3125 60.0625 41.71875 63.234375 
Q 38.140625 66.40625 31.78125 66.40625 
Q 25.390625 66.40625 21.84375 63.234375 
Q 18.3125 60.0625 18.3125 54.390625 
z
" id="DejaVuSans-56"/>
      </defs>
      <g transform="translate(20.878125 58.743335)scale(0.1 -0.1)">
       <use xlink:href="#DejaVuSans-56"/>
       <use x="63.623047" xlink:href="#DejaVuSans-48"/>
       <use x="127.246094" xlink:href="#DejaVuSans-48"/>
       <use x="190.869141" xlink:href="#DejaVuSans-48"/>
       <use x="254.492188" xlink:href="#DejaVuSans-48"/>
       <use x="318.115234" xlink:href="#DejaVuSans-48"/>
      </g>
     </g>
    </g>
    <g id="text_47">
     <!-- Count -->
     <defs>
      <path d="M 54.890625 33.015625 
L 54.890625 0 
L 45.90625 0 
L 45.90625 32.71875 
Q 45.90625 40.484375 42.875 44.328125 
Q 39.84375 48.1875 33.796875 48.1875 
Q 26.515625 48.1875 22.3125 43.546875 
Q 18.109375 38.921875 18.109375 30.90625 
L 18.109375 0 
L 9.078125 0 
L 9.078125 54.6875 
L 18.109375 54.6875 
L 18.109375 46.1875 
Q 21.34375 51.125 25.703125 53.5625 
Q 30.078125 56 35.796875 56 
Q 45.21875 56 50.046875 50.171875 
Q 54.890625 44.34375 54.890625 33.015625 
z
" id="DejaVuSans-110"/>
     </defs>
     <g transform="translate(14.798438 145.886563)rotate(-90)scale(0.1 -0.1)">
      <use xlink:href="#DejaVuSans-67"/>
      <use x="69.824219" xlink:href="#DejaVuSans-111"/>
      <use x="131.005859" xlink:href="#DejaVuSans-117"/>
      <use x="194.384766" xlink:href="#DejaVuSans-110"/>
      <use x="257.763672" xlink:href="#DejaVuSans-116"/>
     </g>
    </g>
   </g>
   <g id="patch_43">
    <path d="M 66.053125 239.758125 
L 66.053125 22.318125 
" style="fill:none;stroke:#000000;stroke-linecap:square;stroke-linejoin:miter;stroke-width:0.8;"/>
   </g>
   <g id="patch_44">
    <path d="M 400.853125 239.758125 
L 400.853125 22.318125 
" style="fill:none;stroke:#000000;stroke-linecap:square;stroke-linejoin:miter;stroke-width:0.8;"/>
   </g>
   <g id="patch_45">
    <path d="M 66.053125 239.758125 
L 400.853125 239.758125 
" style="fill:none;stroke:#000000;stroke-linecap:square;stroke-linejoin:miter;stroke-width:0.8;"/>
   </g>
   <g id="patch_46">
    <path d="M 66.053125 22.318125 
L 400.853125 22.318125 
" style="fill:none;stroke:#000000;stroke-linecap:square;stroke-linejoin:miter;stroke-width:0.8;"/>
   </g>
   <g id="text_48">
    <!-- Number of transactions for different types of products -->
    <defs>
     <path d="M 52 44.1875 
Q 55.375 50.25 60.0625 53.125 
Q 64.75 56 71.09375 56 
Q 79.640625 56 84.28125 50.015625 
Q 88.921875 44.046875 88.921875 33.015625 
L 88.921875 0 
L 79.890625 0 
L 79.890625 32.71875 
Q 79.890625 40.578125 77.09375 44.375 
Q 74.3125 48.1875 68.609375 48.1875 
Q 61.625 48.1875 57.5625 43.546875 
Q 53.515625 38.921875 53.515625 30.90625 
L 53.515625 0 
L 44.484375 0 
L 44.484375 32.71875 
Q 44.484375 40.625 41.703125 44.40625 
Q 38.921875 48.1875 33.109375 48.1875 
Q 26.21875 48.1875 22.15625 43.53125 
Q 18.109375 38.875 18.109375 30.90625 
L 18.109375 0 
L 9.078125 0 
L 9.078125 54.6875 
L 18.109375 54.6875 
L 18.109375 46.1875 
Q 21.1875 51.21875 25.484375 53.609375 
Q 29.78125 56 35.6875 56 
Q 41.65625 56 45.828125 52.96875 
Q 50 49.953125 52 44.1875 
z
" id="DejaVuSans-109"/>
     <path d="M 48.6875 27.296875 
Q 48.6875 37.203125 44.609375 42.84375 
Q 40.53125 48.484375 33.40625 48.484375 
Q 26.265625 48.484375 22.1875 42.84375 
Q 18.109375 37.203125 18.109375 27.296875 
Q 18.109375 17.390625 22.1875 11.75 
Q 26.265625 6.109375 33.40625 6.109375 
Q 40.53125 6.109375 44.609375 11.75 
Q 48.6875 17.390625 48.6875 27.296875 
z
M 18.109375 46.390625 
Q 20.953125 51.265625 25.265625 53.625 
Q 29.59375 56 35.59375 56 
Q 45.5625 56 51.78125 48.09375 
Q 58.015625 40.1875 58.015625 27.296875 
Q 58.015625 14.40625 51.78125 6.484375 
Q 45.5625 -1.421875 35.59375 -1.421875 
Q 29.59375 -1.421875 25.265625 0.953125 
Q 20.953125 3.328125 18.109375 8.203125 
L 18.109375 0 
L 9.078125 0 
L 9.078125 75.984375 
L 18.109375 75.984375 
z
" id="DejaVuSans-98"/>
     <path d="M 37.109375 75.984375 
L 37.109375 68.5 
L 28.515625 68.5 
Q 23.6875 68.5 21.796875 66.546875 
Q 19.921875 64.59375 19.921875 59.515625 
L 19.921875 54.6875 
L 34.71875 54.6875 
L 34.71875 47.703125 
L 19.921875 47.703125 
L 19.921875 0 
L 10.890625 0 
L 10.890625 47.703125 
L 2.296875 47.703125 
L 2.296875 54.6875 
L 10.890625 54.6875 
L 10.890625 58.5 
Q 10.890625 67.625 15.140625 71.796875 
Q 19.390625 75.984375 28.609375 75.984375 
z
" id="DejaVuSans-102"/>
     <path d="M 34.28125 27.484375 
Q 23.390625 27.484375 19.1875 25 
Q 14.984375 22.515625 14.984375 16.5 
Q 14.984375 11.71875 18.140625 8.90625 
Q 21.296875 6.109375 26.703125 6.109375 
Q 34.1875 6.109375 38.703125 11.40625 
Q 43.21875 16.703125 43.21875 25.484375 
L 43.21875 27.484375 
z
M 52.203125 31.203125 
L 52.203125 0 
L 43.21875 0 
L 43.21875 8.296875 
Q 40.140625 3.328125 35.546875 0.953125 
Q 30.953125 -1.421875 24.3125 -1.421875 
Q 15.921875 -1.421875 10.953125 3.296875 
Q 6 8.015625 6 15.921875 
Q 6 25.140625 12.171875 29.828125 
Q 18.359375 34.515625 30.609375 34.515625 
L 43.21875 34.515625 
L 43.21875 35.40625 
Q 43.21875 41.609375 39.140625 45 
Q 35.0625 48.390625 27.6875 48.390625 
Q 23 48.390625 18.546875 47.265625 
Q 14.109375 46.140625 10.015625 43.890625 
L 10.015625 52.203125 
Q 14.9375 54.109375 19.578125 55.046875 
Q 24.21875 56 28.609375 56 
Q 40.484375 56 46.34375 49.84375 
Q 52.203125 43.703125 52.203125 31.203125 
z
" id="DejaVuSans-97"/>
     <path d="M 44.28125 53.078125 
L 44.28125 44.578125 
Q 40.484375 46.53125 36.375 47.5 
Q 32.28125 48.484375 27.875 48.484375 
Q 21.1875 48.484375 17.84375 46.4375 
Q 14.5 44.390625 14.5 40.28125 
Q 14.5 37.15625 16.890625 35.375 
Q 19.28125 33.59375 26.515625 31.984375 
L 29.59375 31.296875 
Q 39.15625 29.25 43.1875 25.515625 
Q 47.21875 21.78125 47.21875 15.09375 
Q 47.21875 7.46875 41.1875 3.015625 
Q 35.15625 -1.421875 24.609375 -1.421875 
Q 20.21875 -1.421875 15.453125 -0.5625 
Q 10.6875 0.296875 5.421875 2 
L 5.421875 11.28125 
Q 10.40625 8.6875 15.234375 7.390625 
Q 20.0625 6.109375 24.8125 6.109375 
Q 31.15625 6.109375 34.5625 8.28125 
Q 37.984375 10.453125 37.984375 14.40625 
Q 37.984375 18.0625 35.515625 20.015625 
Q 33.0625 21.96875 24.703125 23.78125 
L 21.578125 24.515625 
Q 13.234375 26.265625 9.515625 29.90625 
Q 5.8125 33.546875 5.8125 39.890625 
Q 5.8125 47.609375 11.28125 51.796875 
Q 16.75 56 26.8125 56 
Q 31.78125 56 36.171875 55.265625 
Q 40.578125 54.546875 44.28125 53.078125 
z
" id="DejaVuSans-115"/>
     <path d="M 9.421875 54.6875 
L 18.40625 54.6875 
L 18.40625 0 
L 9.421875 0 
z
M 9.421875 75.984375 
L 18.40625 75.984375 
L 18.40625 64.59375 
L 9.421875 64.59375 
z
" id="DejaVuSans-105"/>
    </defs>
    <g transform="translate(70.6 16.318125)scale(0.12 -0.12)">
     <use xlink:href="#DejaVuSans-78"/>
     <use x="74.804688" xlink:href="#DejaVuSans-117"/>
     <use x="138.183594" xlink:href="#DejaVuSans-109"/>
     <use x="235.595703" xlink:href="#DejaVuSans-98"/>
     <use x="299.072266" xlink:href="#DejaVuSans-101"/>
     <use x="360.595703" xlink:href="#DejaVuSans-114"/>
     <use x="401.708984" xlink:href="#DejaVuSans-32"/>
     <use x="433.496094" xlink:href="#DejaVuSans-111"/>
     <use x="494.677734" xlink:href="#DejaVuSans-102"/>
     <use x="529.882812" xlink:href="#DejaVuSans-32"/>
     <use x="561.669922" xlink:href="#DejaVuSans-116"/>
     <use x="600.878906" xlink:href="#DejaVuSans-114"/>
     <use x="641.992188" xlink:href="#DejaVuSans-97"/>
     <use x="703.271484" xlink:href="#DejaVuSans-110"/>
     <use x="766.650391" xlink:href="#DejaVuSans-115"/>
     <use x="818.75" xlink:href="#DejaVuSans-97"/>
     <use x="880.029297" xlink:href="#DejaVuSans-99"/>
     <use x="935.009766" xlink:href="#DejaVuSans-116"/>
     <use x="974.21875" xlink:href="#DejaVuSans-105"/>
     <use x="1002.001953" xlink:href="#DejaVuSans-111"/>
     <use x="1063.183594" xlink:href="#DejaVuSans-110"/>
     <use x="1126.5625" xlink:href="#DejaVuSans-115"/>
     <use x="1178.662109" xlink:href="#DejaVuSans-32"/>
     <use x="1210.449219" xlink:href="#DejaVuSans-102"/>
     <use x="1245.654297" xlink:href="#DejaVuSans-111"/>
     <use x="1306.835938" xlink:href="#DejaVuSans-114"/>
     <use x="1347.949219" xlink:href="#DejaVuSans-32"/>
     <use x="1379.736328" xlink:href="#DejaVuSans-100"/>
     <use x="1443.212891" xlink:href="#DejaVuSans-105"/>
     <use x="1470.996094" xlink:href="#DejaVuSans-102"/>
     <use x="1506.201172" xlink:href="#DejaVuSans-102"/>
     <use x="1541.40625" xlink:href="#DejaVuSans-101"/>
     <use x="1602.929688" xlink:href="#DejaVuSans-114"/>
     <use x="1644.011719" xlink:href="#DejaVuSans-101"/>
     <use x="1705.535156" xlink:href="#DejaVuSans-110"/>
     <use x="1768.914062" xlink:href="#DejaVuSans-116"/>
     <use x="1808.123047" xlink:href="#DejaVuSans-32"/>
     <use x="1839.910156" xlink:href="#DejaVuSans-116"/>
     <use x="1879.119141" xlink:href="#DejaVuSans-121"/>
     <use x="1938.298828" xlink:href="#DejaVuSans-112"/>
     <use x="2001.775391" xlink:href="#DejaVuSans-101"/>
     <use x="2063.298828" xlink:href="#DejaVuSans-115"/>
     <use x="2115.398438" xlink:href="#DejaVuSans-32"/>
     <use x="2147.185547" xlink:href="#DejaVuSans-111"/>
     <use x="2208.367188" xlink:href="#DejaVuSans-102"/>
     <use x="2243.572266" xlink:href="#DejaVuSans-32"/>
     <use x="2275.359375" xlink:href="#DejaVuSans-112"/>
     <use x="2338.835938" xlink:href="#DejaVuSans-114"/>
     <use x="2379.917969" xlink:href="#DejaVuSans-111"/>
     <use x="2441.099609" xlink:href="#DejaVuSans-100"/>
     <use x="2504.576172" xlink:href="#DejaVuSans-117"/>
     <use x="2567.955078" xlink:href="#DejaVuSans-99"/>
     <use x="2622.935547" xlink:href="#DejaVuSans-116"/>
     <use x="2662.144531" xlink:href="#DejaVuSans-115"/>
    </g>
   </g>
  </g>
 </g>
 <defs>
  <clipPath id="pd5c7b69c2d">
   <rect height="217.44" width="334.8" x="66.053125" y="22.318125"/>
  </clipPath>
 </defs>
</svg>
