<?xml version="1.0" encoding="utf-8" standalone="no"?>
<!DOCTYPE svg PUBLIC "-//W3C//DTD SVG 1.1//EN"
  "http://www.w3.org/Graphics/SVG/1.1/DTD/svg11.dtd">
<!-- Created with matplotlib (https://matplotlib.org/) -->
<svg height="277.314375pt" version="1.1" viewBox="0 0 395.328125 277.314375" width="395.328125pt" xmlns="http://www.w3.org/2000/svg" xmlns:xlink="http://www.w3.org/1999/xlink">
 <defs>
  <style type="text/css">
*{stroke-linecap:butt;stroke-linejoin:round;}
  </style>
 </defs>
 <g id="figure_1">
  <g id="patch_1">
   <path d="M 0 277.314375 
L 395.328125 277.314375 
L 395.328125 0 
L 0 0 
z
" style="fill:none;"/>
  </g>
  <g id="axes_1">
   <g id="patch_2">
    <path d="M 53.328125 239.758125 
L 388.128125 239.758125 
L 388.128125 22.318125 
L 53.328125 22.318125 
z
" style="fill:#ffffff;"/>
   </g>
   <g id="patch_3">
    <path clip-path="url(#pa6cd9e7a3a)" d="M 68.546307 239.758125 
L 78.777017 239.758125 
L 78.777017 225.60902 
L 68.546307 225.60902 
z
" style="fill:#1f77b4;opacity:0.5;"/>
   </g>
   <g id="patch_4">
    <path clip-path="url(#pa6cd9e7a3a)" d="M 81.334695 239.758125 
L 91.565405 239.758125 
L 91.565405 232.662548 
L 81.334695 232.662548 
z
" style="fill:#1f77b4;opacity:0.5;"/>
   </g>
   <g id="patch_5">
    <path clip-path="url(#pa6cd9e7a3a)" d="M 94.123083 239.758125 
L 104.353793 239.758125 
L 104.353793 231.800567 
L 94.123083 231.800567 
z
" style="fill:#1f77b4;opacity:0.5;"/>
   </g>
   <g id="patch_6">
    <path clip-path="url(#pa6cd9e7a3a)" d="M 106.911471 239.758125 
L 117.142182 239.758125 
L 117.142182 236.373272 
L 106.911471 236.373272 
z
" style="fill:#1f77b4;opacity:0.5;"/>
   </g>
   <g id="patch_7">
    <path clip-path="url(#pa6cd9e7a3a)" d="M 119.699859 239.758125 
L 129.93057 239.758125 
L 129.93057 237.130134 
L 119.699859 237.130134 
z
" style="fill:#1f77b4;opacity:0.5;"/>
   </g>
   <g id="patch_8">
    <path clip-path="url(#pa6cd9e7a3a)" d="M 132.488247 239.758125 
L 142.718958 239.758125 
L 142.718958 234.533678 
L 132.488247 234.533678 
z
" style="fill:#1f77b4;opacity:0.5;"/>
   </g>
   <g id="patch_9">
    <path clip-path="url(#pa6cd9e7a3a)" d="M 145.276635 239.758125 
L 155.507346 239.758125 
L 155.507346 224.042737 
L 145.276635 224.042737 
z
" style="fill:#1f77b4;opacity:0.5;"/>
   </g>
   <g id="patch_10">
    <path clip-path="url(#pa6cd9e7a3a)" d="M 158.065023 239.758125 
L 168.295734 239.758125 
L 168.295734 209.39957 
L 158.065023 209.39957 
z
" style="fill:#1f77b4;opacity:0.5;"/>
   </g>
   <g id="patch_11">
    <path clip-path="url(#pa6cd9e7a3a)" d="M 170.853411 239.758125 
L 181.084122 239.758125 
L 181.084122 197.489513 
L 170.853411 197.489513 
z
" style="fill:#1f77b4;opacity:0.5;"/>
   </g>
   <g id="patch_12">
    <path clip-path="url(#pa6cd9e7a3a)" d="M 183.6418 239.758125 
L 193.87251 239.758125 
L 193.87251 183.99215 
L 183.6418 183.99215 
z
" style="fill:#1f77b4;opacity:0.5;"/>
   </g>
   <g id="patch_13">
    <path clip-path="url(#pa6cd9e7a3a)" d="M 196.430188 239.758125 
L 206.660898 239.758125 
L 206.660898 158.847529 
L 196.430188 158.847529 
z
" style="fill:#1f77b4;opacity:0.5;"/>
   </g>
   <g id="patch_14">
    <path clip-path="url(#pa6cd9e7a3a)" d="M 209.218576 239.758125 
L 219.449286 239.758125 
L 219.449286 133.545229 
L 209.218576 133.545229 
z
" style="fill:#1f77b4;opacity:0.5;"/>
   </g>
   <g id="patch_15">
    <path clip-path="url(#pa6cd9e7a3a)" d="M 222.006964 239.758125 
L 232.237674 239.758125 
L 232.237674 117.146563 
L 222.006964 117.146563 
z
" style="fill:#1f77b4;opacity:0.5;"/>
   </g>
   <g id="patch_16">
    <path clip-path="url(#pa6cd9e7a3a)" d="M 234.795352 239.758125 
L 245.026062 239.758125 
L 245.026062 112.58437 
L 234.795352 112.58437 
z
" style="fill:#1f77b4;opacity:0.5;"/>
   </g>
   <g id="patch_17">
    <path clip-path="url(#pa6cd9e7a3a)" d="M 247.58374 239.758125 
L 257.81445 239.758125 
L 257.81445 107.906546 
L 247.58374 107.906546 
z
" style="fill:#1f77b4;opacity:0.5;"/>
   </g>
   <g id="patch_18">
    <path clip-path="url(#pa6cd9e7a3a)" d="M 260.372128 239.758125 
L 270.602839 239.758125 
L 270.602839 90.656411 
L 260.372128 90.656411 
z
" style="fill:#1f77b4;opacity:0.5;"/>
   </g>
   <g id="patch_19">
    <path clip-path="url(#pa6cd9e7a3a)" d="M 273.160516 239.758125 
L 283.391227 239.758125 
L 283.391227 61.096765 
L 273.160516 61.096765 
z
" style="fill:#1f77b4;opacity:0.5;"/>
   </g>
   <g id="patch_20">
    <path clip-path="url(#pa6cd9e7a3a)" d="M 285.948904 239.758125 
L 296.179615 239.758125 
L 296.179615 34.049478 
L 285.948904 34.049478 
z
" style="fill:#1f77b4;opacity:0.5;"/>
   </g>
   <g id="patch_21">
    <path clip-path="url(#pa6cd9e7a3a)" d="M 298.737292 239.758125 
L 308.968003 239.758125 
L 308.968003 44.529907 
L 298.737292 44.529907 
z
" style="fill:#1f77b4;opacity:0.5;"/>
   </g>
   <g id="patch_22">
    <path clip-path="url(#pa6cd9e7a3a)" d="M 311.52568 239.758125 
L 321.756391 239.758125 
L 321.756391 73.080405 
L 311.52568 73.080405 
z
" style="fill:#1f77b4;opacity:0.5;"/>
   </g>
   <g id="patch_23">
    <path clip-path="url(#pa6cd9e7a3a)" d="M 324.314068 239.758125 
L 334.544779 239.758125 
L 334.544779 104.427085 
L 324.314068 104.427085 
z
" style="fill:#1f77b4;opacity:0.5;"/>
   </g>
   <g id="patch_24">
    <path clip-path="url(#pa6cd9e7a3a)" d="M 337.102457 239.758125 
L 347.333167 239.758125 
L 347.333167 137.970766 
L 337.102457 137.970766 
z
" style="fill:#1f77b4;opacity:0.5;"/>
   </g>
   <g id="patch_25">
    <path clip-path="url(#pa6cd9e7a3a)" d="M 349.890845 239.758125 
L 360.121555 239.758125 
L 360.121555 176.18176 
L 349.890845 176.18176 
z
" style="fill:#1f77b4;opacity:0.5;"/>
   </g>
   <g id="patch_26">
    <path clip-path="url(#pa6cd9e7a3a)" d="M 362.679233 239.758125 
L 372.909943 239.758125 
L 372.909943 208.5481 
L 362.679233 208.5481 
z
" style="fill:#1f77b4;opacity:0.5;"/>
   </g>
   <g id="patch_27">
    <path clip-path="url(#pa6cd9e7a3a)" d="M 68.546307 239.758125 
L 78.777017 239.758125 
L 78.777017 221.204506 
L 68.546307 221.204506 
z
" style="fill:#ff7f0e;opacity:0.5;"/>
   </g>
   <g id="patch_28">
    <path clip-path="url(#pa6cd9e7a3a)" d="M 81.334695 239.758125 
L 91.565405 239.758125 
L 91.565405 231.269713 
L 81.334695 231.269713 
z
" style="fill:#ff7f0e;opacity:0.5;"/>
   </g>
   <g id="patch_29">
    <path clip-path="url(#pa6cd9e7a3a)" d="M 94.123083 239.758125 
L 104.353793 239.758125 
L 104.353793 230.271076 
L 94.123083 230.271076 
z
" style="fill:#ff7f0e;opacity:0.5;"/>
   </g>
   <g id="patch_30">
    <path clip-path="url(#pa6cd9e7a3a)" d="M 106.911471 239.758125 
L 117.142182 239.758125 
L 117.142182 235.31682 
L 106.911471 235.31682 
z
" style="fill:#ff7f0e;opacity:0.5;"/>
   </g>
   <g id="patch_31">
    <path clip-path="url(#pa6cd9e7a3a)" d="M 119.699859 239.758125 
L 129.93057 239.758125 
L 129.93057 236.551976 
L 119.699859 236.551976 
z
" style="fill:#ff7f0e;opacity:0.5;"/>
   </g>
   <g id="patch_32">
    <path clip-path="url(#pa6cd9e7a3a)" d="M 132.488247 239.758125 
L 142.718958 239.758125 
L 142.718958 236.026377 
L 132.488247 236.026377 
z
" style="fill:#ff7f0e;opacity:0.5;"/>
   </g>
   <g id="patch_33">
    <path clip-path="url(#pa6cd9e7a3a)" d="M 145.276635 239.758125 
L 155.507346 239.758125 
L 155.507346 230.428756 
L 145.276635 230.428756 
z
" style="fill:#ff7f0e;opacity:0.5;"/>
   </g>
   <g id="patch_34">
    <path clip-path="url(#pa6cd9e7a3a)" d="M 158.065023 239.758125 
L 168.295734 239.758125 
L 168.295734 216.263883 
L 158.065023 216.263883 
z
" style="fill:#ff7f0e;opacity:0.5;"/>
   </g>
   <g id="patch_35">
    <path clip-path="url(#pa6cd9e7a3a)" d="M 170.853411 239.758125 
L 181.084122 239.758125 
L 181.084122 196.711628 
L 170.853411 196.711628 
z
" style="fill:#ff7f0e;opacity:0.5;"/>
   </g>
   <g id="patch_36">
    <path clip-path="url(#pa6cd9e7a3a)" d="M 183.6418 239.758125 
L 193.87251 239.758125 
L 193.87251 162.968219 
L 183.6418 162.968219 
z
" style="fill:#ff7f0e;opacity:0.5;"/>
   </g>
   <g id="patch_37">
    <path clip-path="url(#pa6cd9e7a3a)" d="M 196.430188 239.758125 
L 206.660898 239.758125 
L 206.660898 125.808422 
L 196.430188 125.808422 
z
" style="fill:#ff7f0e;opacity:0.5;"/>
   </g>
   <g id="patch_38">
    <path clip-path="url(#pa6cd9e7a3a)" d="M 209.218576 239.758125 
L 219.449286 239.758125 
L 219.449286 83.997081 
L 209.218576 83.997081 
z
" style="fill:#ff7f0e;opacity:0.5;"/>
   </g>
   <g id="patch_39">
    <path clip-path="url(#pa6cd9e7a3a)" d="M 222.006964 239.758125 
L 232.237674 239.758125 
L 232.237674 59.661881 
L 222.006964 59.661881 
z
" style="fill:#ff7f0e;opacity:0.5;"/>
   </g>
   <g id="patch_40">
    <path clip-path="url(#pa6cd9e7a3a)" d="M 234.795352 239.758125 
L 245.026062 239.758125 
L 245.026062 49.990873 
L 234.795352 49.990873 
z
" style="fill:#ff7f0e;opacity:0.5;"/>
   </g>
   <g id="patch_41">
    <path clip-path="url(#pa6cd9e7a3a)" d="M 247.58374 239.758125 
L 257.81445 239.758125 
L 257.81445 47.809641 
L 247.58374 47.809641 
z
" style="fill:#ff7f0e;opacity:0.5;"/>
   </g>
   <g id="patch_42">
    <path clip-path="url(#pa6cd9e7a3a)" d="M 260.372128 239.758125 
L 270.602839 239.758125 
L 270.602839 44.156733 
L 260.372128 44.156733 
z
" style="fill:#ff7f0e;opacity:0.5;"/>
   </g>
   <g id="patch_43">
    <path clip-path="url(#pa6cd9e7a3a)" d="M 273.160516 239.758125 
L 283.391227 239.758125 
L 283.391227 32.672411 
L 273.160516 32.672411 
z
" style="fill:#ff7f0e;opacity:0.5;"/>
   </g>
   <g id="patch_44">
    <path clip-path="url(#pa6cd9e7a3a)" d="M 285.948904 239.758125 
L 296.179615 239.758125 
L 296.179615 32.75125 
L 285.948904 32.75125 
z
" style="fill:#ff7f0e;opacity:0.5;"/>
   </g>
   <g id="patch_45">
    <path clip-path="url(#pa6cd9e7a3a)" d="M 298.737292 239.758125 
L 308.968003 239.758125 
L 308.968003 51.593948 
L 298.737292 51.593948 
z
" style="fill:#ff7f0e;opacity:0.5;"/>
   </g>
   <g id="patch_46">
    <path clip-path="url(#pa6cd9e7a3a)" d="M 311.52568 239.758125 
L 321.756391 239.758125 
L 321.756391 78.635979 
L 311.52568 78.635979 
z
" style="fill:#ff7f0e;opacity:0.5;"/>
   </g>
   <g id="patch_47">
    <path clip-path="url(#pa6cd9e7a3a)" d="M 324.314068 239.758125 
L 334.544779 239.758125 
L 334.544779 110.382113 
L 324.314068 110.382113 
z
" style="fill:#ff7f0e;opacity:0.5;"/>
   </g>
   <g id="patch_48">
    <path clip-path="url(#pa6cd9e7a3a)" d="M 337.102457 239.758125 
L 347.333167 239.758125 
L 347.333167 142.417327 
L 337.102457 142.417327 
z
" style="fill:#ff7f0e;opacity:0.5;"/>
   </g>
   <g id="patch_49">
    <path clip-path="url(#pa6cd9e7a3a)" d="M 349.890845 239.758125 
L 360.121555 239.758125 
L 360.121555 176.213295 
L 349.890845 176.213295 
z
" style="fill:#ff7f0e;opacity:0.5;"/>
   </g>
   <g id="patch_50">
    <path clip-path="url(#pa6cd9e7a3a)" d="M 362.679233 239.758125 
L 372.909943 239.758125 
L 372.909943 206.592875 
L 362.679233 206.592875 
z
" style="fill:#ff7f0e;opacity:0.5;"/>
   </g>
   <g id="matplotlib.axis_1">
    <g id="xtick_1">
     <g id="line2d_1">
      <defs>
       <path d="M 0 0 
L 0 3.5 
" id="mfa2317d26a" style="stroke:#000000;stroke-width:0.8;"/>
      </defs>
      <g>
       <use style="stroke:#000000;stroke-width:0.8;" x="73.661662" xlink:href="#mfa2317d26a" y="239.758125"/>
      </g>
     </g>
     <g id="text_1">
      <!-- 0 -->
      <defs>
       <path d="M 31.78125 66.40625 
Q 24.171875 66.40625 20.328125 58.90625 
Q 16.5 51.421875 16.5 36.375 
Q 16.5 21.390625 20.328125 13.890625 
Q 24.171875 6.390625 31.78125 6.390625 
Q 39.453125 6.390625 43.28125 13.890625 
Q 47.125 21.390625 47.125 36.375 
Q 47.125 51.421875 43.28125 58.90625 
Q 39.453125 66.40625 31.78125 66.40625 
z
M 31.78125 74.21875 
Q 44.046875 74.21875 50.515625 64.515625 
Q 56.984375 54.828125 56.984375 36.375 
Q 56.984375 17.96875 50.515625 8.265625 
Q 44.046875 -1.421875 31.78125 -1.421875 
Q 19.53125 -1.421875 13.0625 8.265625 
Q 6.59375 17.96875 6.59375 36.375 
Q 6.59375 54.828125 13.0625 64.515625 
Q 19.53125 74.21875 31.78125 74.21875 
z
" id="DejaVuSans-48"/>
      </defs>
      <g transform="translate(70.480412 254.356562)scale(0.1 -0.1)">
       <use xlink:href="#DejaVuSans-48"/>
      </g>
     </g>
    </g>
    <g id="xtick_2">
     <g id="line2d_2">
      <g>
       <use style="stroke:#000000;stroke-width:0.8;" x="137.603602" xlink:href="#mfa2317d26a" y="239.758125"/>
      </g>
     </g>
     <g id="text_2">
      <!-- 5 -->
      <defs>
       <path d="M 10.796875 72.90625 
L 49.515625 72.90625 
L 49.515625 64.59375 
L 19.828125 64.59375 
L 19.828125 46.734375 
Q 21.96875 47.46875 24.109375 47.828125 
Q 26.265625 48.1875 28.421875 48.1875 
Q 40.625 48.1875 47.75 41.5 
Q 54.890625 34.8125 54.890625 23.390625 
Q 54.890625 11.625 47.5625 5.09375 
Q 40.234375 -1.421875 26.90625 -1.421875 
Q 22.3125 -1.421875 17.546875 -0.640625 
Q 12.796875 0.140625 7.71875 1.703125 
L 7.71875 11.625 
Q 12.109375 9.234375 16.796875 8.0625 
Q 21.484375 6.890625 26.703125 6.890625 
Q 35.15625 6.890625 40.078125 11.328125 
Q 45.015625 15.765625 45.015625 23.390625 
Q 45.015625 31 40.078125 35.4375 
Q 35.15625 39.890625 26.703125 39.890625 
Q 22.75 39.890625 18.8125 39.015625 
Q 14.890625 38.140625 10.796875 36.28125 
z
" id="DejaVuSans-53"/>
      </defs>
      <g transform="translate(134.422352 254.356562)scale(0.1 -0.1)">
       <use xlink:href="#DejaVuSans-53"/>
      </g>
     </g>
    </g>
    <g id="xtick_3">
     <g id="line2d_3">
      <g>
       <use style="stroke:#000000;stroke-width:0.8;" x="201.545543" xlink:href="#mfa2317d26a" y="239.758125"/>
      </g>
     </g>
     <g id="text_3">
      <!-- 10 -->
      <defs>
       <path d="M 12.40625 8.296875 
L 28.515625 8.296875 
L 28.515625 63.921875 
L 10.984375 60.40625 
L 10.984375 69.390625 
L 28.421875 72.90625 
L 38.28125 72.90625 
L 38.28125 8.296875 
L 54.390625 8.296875 
L 54.390625 0 
L 12.40625 0 
z
" id="DejaVuSans-49"/>
      </defs>
      <g transform="translate(195.183043 254.356562)scale(0.1 -0.1)">
       <use xlink:href="#DejaVuSans-49"/>
       <use x="63.623047" xlink:href="#DejaVuSans-48"/>
      </g>
     </g>
    </g>
    <g id="xtick_4">
     <g id="line2d_4">
      <g>
       <use style="stroke:#000000;stroke-width:0.8;" x="265.487483" xlink:href="#mfa2317d26a" y="239.758125"/>
      </g>
     </g>
     <g id="text_4">
      <!-- 15 -->
      <g transform="translate(259.124983 254.356562)scale(0.1 -0.1)">
       <use xlink:href="#DejaVuSans-49"/>
       <use x="63.623047" xlink:href="#DejaVuSans-53"/>
      </g>
     </g>
    </g>
    <g id="xtick_5">
     <g id="line2d_5">
      <g>
       <use style="stroke:#000000;stroke-width:0.8;" x="329.429424" xlink:href="#mfa2317d26a" y="239.758125"/>
      </g>
     </g>
     <g id="text_5">
      <!-- 20 -->
      <defs>
       <path d="M 19.1875 8.296875 
L 53.609375 8.296875 
L 53.609375 0 
L 7.328125 0 
L 7.328125 8.296875 
Q 12.9375 14.109375 22.625 23.890625 
Q 32.328125 33.6875 34.8125 36.53125 
Q 39.546875 41.84375 41.421875 45.53125 
Q 43.3125 49.21875 43.3125 52.78125 
Q 43.3125 58.59375 39.234375 62.25 
Q 35.15625 65.921875 28.609375 65.921875 
Q 23.96875 65.921875 18.8125 64.3125 
Q 13.671875 62.703125 7.8125 59.421875 
L 7.8125 69.390625 
Q 13.765625 71.78125 18.9375 73 
Q 24.125 74.21875 28.421875 74.21875 
Q 39.75 74.21875 46.484375 68.546875 
Q 53.21875 62.890625 53.21875 53.421875 
Q 53.21875 48.921875 51.53125 44.890625 
Q 49.859375 40.875 45.40625 35.40625 
Q 44.1875 33.984375 37.640625 27.21875 
Q 31.109375 20.453125 19.1875 8.296875 
z
" id="DejaVuSans-50"/>
      </defs>
      <g transform="translate(323.066924 254.356562)scale(0.1 -0.1)">
       <use xlink:href="#DejaVuSans-50"/>
       <use x="63.623047" xlink:href="#DejaVuSans-48"/>
      </g>
     </g>
    </g>
    <g id="text_6">
     <!-- Transaction hour -->
     <defs>
      <path d="M -0.296875 72.90625 
L 61.375 72.90625 
L 61.375 64.59375 
L 35.5 64.59375 
L 35.5 0 
L 25.59375 0 
L 25.59375 64.59375 
L -0.296875 64.59375 
z
" id="DejaVuSans-84"/>
      <path d="M 41.109375 46.296875 
Q 39.59375 47.171875 37.8125 47.578125 
Q 36.03125 48 33.890625 48 
Q 26.265625 48 22.1875 43.046875 
Q 18.109375 38.09375 18.109375 28.8125 
L 18.109375 0 
L 9.078125 0 
L 9.078125 54.6875 
L 18.109375 54.6875 
L 18.109375 46.1875 
Q 20.953125 51.171875 25.484375 53.578125 
Q 30.03125 56 36.53125 56 
Q 37.453125 56 38.578125 55.875 
Q 39.703125 55.765625 41.0625 55.515625 
z
" id="DejaVuSans-114"/>
      <path d="M 34.28125 27.484375 
Q 23.390625 27.484375 19.1875 25 
Q 14.984375 22.515625 14.984375 16.5 
Q 14.984375 11.71875 18.140625 8.90625 
Q 21.296875 6.109375 26.703125 6.109375 
Q 34.1875 6.109375 38.703125 11.40625 
Q 43.21875 16.703125 43.21875 25.484375 
L 43.21875 27.484375 
z
M 52.203125 31.203125 
L 52.203125 0 
L 43.21875 0 
L 43.21875 8.296875 
Q 40.140625 3.328125 35.546875 0.953125 
Q 30.953125 -1.421875 24.3125 -1.421875 
Q 15.921875 -1.421875 10.953125 3.296875 
Q 6 8.015625 6 15.921875 
Q 6 25.140625 12.171875 29.828125 
Q 18.359375 34.515625 30.609375 34.515625 
L 43.21875 34.515625 
L 43.21875 35.40625 
Q 43.21875 41.609375 39.140625 45 
Q 35.0625 48.390625 27.6875 48.390625 
Q 23 48.390625 18.546875 47.265625 
Q 14.109375 46.140625 10.015625 43.890625 
L 10.015625 52.203125 
Q 14.9375 54.109375 19.578125 55.046875 
Q 24.21875 56 28.609375 56 
Q 40.484375 56 46.34375 49.84375 
Q 52.203125 43.703125 52.203125 31.203125 
z
" id="DejaVuSans-97"/>
      <path d="M 54.890625 33.015625 
L 54.890625 0 
L 45.90625 0 
L 45.90625 32.71875 
Q 45.90625 40.484375 42.875 44.328125 
Q 39.84375 48.1875 33.796875 48.1875 
Q 26.515625 48.1875 22.3125 43.546875 
Q 18.109375 38.921875 18.109375 30.90625 
L 18.109375 0 
L 9.078125 0 
L 9.078125 54.6875 
L 18.109375 54.6875 
L 18.109375 46.1875 
Q 21.34375 51.125 25.703125 53.5625 
Q 30.078125 56 35.796875 56 
Q 45.21875 56 50.046875 50.171875 
Q 54.890625 44.34375 54.890625 33.015625 
z
" id="DejaVuSans-110"/>
      <path d="M 44.28125 53.078125 
L 44.28125 44.578125 
Q 40.484375 46.53125 36.375 47.5 
Q 32.28125 48.484375 27.875 48.484375 
Q 21.1875 48.484375 17.84375 46.4375 
Q 14.5 44.390625 14.5 40.28125 
Q 14.5 37.15625 16.890625 35.375 
Q 19.28125 33.59375 26.515625 31.984375 
L 29.59375 31.296875 
Q 39.15625 29.25 43.1875 25.515625 
Q 47.21875 21.78125 47.21875 15.09375 
Q 47.21875 7.46875 41.1875 3.015625 
Q 35.15625 -1.421875 24.609375 -1.421875 
Q 20.21875 -1.421875 15.453125 -0.5625 
Q 10.6875 0.296875 5.421875 2 
L 5.421875 11.28125 
Q 10.40625 8.6875 15.234375 7.390625 
Q 20.0625 6.109375 24.8125 6.109375 
Q 31.15625 6.109375 34.5625 8.28125 
Q 37.984375 10.453125 37.984375 14.40625 
Q 37.984375 18.0625 35.515625 20.015625 
Q 33.0625 21.96875 24.703125 23.78125 
L 21.578125 24.515625 
Q 13.234375 26.265625 9.515625 29.90625 
Q 5.8125 33.546875 5.8125 39.890625 
Q 5.8125 47.609375 11.28125 51.796875 
Q 16.75 56 26.8125 56 
Q 31.78125 56 36.171875 55.265625 
Q 40.578125 54.546875 44.28125 53.078125 
z
" id="DejaVuSans-115"/>
      <path d="M 48.78125 52.59375 
L 48.78125 44.1875 
Q 44.96875 46.296875 41.140625 47.34375 
Q 37.3125 48.390625 33.40625 48.390625 
Q 24.65625 48.390625 19.8125 42.84375 
Q 14.984375 37.3125 14.984375 27.296875 
Q 14.984375 17.28125 19.8125 11.734375 
Q 24.65625 6.203125 33.40625 6.203125 
Q 37.3125 6.203125 41.140625 7.25 
Q 44.96875 8.296875 48.78125 10.40625 
L 48.78125 2.09375 
Q 45.015625 0.34375 40.984375 -0.53125 
Q 36.96875 -1.421875 32.421875 -1.421875 
Q 20.0625 -1.421875 12.78125 6.34375 
Q 5.515625 14.109375 5.515625 27.296875 
Q 5.515625 40.671875 12.859375 48.328125 
Q 20.21875 56 33.015625 56 
Q 37.15625 56 41.109375 55.140625 
Q 45.0625 54.296875 48.78125 52.59375 
z
" id="DejaVuSans-99"/>
      <path d="M 18.3125 70.21875 
L 18.3125 54.6875 
L 36.8125 54.6875 
L 36.8125 47.703125 
L 18.3125 47.703125 
L 18.3125 18.015625 
Q 18.3125 11.328125 20.140625 9.421875 
Q 21.96875 7.515625 27.59375 7.515625 
L 36.8125 7.515625 
L 36.8125 0 
L 27.59375 0 
Q 17.1875 0 13.234375 3.875 
Q 9.28125 7.765625 9.28125 18.015625 
L 9.28125 47.703125 
L 2.6875 47.703125 
L 2.6875 54.6875 
L 9.28125 54.6875 
L 9.28125 70.21875 
z
" id="DejaVuSans-116"/>
      <path d="M 9.421875 54.6875 
L 18.40625 54.6875 
L 18.40625 0 
L 9.421875 0 
z
M 9.421875 75.984375 
L 18.40625 75.984375 
L 18.40625 64.59375 
L 9.421875 64.59375 
z
" id="DejaVuSans-105"/>
      <path d="M 30.609375 48.390625 
Q 23.390625 48.390625 19.1875 42.75 
Q 14.984375 37.109375 14.984375 27.296875 
Q 14.984375 17.484375 19.15625 11.84375 
Q 23.34375 6.203125 30.609375 6.203125 
Q 37.796875 6.203125 41.984375 11.859375 
Q 46.1875 17.53125 46.1875 27.296875 
Q 46.1875 37.015625 41.984375 42.703125 
Q 37.796875 48.390625 30.609375 48.390625 
z
M 30.609375 56 
Q 42.328125 56 49.015625 48.375 
Q 55.71875 40.765625 55.71875 27.296875 
Q 55.71875 13.875 49.015625 6.21875 
Q 42.328125 -1.421875 30.609375 -1.421875 
Q 18.84375 -1.421875 12.171875 6.21875 
Q 5.515625 13.875 5.515625 27.296875 
Q 5.515625 40.765625 12.171875 48.375 
Q 18.84375 56 30.609375 56 
z
" id="DejaVuSans-111"/>
      <path id="DejaVuSans-32"/>
      <path d="M 54.890625 33.015625 
L 54.890625 0 
L 45.90625 0 
L 45.90625 32.71875 
Q 45.90625 40.484375 42.875 44.328125 
Q 39.84375 48.1875 33.796875 48.1875 
Q 26.515625 48.1875 22.3125 43.546875 
Q 18.109375 38.921875 18.109375 30.90625 
L 18.109375 0 
L 9.078125 0 
L 9.078125 75.984375 
L 18.109375 75.984375 
L 18.109375 46.1875 
Q 21.34375 51.125 25.703125 53.5625 
Q 30.078125 56 35.796875 56 
Q 45.21875 56 50.046875 50.171875 
Q 54.890625 44.34375 54.890625 33.015625 
z
" id="DejaVuSans-104"/>
      <path d="M 8.5 21.578125 
L 8.5 54.6875 
L 17.484375 54.6875 
L 17.484375 21.921875 
Q 17.484375 14.15625 20.5 10.265625 
Q 23.53125 6.390625 29.59375 6.390625 
Q 36.859375 6.390625 41.078125 11.03125 
Q 45.3125 15.671875 45.3125 23.6875 
L 45.3125 54.6875 
L 54.296875 54.6875 
L 54.296875 0 
L 45.3125 0 
L 45.3125 8.40625 
Q 42.046875 3.421875 37.71875 1 
Q 33.40625 -1.421875 27.6875 -1.421875 
Q 18.265625 -1.421875 13.375 4.4375 
Q 8.5 10.296875 8.5 21.578125 
z
M 31.109375 56 
z
" id="DejaVuSans-117"/>
     </defs>
     <g transform="translate(178.360156 268.034687)scale(0.1 -0.1)">
      <use xlink:href="#DejaVuSans-84"/>
      <use x="60.865234" xlink:href="#DejaVuSans-114"/>
      <use x="101.978516" xlink:href="#DejaVuSans-97"/>
      <use x="163.257812" xlink:href="#DejaVuSans-110"/>
      <use x="226.636719" xlink:href="#DejaVuSans-115"/>
      <use x="278.736328" xlink:href="#DejaVuSans-97"/>
      <use x="340.015625" xlink:href="#DejaVuSans-99"/>
      <use x="394.996094" xlink:href="#DejaVuSans-116"/>
      <use x="434.205078" xlink:href="#DejaVuSans-105"/>
      <use x="461.988281" xlink:href="#DejaVuSans-111"/>
      <use x="523.169922" xlink:href="#DejaVuSans-110"/>
      <use x="586.548828" xlink:href="#DejaVuSans-32"/>
      <use x="618.335938" xlink:href="#DejaVuSans-104"/>
      <use x="681.714844" xlink:href="#DejaVuSans-111"/>
      <use x="742.896484" xlink:href="#DejaVuSans-117"/>
      <use x="806.275391" xlink:href="#DejaVuSans-114"/>
     </g>
    </g>
   </g>
   <g id="matplotlib.axis_2">
    <g id="ytick_1">
     <g id="line2d_6">
      <defs>
       <path d="M 0 0 
L -3.5 0 
" id="m756f8e4f4f" style="stroke:#000000;stroke-width:0.8;"/>
      </defs>
      <g>
       <use style="stroke:#000000;stroke-width:0.8;" x="53.328125" xlink:href="#m756f8e4f4f" y="239.758125"/>
      </g>
     </g>
     <g id="text_7">
      <!-- 0 -->
      <g transform="translate(39.965625 243.557344)scale(0.1 -0.1)">
       <use xlink:href="#DejaVuSans-48"/>
      </g>
     </g>
    </g>
    <g id="ytick_2">
     <g id="line2d_7">
      <g>
       <use style="stroke:#000000;stroke-width:0.8;" x="53.328125" xlink:href="#m756f8e4f4f" y="213.478212"/>
      </g>
     </g>
     <g id="text_8">
      <!-- 500 -->
      <g transform="translate(27.240625 217.277431)scale(0.1 -0.1)">
       <use xlink:href="#DejaVuSans-53"/>
       <use x="63.623047" xlink:href="#DejaVuSans-48"/>
       <use x="127.246094" xlink:href="#DejaVuSans-48"/>
      </g>
     </g>
    </g>
    <g id="ytick_3">
     <g id="line2d_8">
      <g>
       <use style="stroke:#000000;stroke-width:0.8;" x="53.328125" xlink:href="#m756f8e4f4f" y="187.198299"/>
      </g>
     </g>
     <g id="text_9">
      <!-- 1000 -->
      <g transform="translate(20.878125 190.997518)scale(0.1 -0.1)">
       <use xlink:href="#DejaVuSans-49"/>
       <use x="63.623047" xlink:href="#DejaVuSans-48"/>
       <use x="127.246094" xlink:href="#DejaVuSans-48"/>
       <use x="190.869141" xlink:href="#DejaVuSans-48"/>
      </g>
     </g>
    </g>
    <g id="ytick_4">
     <g id="line2d_9">
      <g>
       <use style="stroke:#000000;stroke-width:0.8;" x="53.328125" xlink:href="#m756f8e4f4f" y="160.918386"/>
      </g>
     </g>
     <g id="text_10">
      <!-- 1500 -->
      <g transform="translate(20.878125 164.717605)scale(0.1 -0.1)">
       <use xlink:href="#DejaVuSans-49"/>
       <use x="63.623047" xlink:href="#DejaVuSans-53"/>
       <use x="127.246094" xlink:href="#DejaVuSans-48"/>
       <use x="190.869141" xlink:href="#DejaVuSans-48"/>
      </g>
     </g>
    </g>
    <g id="ytick_5">
     <g id="line2d_10">
      <g>
       <use style="stroke:#000000;stroke-width:0.8;" x="53.328125" xlink:href="#m756f8e4f4f" y="134.638473"/>
      </g>
     </g>
     <g id="text_11">
      <!-- 2000 -->
      <g transform="translate(20.878125 138.437692)scale(0.1 -0.1)">
       <use xlink:href="#DejaVuSans-50"/>
       <use x="63.623047" xlink:href="#DejaVuSans-48"/>
       <use x="127.246094" xlink:href="#DejaVuSans-48"/>
       <use x="190.869141" xlink:href="#DejaVuSans-48"/>
      </g>
     </g>
    </g>
    <g id="ytick_6">
     <g id="line2d_11">
      <g>
       <use style="stroke:#000000;stroke-width:0.8;" x="53.328125" xlink:href="#m756f8e4f4f" y="108.35856"/>
      </g>
     </g>
     <g id="text_12">
      <!-- 2500 -->
      <g transform="translate(20.878125 112.157779)scale(0.1 -0.1)">
       <use xlink:href="#DejaVuSans-50"/>
       <use x="63.623047" xlink:href="#DejaVuSans-53"/>
       <use x="127.246094" xlink:href="#DejaVuSans-48"/>
       <use x="190.869141" xlink:href="#DejaVuSans-48"/>
      </g>
     </g>
    </g>
    <g id="ytick_7">
     <g id="line2d_12">
      <g>
       <use style="stroke:#000000;stroke-width:0.8;" x="53.328125" xlink:href="#m756f8e4f4f" y="82.078647"/>
      </g>
     </g>
     <g id="text_13">
      <!-- 3000 -->
      <defs>
       <path d="M 40.578125 39.3125 
Q 47.65625 37.796875 51.625 33 
Q 55.609375 28.21875 55.609375 21.1875 
Q 55.609375 10.40625 48.1875 4.484375 
Q 40.765625 -1.421875 27.09375 -1.421875 
Q 22.515625 -1.421875 17.65625 -0.515625 
Q 12.796875 0.390625 7.625 2.203125 
L 7.625 11.71875 
Q 11.71875 9.328125 16.59375 8.109375 
Q 21.484375 6.890625 26.8125 6.890625 
Q 36.078125 6.890625 40.9375 10.546875 
Q 45.796875 14.203125 45.796875 21.1875 
Q 45.796875 27.640625 41.28125 31.265625 
Q 36.765625 34.90625 28.71875 34.90625 
L 20.21875 34.90625 
L 20.21875 43.015625 
L 29.109375 43.015625 
Q 36.375 43.015625 40.234375 45.921875 
Q 44.09375 48.828125 44.09375 54.296875 
Q 44.09375 59.90625 40.109375 62.90625 
Q 36.140625 65.921875 28.71875 65.921875 
Q 24.65625 65.921875 20.015625 65.03125 
Q 15.375 64.15625 9.8125 62.3125 
L 9.8125 71.09375 
Q 15.4375 72.65625 20.34375 73.4375 
Q 25.25 74.21875 29.59375 74.21875 
Q 40.828125 74.21875 47.359375 69.109375 
Q 53.90625 64.015625 53.90625 55.328125 
Q 53.90625 49.265625 50.4375 45.09375 
Q 46.96875 40.921875 40.578125 39.3125 
z
" id="DejaVuSans-51"/>
      </defs>
      <g transform="translate(20.878125 85.877866)scale(0.1 -0.1)">
       <use xlink:href="#DejaVuSans-51"/>
       <use x="63.623047" xlink:href="#DejaVuSans-48"/>
       <use x="127.246094" xlink:href="#DejaVuSans-48"/>
       <use x="190.869141" xlink:href="#DejaVuSans-48"/>
      </g>
     </g>
    </g>
    <g id="ytick_8">
     <g id="line2d_13">
      <g>
       <use style="stroke:#000000;stroke-width:0.8;" x="53.328125" xlink:href="#m756f8e4f4f" y="55.798734"/>
      </g>
     </g>
     <g id="text_14">
      <!-- 3500 -->
      <g transform="translate(20.878125 59.597953)scale(0.1 -0.1)">
       <use xlink:href="#DejaVuSans-51"/>
       <use x="63.623047" xlink:href="#DejaVuSans-53"/>
       <use x="127.246094" xlink:href="#DejaVuSans-48"/>
       <use x="190.869141" xlink:href="#DejaVuSans-48"/>
      </g>
     </g>
    </g>
    <g id="ytick_9">
     <g id="line2d_14">
      <g>
       <use style="stroke:#000000;stroke-width:0.8;" x="53.328125" xlink:href="#m756f8e4f4f" y="29.518821"/>
      </g>
     </g>
     <g id="text_15">
      <!-- 4000 -->
      <defs>
       <path d="M 37.796875 64.3125 
L 12.890625 25.390625 
L 37.796875 25.390625 
z
M 35.203125 72.90625 
L 47.609375 72.90625 
L 47.609375 25.390625 
L 58.015625 25.390625 
L 58.015625 17.1875 
L 47.609375 17.1875 
L 47.609375 0 
L 37.796875 0 
L 37.796875 17.1875 
L 4.890625 17.1875 
L 4.890625 26.703125 
z
" id="DejaVuSans-52"/>
      </defs>
      <g transform="translate(20.878125 33.31804)scale(0.1 -0.1)">
       <use xlink:href="#DejaVuSans-52"/>
       <use x="63.623047" xlink:href="#DejaVuSans-48"/>
       <use x="127.246094" xlink:href="#DejaVuSans-48"/>
       <use x="190.869141" xlink:href="#DejaVuSans-48"/>
      </g>
     </g>
    </g>
    <g id="text_16">
     <!-- Normalized amount of transactions -->
     <defs>
      <path d="M 9.8125 72.90625 
L 23.09375 72.90625 
L 55.421875 11.921875 
L 55.421875 72.90625 
L 64.984375 72.90625 
L 64.984375 0 
L 51.703125 0 
L 19.390625 60.984375 
L 19.390625 0 
L 9.8125 0 
z
" id="DejaVuSans-78"/>
      <path d="M 52 44.1875 
Q 55.375 50.25 60.0625 53.125 
Q 64.75 56 71.09375 56 
Q 79.640625 56 84.28125 50.015625 
Q 88.921875 44.046875 88.921875 33.015625 
L 88.921875 0 
L 79.890625 0 
L 79.890625 32.71875 
Q 79.890625 40.578125 77.09375 44.375 
Q 74.3125 48.1875 68.609375 48.1875 
Q 61.625 48.1875 57.5625 43.546875 
Q 53.515625 38.921875 53.515625 30.90625 
L 53.515625 0 
L 44.484375 0 
L 44.484375 32.71875 
Q 44.484375 40.625 41.703125 44.40625 
Q 38.921875 48.1875 33.109375 48.1875 
Q 26.21875 48.1875 22.15625 43.53125 
Q 18.109375 38.875 18.109375 30.90625 
L 18.109375 0 
L 9.078125 0 
L 9.078125 54.6875 
L 18.109375 54.6875 
L 18.109375 46.1875 
Q 21.1875 51.21875 25.484375 53.609375 
Q 29.78125 56 35.6875 56 
Q 41.65625 56 45.828125 52.96875 
Q 50 49.953125 52 44.1875 
z
" id="DejaVuSans-109"/>
      <path d="M 9.421875 75.984375 
L 18.40625 75.984375 
L 18.40625 0 
L 9.421875 0 
z
" id="DejaVuSans-108"/>
      <path d="M 5.515625 54.6875 
L 48.1875 54.6875 
L 48.1875 46.484375 
L 14.40625 7.171875 
L 48.1875 7.171875 
L 48.1875 0 
L 4.296875 0 
L 4.296875 8.203125 
L 38.09375 47.515625 
L 5.515625 47.515625 
z
" id="DejaVuSans-122"/>
      <path d="M 56.203125 29.59375 
L 56.203125 25.203125 
L 14.890625 25.203125 
Q 15.484375 15.921875 20.484375 11.0625 
Q 25.484375 6.203125 34.421875 6.203125 
Q 39.59375 6.203125 44.453125 7.46875 
Q 49.3125 8.734375 54.109375 11.28125 
L 54.109375 2.78125 
Q 49.265625 0.734375 44.1875 -0.34375 
Q 39.109375 -1.421875 33.890625 -1.421875 
Q 20.796875 -1.421875 13.15625 6.1875 
Q 5.515625 13.8125 5.515625 26.8125 
Q 5.515625 40.234375 12.765625 48.109375 
Q 20.015625 56 32.328125 56 
Q 43.359375 56 49.78125 48.890625 
Q 56.203125 41.796875 56.203125 29.59375 
z
M 47.21875 32.234375 
Q 47.125 39.59375 43.09375 43.984375 
Q 39.0625 48.390625 32.421875 48.390625 
Q 24.90625 48.390625 20.390625 44.140625 
Q 15.875 39.890625 15.1875 32.171875 
z
" id="DejaVuSans-101"/>
      <path d="M 45.40625 46.390625 
L 45.40625 75.984375 
L 54.390625 75.984375 
L 54.390625 0 
L 45.40625 0 
L 45.40625 8.203125 
Q 42.578125 3.328125 38.25 0.953125 
Q 33.9375 -1.421875 27.875 -1.421875 
Q 17.96875 -1.421875 11.734375 6.484375 
Q 5.515625 14.40625 5.515625 27.296875 
Q 5.515625 40.1875 11.734375 48.09375 
Q 17.96875 56 27.875 56 
Q 33.9375 56 38.25 53.625 
Q 42.578125 51.265625 45.40625 46.390625 
z
M 14.796875 27.296875 
Q 14.796875 17.390625 18.875 11.75 
Q 22.953125 6.109375 30.078125 6.109375 
Q 37.203125 6.109375 41.296875 11.75 
Q 45.40625 17.390625 45.40625 27.296875 
Q 45.40625 37.203125 41.296875 42.84375 
Q 37.203125 48.484375 30.078125 48.484375 
Q 22.953125 48.484375 18.875 42.84375 
Q 14.796875 37.203125 14.796875 27.296875 
z
" id="DejaVuSans-100"/>
      <path d="M 37.109375 75.984375 
L 37.109375 68.5 
L 28.515625 68.5 
Q 23.6875 68.5 21.796875 66.546875 
Q 19.921875 64.59375 19.921875 59.515625 
L 19.921875 54.6875 
L 34.71875 54.6875 
L 34.71875 47.703125 
L 19.921875 47.703125 
L 19.921875 0 
L 10.890625 0 
L 10.890625 47.703125 
L 2.296875 47.703125 
L 2.296875 54.6875 
L 10.890625 54.6875 
L 10.890625 58.5 
Q 10.890625 67.625 15.140625 71.796875 
Q 19.390625 75.984375 28.609375 75.984375 
z
" id="DejaVuSans-102"/>
     </defs>
     <g transform="translate(14.798438 219.206875)rotate(-90)scale(0.1 -0.1)">
      <use xlink:href="#DejaVuSans-78"/>
      <use x="74.804688" xlink:href="#DejaVuSans-111"/>
      <use x="135.986328" xlink:href="#DejaVuSans-114"/>
      <use x="177.083984" xlink:href="#DejaVuSans-109"/>
      <use x="274.496094" xlink:href="#DejaVuSans-97"/>
      <use x="335.775391" xlink:href="#DejaVuSans-108"/>
      <use x="363.558594" xlink:href="#DejaVuSans-105"/>
      <use x="391.341797" xlink:href="#DejaVuSans-122"/>
      <use x="443.832031" xlink:href="#DejaVuSans-101"/>
      <use x="505.355469" xlink:href="#DejaVuSans-100"/>
      <use x="568.832031" xlink:href="#DejaVuSans-32"/>
      <use x="600.619141" xlink:href="#DejaVuSans-97"/>
      <use x="661.898438" xlink:href="#DejaVuSans-109"/>
      <use x="759.310547" xlink:href="#DejaVuSans-111"/>
      <use x="820.492188" xlink:href="#DejaVuSans-117"/>
      <use x="883.871094" xlink:href="#DejaVuSans-110"/>
      <use x="947.25" xlink:href="#DejaVuSans-116"/>
      <use x="986.458984" xlink:href="#DejaVuSans-32"/>
      <use x="1018.246094" xlink:href="#DejaVuSans-111"/>
      <use x="1079.427734" xlink:href="#DejaVuSans-102"/>
      <use x="1114.632812" xlink:href="#DejaVuSans-32"/>
      <use x="1146.419922" xlink:href="#DejaVuSans-116"/>
      <use x="1185.628906" xlink:href="#DejaVuSans-114"/>
      <use x="1226.742188" xlink:href="#DejaVuSans-97"/>
      <use x="1288.021484" xlink:href="#DejaVuSans-110"/>
      <use x="1351.400391" xlink:href="#DejaVuSans-115"/>
      <use x="1403.5" xlink:href="#DejaVuSans-97"/>
      <use x="1464.779297" xlink:href="#DejaVuSans-99"/>
      <use x="1519.759766" xlink:href="#DejaVuSans-116"/>
      <use x="1558.96875" xlink:href="#DejaVuSans-105"/>
      <use x="1586.751953" xlink:href="#DejaVuSans-111"/>
      <use x="1647.933594" xlink:href="#DejaVuSans-110"/>
      <use x="1711.3125" xlink:href="#DejaVuSans-115"/>
     </g>
    </g>
   </g>
   <g id="patch_51">
    <path d="M 53.328125 239.758125 
L 53.328125 22.318125 
" style="fill:none;stroke:#000000;stroke-linecap:square;stroke-linejoin:miter;stroke-width:0.8;"/>
   </g>
   <g id="patch_52">
    <path d="M 388.128125 239.758125 
L 388.128125 22.318125 
" style="fill:none;stroke:#000000;stroke-linecap:square;stroke-linejoin:miter;stroke-width:0.8;"/>
   </g>
   <g id="patch_53">
    <path d="M 53.328125 239.758125 
L 388.128125 239.758125 
" style="fill:none;stroke:#000000;stroke-linecap:square;stroke-linejoin:miter;stroke-width:0.8;"/>
   </g>
   <g id="patch_54">
    <path d="M 53.328125 22.318125 
L 388.128125 22.318125 
" style="fill:none;stroke:#000000;stroke-linecap:square;stroke-linejoin:miter;stroke-width:0.8;"/>
   </g>
   <g id="text_17">
    <!-- Normalized hourly amount of transactions -->
    <defs>
     <path d="M 32.171875 -5.078125 
Q 28.375 -14.84375 24.75 -17.8125 
Q 21.140625 -20.796875 15.09375 -20.796875 
L 7.90625 -20.796875 
L 7.90625 -13.28125 
L 13.1875 -13.28125 
Q 16.890625 -13.28125 18.9375 -11.515625 
Q 21 -9.765625 23.484375 -3.21875 
L 25.09375 0.875 
L 2.984375 54.6875 
L 12.5 54.6875 
L 29.59375 11.921875 
L 46.6875 54.6875 
L 56.203125 54.6875 
z
" id="DejaVuSans-121"/>
    </defs>
    <g transform="translate(94.057813 16.318125)scale(0.12 -0.12)">
     <use xlink:href="#DejaVuSans-78"/>
     <use x="74.804688" xlink:href="#DejaVuSans-111"/>
     <use x="135.986328" xlink:href="#DejaVuSans-114"/>
     <use x="177.083984" xlink:href="#DejaVuSans-109"/>
     <use x="274.496094" xlink:href="#DejaVuSans-97"/>
     <use x="335.775391" xlink:href="#DejaVuSans-108"/>
     <use x="363.558594" xlink:href="#DejaVuSans-105"/>
     <use x="391.341797" xlink:href="#DejaVuSans-122"/>
     <use x="443.832031" xlink:href="#DejaVuSans-101"/>
     <use x="505.355469" xlink:href="#DejaVuSans-100"/>
     <use x="568.832031" xlink:href="#DejaVuSans-32"/>
     <use x="600.619141" xlink:href="#DejaVuSans-104"/>
     <use x="663.998047" xlink:href="#DejaVuSans-111"/>
     <use x="725.179688" xlink:href="#DejaVuSans-117"/>
     <use x="788.558594" xlink:href="#DejaVuSans-114"/>
     <use x="829.671875" xlink:href="#DejaVuSans-108"/>
     <use x="857.455078" xlink:href="#DejaVuSans-121"/>
     <use x="916.634766" xlink:href="#DejaVuSans-32"/>
     <use x="948.421875" xlink:href="#DejaVuSans-97"/>
     <use x="1009.701172" xlink:href="#DejaVuSans-109"/>
     <use x="1107.113281" xlink:href="#DejaVuSans-111"/>
     <use x="1168.294922" xlink:href="#DejaVuSans-117"/>
     <use x="1231.673828" xlink:href="#DejaVuSans-110"/>
     <use x="1295.052734" xlink:href="#DejaVuSans-116"/>
     <use x="1334.261719" xlink:href="#DejaVuSans-32"/>
     <use x="1366.048828" xlink:href="#DejaVuSans-111"/>
     <use x="1427.230469" xlink:href="#DejaVuSans-102"/>
     <use x="1462.435547" xlink:href="#DejaVuSans-32"/>
     <use x="1494.222656" xlink:href="#DejaVuSans-116"/>
     <use x="1533.431641" xlink:href="#DejaVuSans-114"/>
     <use x="1574.544922" xlink:href="#DejaVuSans-97"/>
     <use x="1635.824219" xlink:href="#DejaVuSans-110"/>
     <use x="1699.203125" xlink:href="#DejaVuSans-115"/>
     <use x="1751.302734" xlink:href="#DejaVuSans-97"/>
     <use x="1812.582031" xlink:href="#DejaVuSans-99"/>
     <use x="1867.5625" xlink:href="#DejaVuSans-116"/>
     <use x="1906.771484" xlink:href="#DejaVuSans-105"/>
     <use x="1934.554688" xlink:href="#DejaVuSans-111"/>
     <use x="1995.736328" xlink:href="#DejaVuSans-110"/>
     <use x="2059.115234" xlink:href="#DejaVuSans-115"/>
    </g>
   </g>
   <g id="legend_1">
    <g id="patch_55">
     <path d="M 60.328125 59.674375 
L 139.139063 59.674375 
Q 141.139063 59.674375 141.139063 57.674375 
L 141.139063 29.318125 
Q 141.139063 27.318125 139.139063 27.318125 
L 60.328125 27.318125 
Q 58.328125 27.318125 58.328125 29.318125 
L 58.328125 57.674375 
Q 58.328125 59.674375 60.328125 59.674375 
z
" style="fill:#ffffff;opacity:0.8;stroke:#cccccc;stroke-linejoin:miter;"/>
    </g>
    <g id="patch_56">
     <path d="M 62.328125 38.916562 
L 82.328125 38.916562 
L 82.328125 31.916562 
L 62.328125 31.916562 
z
" style="fill:#1f77b4;opacity:0.5;"/>
    </g>
    <g id="text_18">
     <!-- Weekday -->
     <defs>
      <path d="M 3.328125 72.90625 
L 13.28125 72.90625 
L 28.609375 11.28125 
L 43.890625 72.90625 
L 54.984375 72.90625 
L 70.3125 11.28125 
L 85.59375 72.90625 
L 95.609375 72.90625 
L 77.296875 0 
L 64.890625 0 
L 49.515625 63.28125 
L 33.984375 0 
L 21.578125 0 
z
" id="DejaVuSans-87"/>
      <path d="M 9.078125 75.984375 
L 18.109375 75.984375 
L 18.109375 31.109375 
L 44.921875 54.6875 
L 56.390625 54.6875 
L 27.390625 29.109375 
L 57.625 0 
L 45.90625 0 
L 18.109375 26.703125 
L 18.109375 0 
L 9.078125 0 
z
" id="DejaVuSans-107"/>
     </defs>
     <g transform="translate(90.328125 38.916562)scale(0.1 -0.1)">
      <use xlink:href="#DejaVuSans-87"/>
      <use x="98.798828" xlink:href="#DejaVuSans-101"/>
      <use x="160.322266" xlink:href="#DejaVuSans-101"/>
      <use x="221.845703" xlink:href="#DejaVuSans-107"/>
      <use x="279.755859" xlink:href="#DejaVuSans-100"/>
      <use x="343.232422" xlink:href="#DejaVuSans-97"/>
      <use x="404.511719" xlink:href="#DejaVuSans-121"/>
     </g>
    </g>
    <g id="patch_57">
     <path d="M 62.328125 53.594687 
L 82.328125 53.594687 
L 82.328125 46.594687 
L 62.328125 46.594687 
z
" style="fill:#ff7f0e;opacity:0.5;"/>
    </g>
    <g id="text_19">
     <!-- Weekend -->
     <g transform="translate(90.328125 53.594687)scale(0.1 -0.1)">
      <use xlink:href="#DejaVuSans-87"/>
      <use x="98.798828" xlink:href="#DejaVuSans-101"/>
      <use x="160.322266" xlink:href="#DejaVuSans-101"/>
      <use x="221.845703" xlink:href="#DejaVuSans-107"/>
      <use x="279.708984" xlink:href="#DejaVuSans-101"/>
      <use x="341.232422" xlink:href="#DejaVuSans-110"/>
      <use x="404.611328" xlink:href="#DejaVuSans-100"/>
     </g>
    </g>
   </g>
  </g>
 </g>
 <defs>
  <clipPath id="pa6cd9e7a3a">
   <rect height="217.44" width="334.8" x="53.328125" y="22.318125"/>
  </clipPath>
 </defs>
</svg>
